<mxfile host="app.diagrams.net" modified="2024-05-05T17:29:05.742Z" agent="Mozilla/5.0 (Windows NT 10.0; Win64; x64) AppleWebKit/537.36 (KHTML, like Gecko) Chrome/124.0.0.0 Safari/537.36" etag="dYm0RJ0HD4qKiwRZvLdx" version="24.3.1" type="device">
  <diagram id="R2lEEEUBdFMjLlhIrx00" name="Page-1">
    <mxGraphModel dx="1500" dy="861" grid="1" gridSize="10" guides="1" tooltips="1" connect="1" arrows="1" fold="1" page="1" pageScale="1" pageWidth="850" pageHeight="1100" math="0" shadow="0" extFonts="Permanent Marker^https://fonts.googleapis.com/css?family=Permanent+Marker">
      <root>
        <mxCell id="0" />
        <mxCell id="1" parent="0" />
        <mxCell id="II89ZpB64ln66D03jxN8-34" value="Order" style="shape=table;startSize=25;container=1;collapsible=0;childLayout=tableLayout;fixedRows=1;rowLines=1;fontStyle=1;align=center;resizeLast=1;fillColor=#dae8fc;strokeColor=#6c8ebf;" parent="1" vertex="1">
          <mxGeometry x="1830" y="570" width="125" height="179" as="geometry" />
        </mxCell>
        <mxCell id="II89ZpB64ln66D03jxN8-35" style="shape=tableRow;horizontal=0;startSize=0;swimlaneHead=0;swimlaneBody=0;fillColor=none;collapsible=0;dropTarget=0;points=[[0,0.5],[1,0.5]];portConstraint=eastwest;top=0;left=0;right=0;bottom=0;" parent="II89ZpB64ln66D03jxN8-34" vertex="1">
          <mxGeometry y="25" width="125" height="22" as="geometry" />
        </mxCell>
        <mxCell id="II89ZpB64ln66D03jxN8-36" value="PK" style="shape=partialRectangle;connectable=0;fillColor=none;top=0;left=0;bottom=0;right=0;align=left;spacingLeft=2;overflow=hidden;fontSize=11;fontStyle=1" parent="II89ZpB64ln66D03jxN8-35" vertex="1">
          <mxGeometry width="48" height="22" as="geometry">
            <mxRectangle width="48" height="22" as="alternateBounds" />
          </mxGeometry>
        </mxCell>
        <mxCell id="II89ZpB64ln66D03jxN8-37" value="OrderID" style="shape=partialRectangle;connectable=0;fillColor=#f5f5f5;top=0;left=0;bottom=0;right=0;align=left;spacingLeft=2;overflow=hidden;fontSize=11;fontStyle=5;fontColor=#333333;strokeColor=#666666;" parent="II89ZpB64ln66D03jxN8-35" vertex="1">
          <mxGeometry x="48" width="77" height="22" as="geometry">
            <mxRectangle width="77" height="22" as="alternateBounds" />
          </mxGeometry>
        </mxCell>
        <mxCell id="II89ZpB64ln66D03jxN8-38" style="shape=tableRow;horizontal=0;startSize=0;swimlaneHead=0;swimlaneBody=0;fillColor=none;collapsible=0;dropTarget=0;points=[[0,0.5],[1,0.5]];portConstraint=eastwest;top=0;left=0;right=0;bottom=0;" parent="II89ZpB64ln66D03jxN8-34" vertex="1">
          <mxGeometry y="47" width="125" height="22" as="geometry" />
        </mxCell>
        <mxCell id="II89ZpB64ln66D03jxN8-39" value="FK" style="shape=partialRectangle;connectable=0;fillColor=none;top=0;left=0;bottom=0;right=0;align=left;spacingLeft=2;overflow=hidden;fontSize=11;fontStyle=1" parent="II89ZpB64ln66D03jxN8-38" vertex="1">
          <mxGeometry width="48" height="22" as="geometry">
            <mxRectangle width="48" height="22" as="alternateBounds" />
          </mxGeometry>
        </mxCell>
        <mxCell id="II89ZpB64ln66D03jxN8-40" value="UserID" style="shape=partialRectangle;connectable=0;fillColor=#f5f5f5;top=0;left=0;bottom=0;right=0;align=left;spacingLeft=2;overflow=hidden;fontSize=11;fontColor=#333333;strokeColor=#666666;" parent="II89ZpB64ln66D03jxN8-38" vertex="1">
          <mxGeometry x="48" width="77" height="22" as="geometry">
            <mxRectangle width="77" height="22" as="alternateBounds" />
          </mxGeometry>
        </mxCell>
        <mxCell id="II89ZpB64ln66D03jxN8-41" style="shape=tableRow;horizontal=0;startSize=0;swimlaneHead=0;swimlaneBody=0;fillColor=none;collapsible=0;dropTarget=0;points=[[0,0.5],[1,0.5]];portConstraint=eastwest;top=0;left=0;right=0;bottom=0;" parent="II89ZpB64ln66D03jxN8-34" vertex="1">
          <mxGeometry y="69" width="125" height="22" as="geometry" />
        </mxCell>
        <mxCell id="II89ZpB64ln66D03jxN8-42" value="FK" style="shape=partialRectangle;connectable=0;fillColor=none;top=0;left=0;bottom=0;right=0;align=left;spacingLeft=2;overflow=hidden;fontSize=11;fontStyle=1" parent="II89ZpB64ln66D03jxN8-41" vertex="1">
          <mxGeometry width="48" height="22" as="geometry">
            <mxRectangle width="48" height="22" as="alternateBounds" />
          </mxGeometry>
        </mxCell>
        <mxCell id="II89ZpB64ln66D03jxN8-43" value="PaymentID" style="shape=partialRectangle;connectable=0;fillColor=none;top=0;left=0;bottom=0;right=0;align=left;spacingLeft=2;overflow=hidden;fontSize=11;" parent="II89ZpB64ln66D03jxN8-41" vertex="1">
          <mxGeometry x="48" width="77" height="22" as="geometry">
            <mxRectangle width="77" height="22" as="alternateBounds" />
          </mxGeometry>
        </mxCell>
        <mxCell id="II89ZpB64ln66D03jxN8-44" style="shape=tableRow;horizontal=0;startSize=0;swimlaneHead=0;swimlaneBody=0;fillColor=none;collapsible=0;dropTarget=0;points=[[0,0.5],[1,0.5]];portConstraint=eastwest;top=0;left=0;right=0;bottom=0;" parent="II89ZpB64ln66D03jxN8-34" vertex="1">
          <mxGeometry y="91" width="125" height="22" as="geometry" />
        </mxCell>
        <mxCell id="II89ZpB64ln66D03jxN8-45" value="" style="shape=partialRectangle;connectable=0;fillColor=none;top=0;left=0;bottom=0;right=0;align=left;spacingLeft=2;overflow=hidden;fontSize=11;" parent="II89ZpB64ln66D03jxN8-44" vertex="1">
          <mxGeometry width="48" height="22" as="geometry">
            <mxRectangle width="48" height="22" as="alternateBounds" />
          </mxGeometry>
        </mxCell>
        <mxCell id="II89ZpB64ln66D03jxN8-46" value="OrderStatus" style="shape=partialRectangle;connectable=0;fillColor=none;top=0;left=0;bottom=0;right=0;align=left;spacingLeft=2;overflow=hidden;fontSize=11;" parent="II89ZpB64ln66D03jxN8-44" vertex="1">
          <mxGeometry x="48" width="77" height="22" as="geometry">
            <mxRectangle width="77" height="22" as="alternateBounds" />
          </mxGeometry>
        </mxCell>
        <mxCell id="II89ZpB64ln66D03jxN8-47" style="shape=tableRow;horizontal=0;startSize=0;swimlaneHead=0;swimlaneBody=0;fillColor=none;collapsible=0;dropTarget=0;points=[[0,0.5],[1,0.5]];portConstraint=eastwest;top=0;left=0;right=0;bottom=0;" parent="II89ZpB64ln66D03jxN8-34" vertex="1">
          <mxGeometry y="113" width="125" height="22" as="geometry" />
        </mxCell>
        <mxCell id="II89ZpB64ln66D03jxN8-48" value="" style="shape=partialRectangle;connectable=0;fillColor=none;top=0;left=0;bottom=0;right=0;align=left;spacingLeft=2;overflow=hidden;fontSize=11;" parent="II89ZpB64ln66D03jxN8-47" vertex="1">
          <mxGeometry width="48" height="22" as="geometry">
            <mxRectangle width="48" height="22" as="alternateBounds" />
          </mxGeometry>
        </mxCell>
        <mxCell id="II89ZpB64ln66D03jxN8-49" value="OrderDate" style="shape=partialRectangle;connectable=0;fillColor=#f5f5f5;top=0;left=0;bottom=0;right=0;align=left;spacingLeft=2;overflow=hidden;fontSize=11;fontColor=#333333;strokeColor=#666666;" parent="II89ZpB64ln66D03jxN8-47" vertex="1">
          <mxGeometry x="48" width="77" height="22" as="geometry">
            <mxRectangle width="77" height="22" as="alternateBounds" />
          </mxGeometry>
        </mxCell>
        <mxCell id="II89ZpB64ln66D03jxN8-50" style="shape=tableRow;horizontal=0;startSize=0;swimlaneHead=0;swimlaneBody=0;fillColor=none;collapsible=0;dropTarget=0;points=[[0,0.5],[1,0.5]];portConstraint=eastwest;top=0;left=0;right=0;bottom=0;" parent="II89ZpB64ln66D03jxN8-34" vertex="1">
          <mxGeometry y="135" width="125" height="22" as="geometry" />
        </mxCell>
        <mxCell id="II89ZpB64ln66D03jxN8-51" value="" style="shape=partialRectangle;connectable=0;fillColor=none;top=0;left=0;bottom=0;right=0;align=left;spacingLeft=2;overflow=hidden;fontSize=11;" parent="II89ZpB64ln66D03jxN8-50" vertex="1">
          <mxGeometry width="48" height="22" as="geometry">
            <mxRectangle width="48" height="22" as="alternateBounds" />
          </mxGeometry>
        </mxCell>
        <mxCell id="II89ZpB64ln66D03jxN8-52" value="DeliveryDate" style="shape=partialRectangle;connectable=0;fillColor=#f5f5f5;top=0;left=0;bottom=0;right=0;align=left;spacingLeft=2;overflow=hidden;fontSize=11;fontColor=#333333;strokeColor=#666666;" parent="II89ZpB64ln66D03jxN8-50" vertex="1">
          <mxGeometry x="48" width="77" height="22" as="geometry">
            <mxRectangle width="77" height="22" as="alternateBounds" />
          </mxGeometry>
        </mxCell>
        <mxCell id="II89ZpB64ln66D03jxN8-53" style="shape=tableRow;horizontal=0;startSize=0;swimlaneHead=0;swimlaneBody=0;fillColor=none;collapsible=0;dropTarget=0;points=[[0,0.5],[1,0.5]];portConstraint=eastwest;top=0;left=0;right=0;bottom=0;" parent="II89ZpB64ln66D03jxN8-34" vertex="1">
          <mxGeometry y="157" width="125" height="22" as="geometry" />
        </mxCell>
        <mxCell id="II89ZpB64ln66D03jxN8-54" value="" style="shape=partialRectangle;connectable=0;fillColor=none;top=0;left=0;bottom=0;right=0;align=left;spacingLeft=2;overflow=hidden;fontSize=11;" parent="II89ZpB64ln66D03jxN8-53" vertex="1">
          <mxGeometry width="48" height="22" as="geometry">
            <mxRectangle width="48" height="22" as="alternateBounds" />
          </mxGeometry>
        </mxCell>
        <mxCell id="II89ZpB64ln66D03jxN8-55" value="TotalAmount" style="shape=partialRectangle;connectable=0;fillColor=#f5f5f5;top=0;left=0;bottom=0;right=0;align=left;spacingLeft=2;overflow=hidden;fontSize=11;fontColor=#333333;strokeColor=#666666;" parent="II89ZpB64ln66D03jxN8-53" vertex="1">
          <mxGeometry x="48" width="77" height="22" as="geometry">
            <mxRectangle width="77" height="22" as="alternateBounds" />
          </mxGeometry>
        </mxCell>
        <mxCell id="II89ZpB64ln66D03jxN8-56" value="OrderDetails" style="shape=table;startSize=25;container=1;collapsible=0;childLayout=tableLayout;fixedRows=1;rowLines=1;fontStyle=1;align=center;resizeLast=1;fillColor=#dae8fc;strokeColor=#6c8ebf;" parent="1" vertex="1">
          <mxGeometry x="705" y="570" width="108" height="157" as="geometry" />
        </mxCell>
        <mxCell id="II89ZpB64ln66D03jxN8-57" style="shape=tableRow;horizontal=0;startSize=0;swimlaneHead=0;swimlaneBody=0;fillColor=none;collapsible=0;dropTarget=0;points=[[0,0.5],[1,0.5]];portConstraint=eastwest;top=0;left=0;right=0;bottom=0;" parent="II89ZpB64ln66D03jxN8-56" vertex="1">
          <mxGeometry y="25" width="108" height="22" as="geometry" />
        </mxCell>
        <mxCell id="II89ZpB64ln66D03jxN8-58" value="PK" style="shape=partialRectangle;connectable=0;fillColor=none;top=0;left=0;bottom=0;right=0;align=left;spacingLeft=2;overflow=hidden;fontSize=11;fontStyle=1" parent="II89ZpB64ln66D03jxN8-57" vertex="1">
          <mxGeometry width="30" height="22" as="geometry">
            <mxRectangle width="30" height="22" as="alternateBounds" />
          </mxGeometry>
        </mxCell>
        <mxCell id="II89ZpB64ln66D03jxN8-59" value="OrderDetailID" style="shape=partialRectangle;connectable=0;fillColor=none;top=0;left=0;bottom=0;right=0;align=left;spacingLeft=2;overflow=hidden;fontSize=11;" parent="II89ZpB64ln66D03jxN8-57" vertex="1">
          <mxGeometry x="30" width="78" height="22" as="geometry">
            <mxRectangle width="78" height="22" as="alternateBounds" />
          </mxGeometry>
        </mxCell>
        <mxCell id="II89ZpB64ln66D03jxN8-60" style="shape=tableRow;horizontal=0;startSize=0;swimlaneHead=0;swimlaneBody=0;fillColor=none;collapsible=0;dropTarget=0;points=[[0,0.5],[1,0.5]];portConstraint=eastwest;top=0;left=0;right=0;bottom=0;" parent="II89ZpB64ln66D03jxN8-56" vertex="1">
          <mxGeometry y="47" width="108" height="22" as="geometry" />
        </mxCell>
        <mxCell id="II89ZpB64ln66D03jxN8-61" value="FK" style="shape=partialRectangle;connectable=0;fillColor=none;top=0;left=0;bottom=0;right=0;align=left;spacingLeft=2;overflow=hidden;fontSize=11;fontStyle=1" parent="II89ZpB64ln66D03jxN8-60" vertex="1">
          <mxGeometry width="30" height="22" as="geometry">
            <mxRectangle width="30" height="22" as="alternateBounds" />
          </mxGeometry>
        </mxCell>
        <mxCell id="II89ZpB64ln66D03jxN8-62" value="OrderID" style="shape=partialRectangle;connectable=0;fillColor=none;top=0;left=0;bottom=0;right=0;align=left;spacingLeft=2;overflow=hidden;fontSize=11;" parent="II89ZpB64ln66D03jxN8-60" vertex="1">
          <mxGeometry x="30" width="78" height="22" as="geometry">
            <mxRectangle width="78" height="22" as="alternateBounds" />
          </mxGeometry>
        </mxCell>
        <mxCell id="II89ZpB64ln66D03jxN8-63" style="shape=tableRow;horizontal=0;startSize=0;swimlaneHead=0;swimlaneBody=0;fillColor=none;collapsible=0;dropTarget=0;points=[[0,0.5],[1,0.5]];portConstraint=eastwest;top=0;left=0;right=0;bottom=0;" parent="II89ZpB64ln66D03jxN8-56" vertex="1">
          <mxGeometry y="69" width="108" height="22" as="geometry" />
        </mxCell>
        <mxCell id="II89ZpB64ln66D03jxN8-64" value="FK" style="shape=partialRectangle;connectable=0;fillColor=none;top=0;left=0;bottom=0;right=0;align=left;spacingLeft=2;overflow=hidden;fontSize=11;fontStyle=1" parent="II89ZpB64ln66D03jxN8-63" vertex="1">
          <mxGeometry width="30" height="22" as="geometry">
            <mxRectangle width="30" height="22" as="alternateBounds" />
          </mxGeometry>
        </mxCell>
        <mxCell id="II89ZpB64ln66D03jxN8-65" value="ProductItem" style="shape=partialRectangle;connectable=0;fillColor=none;top=0;left=0;bottom=0;right=0;align=left;spacingLeft=2;overflow=hidden;fontSize=11;" parent="II89ZpB64ln66D03jxN8-63" vertex="1">
          <mxGeometry x="30" width="78" height="22" as="geometry">
            <mxRectangle width="78" height="22" as="alternateBounds" />
          </mxGeometry>
        </mxCell>
        <mxCell id="II89ZpB64ln66D03jxN8-66" style="shape=tableRow;horizontal=0;startSize=0;swimlaneHead=0;swimlaneBody=0;fillColor=none;collapsible=0;dropTarget=0;points=[[0,0.5],[1,0.5]];portConstraint=eastwest;top=0;left=0;right=0;bottom=0;" parent="II89ZpB64ln66D03jxN8-56" vertex="1">
          <mxGeometry y="91" width="108" height="22" as="geometry" />
        </mxCell>
        <mxCell id="II89ZpB64ln66D03jxN8-67" value="" style="shape=partialRectangle;connectable=0;fillColor=none;top=0;left=0;bottom=0;right=0;align=left;spacingLeft=2;overflow=hidden;fontSize=11;" parent="II89ZpB64ln66D03jxN8-66" vertex="1">
          <mxGeometry width="30" height="22" as="geometry">
            <mxRectangle width="30" height="22" as="alternateBounds" />
          </mxGeometry>
        </mxCell>
        <mxCell id="II89ZpB64ln66D03jxN8-68" value="Quantity" style="shape=partialRectangle;connectable=0;fillColor=none;top=0;left=0;bottom=0;right=0;align=left;spacingLeft=2;overflow=hidden;fontSize=11;" parent="II89ZpB64ln66D03jxN8-66" vertex="1">
          <mxGeometry x="30" width="78" height="22" as="geometry">
            <mxRectangle width="78" height="22" as="alternateBounds" />
          </mxGeometry>
        </mxCell>
        <mxCell id="II89ZpB64ln66D03jxN8-69" style="shape=tableRow;horizontal=0;startSize=0;swimlaneHead=0;swimlaneBody=0;fillColor=none;collapsible=0;dropTarget=0;points=[[0,0.5],[1,0.5]];portConstraint=eastwest;top=0;left=0;right=0;bottom=0;" parent="II89ZpB64ln66D03jxN8-56" vertex="1">
          <mxGeometry y="113" width="108" height="22" as="geometry" />
        </mxCell>
        <mxCell id="II89ZpB64ln66D03jxN8-70" value="" style="shape=partialRectangle;connectable=0;fillColor=none;top=0;left=0;bottom=0;right=0;align=left;spacingLeft=2;overflow=hidden;fontSize=11;" parent="II89ZpB64ln66D03jxN8-69" vertex="1">
          <mxGeometry width="30" height="22" as="geometry">
            <mxRectangle width="30" height="22" as="alternateBounds" />
          </mxGeometry>
        </mxCell>
        <mxCell id="II89ZpB64ln66D03jxN8-71" value="SubTotal" style="shape=partialRectangle;connectable=0;fillColor=none;top=0;left=0;bottom=0;right=0;align=left;spacingLeft=2;overflow=hidden;fontSize=11;" parent="II89ZpB64ln66D03jxN8-69" vertex="1">
          <mxGeometry x="30" width="78" height="22" as="geometry">
            <mxRectangle width="78" height="22" as="alternateBounds" />
          </mxGeometry>
        </mxCell>
        <mxCell id="II89ZpB64ln66D03jxN8-72" style="shape=tableRow;horizontal=0;startSize=0;swimlaneHead=0;swimlaneBody=0;fillColor=none;collapsible=0;dropTarget=0;points=[[0,0.5],[1,0.5]];portConstraint=eastwest;top=0;left=0;right=0;bottom=0;" parent="II89ZpB64ln66D03jxN8-56" vertex="1">
          <mxGeometry y="135" width="108" height="22" as="geometry" />
        </mxCell>
        <mxCell id="II89ZpB64ln66D03jxN8-73" value="FK" style="shape=partialRectangle;connectable=0;fillColor=none;top=0;left=0;bottom=0;right=0;align=left;spacingLeft=2;overflow=hidden;fontSize=11;fontStyle=1" parent="II89ZpB64ln66D03jxN8-72" vertex="1">
          <mxGeometry width="30" height="22" as="geometry">
            <mxRectangle width="30" height="22" as="alternateBounds" />
          </mxGeometry>
        </mxCell>
        <mxCell id="II89ZpB64ln66D03jxN8-74" value="DiscountID" style="shape=partialRectangle;connectable=0;fillColor=none;top=0;left=0;bottom=0;right=0;align=left;spacingLeft=2;overflow=hidden;fontSize=11;" parent="II89ZpB64ln66D03jxN8-72" vertex="1">
          <mxGeometry x="30" width="78" height="22" as="geometry">
            <mxRectangle width="78" height="22" as="alternateBounds" />
          </mxGeometry>
        </mxCell>
        <mxCell id="II89ZpB64ln66D03jxN8-75" value="Notification" style="shape=table;startSize=25;container=1;collapsible=0;childLayout=tableLayout;fixedRows=1;rowLines=1;fontStyle=1;align=center;resizeLast=1;fillColor=#dae8fc;strokeColor=#6c8ebf;" parent="1" vertex="1">
          <mxGeometry x="1112" y="847" width="162" height="179" as="geometry" />
        </mxCell>
        <mxCell id="II89ZpB64ln66D03jxN8-76" style="shape=tableRow;horizontal=0;startSize=0;swimlaneHead=0;swimlaneBody=0;fillColor=none;collapsible=0;dropTarget=0;points=[[0,0.5],[1,0.5]];portConstraint=eastwest;top=0;left=0;right=0;bottom=0;" parent="II89ZpB64ln66D03jxN8-75" vertex="1">
          <mxGeometry y="25" width="162" height="22" as="geometry" />
        </mxCell>
        <mxCell id="II89ZpB64ln66D03jxN8-77" value="PK" style="shape=partialRectangle;connectable=0;fillColor=none;top=0;left=0;bottom=0;right=0;align=left;spacingLeft=2;overflow=hidden;fontSize=11;fontStyle=1" parent="II89ZpB64ln66D03jxN8-76" vertex="1">
          <mxGeometry width="48" height="22" as="geometry">
            <mxRectangle width="48" height="22" as="alternateBounds" />
          </mxGeometry>
        </mxCell>
        <mxCell id="II89ZpB64ln66D03jxN8-78" value="NotificationID" style="shape=partialRectangle;connectable=0;fillColor=#f5f5f5;top=0;left=0;bottom=0;right=0;align=left;spacingLeft=2;overflow=hidden;fontSize=11;fontStyle=5;fontColor=#333333;strokeColor=#666666;" parent="II89ZpB64ln66D03jxN8-76" vertex="1">
          <mxGeometry x="48" width="114" height="22" as="geometry">
            <mxRectangle width="114" height="22" as="alternateBounds" />
          </mxGeometry>
        </mxCell>
        <mxCell id="II89ZpB64ln66D03jxN8-79" style="shape=tableRow;horizontal=0;startSize=0;swimlaneHead=0;swimlaneBody=0;fillColor=none;collapsible=0;dropTarget=0;points=[[0,0.5],[1,0.5]];portConstraint=eastwest;top=0;left=0;right=0;bottom=0;" parent="II89ZpB64ln66D03jxN8-75" vertex="1">
          <mxGeometry y="47" width="162" height="22" as="geometry" />
        </mxCell>
        <mxCell id="II89ZpB64ln66D03jxN8-80" value="FK" style="shape=partialRectangle;connectable=0;fillColor=none;top=0;left=0;bottom=0;right=0;align=left;spacingLeft=2;overflow=hidden;fontSize=11;fontStyle=1" parent="II89ZpB64ln66D03jxN8-79" vertex="1">
          <mxGeometry width="48" height="22" as="geometry">
            <mxRectangle width="48" height="22" as="alternateBounds" />
          </mxGeometry>
        </mxCell>
        <mxCell id="II89ZpB64ln66D03jxN8-81" value="UserID" style="shape=partialRectangle;connectable=0;fillColor=#f5f5f5;top=0;left=0;bottom=0;right=0;align=left;spacingLeft=2;overflow=hidden;fontSize=11;fontColor=#333333;strokeColor=#666666;" parent="II89ZpB64ln66D03jxN8-79" vertex="1">
          <mxGeometry x="48" width="114" height="22" as="geometry">
            <mxRectangle width="114" height="22" as="alternateBounds" />
          </mxGeometry>
        </mxCell>
        <mxCell id="II89ZpB64ln66D03jxN8-82" style="shape=tableRow;horizontal=0;startSize=0;swimlaneHead=0;swimlaneBody=0;fillColor=none;collapsible=0;dropTarget=0;points=[[0,0.5],[1,0.5]];portConstraint=eastwest;top=0;left=0;right=0;bottom=0;" parent="II89ZpB64ln66D03jxN8-75" vertex="1">
          <mxGeometry y="69" width="162" height="22" as="geometry" />
        </mxCell>
        <mxCell id="II89ZpB64ln66D03jxN8-83" value="" style="shape=partialRectangle;connectable=0;fillColor=none;top=0;left=0;bottom=0;right=0;align=left;spacingLeft=2;overflow=hidden;fontSize=11;" parent="II89ZpB64ln66D03jxN8-82" vertex="1">
          <mxGeometry width="48" height="22" as="geometry">
            <mxRectangle width="48" height="22" as="alternateBounds" />
          </mxGeometry>
        </mxCell>
        <mxCell id="II89ZpB64ln66D03jxN8-84" value="NotificationType" style="shape=partialRectangle;connectable=0;fillColor=#f5f5f5;top=0;left=0;bottom=0;right=0;align=left;spacingLeft=2;overflow=hidden;fontSize=11;fontColor=#333333;strokeColor=#666666;" parent="II89ZpB64ln66D03jxN8-82" vertex="1">
          <mxGeometry x="48" width="114" height="22" as="geometry">
            <mxRectangle width="114" height="22" as="alternateBounds" />
          </mxGeometry>
        </mxCell>
        <mxCell id="II89ZpB64ln66D03jxN8-85" style="shape=tableRow;horizontal=0;startSize=0;swimlaneHead=0;swimlaneBody=0;fillColor=none;collapsible=0;dropTarget=0;points=[[0,0.5],[1,0.5]];portConstraint=eastwest;top=0;left=0;right=0;bottom=0;" parent="II89ZpB64ln66D03jxN8-75" vertex="1">
          <mxGeometry y="91" width="162" height="22" as="geometry" />
        </mxCell>
        <mxCell id="II89ZpB64ln66D03jxN8-86" value="" style="shape=partialRectangle;connectable=0;fillColor=none;top=0;left=0;bottom=0;right=0;align=left;spacingLeft=2;overflow=hidden;fontSize=11;" parent="II89ZpB64ln66D03jxN8-85" vertex="1">
          <mxGeometry width="48" height="22" as="geometry">
            <mxRectangle width="48" height="22" as="alternateBounds" />
          </mxGeometry>
        </mxCell>
        <mxCell id="II89ZpB64ln66D03jxN8-87" value="NotificationContent" style="shape=partialRectangle;connectable=0;fillColor=#f5f5f5;top=0;left=0;bottom=0;right=0;align=left;spacingLeft=2;overflow=hidden;fontSize=11;fontColor=#333333;strokeColor=#666666;" parent="II89ZpB64ln66D03jxN8-85" vertex="1">
          <mxGeometry x="48" width="114" height="22" as="geometry">
            <mxRectangle width="114" height="22" as="alternateBounds" />
          </mxGeometry>
        </mxCell>
        <mxCell id="II89ZpB64ln66D03jxN8-88" style="shape=tableRow;horizontal=0;startSize=0;swimlaneHead=0;swimlaneBody=0;fillColor=none;collapsible=0;dropTarget=0;points=[[0,0.5],[1,0.5]];portConstraint=eastwest;top=0;left=0;right=0;bottom=0;" parent="II89ZpB64ln66D03jxN8-75" vertex="1">
          <mxGeometry y="113" width="162" height="22" as="geometry" />
        </mxCell>
        <mxCell id="II89ZpB64ln66D03jxN8-89" value="" style="shape=partialRectangle;connectable=0;fillColor=none;top=0;left=0;bottom=0;right=0;align=left;spacingLeft=2;overflow=hidden;fontSize=11;" parent="II89ZpB64ln66D03jxN8-88" vertex="1">
          <mxGeometry width="48" height="22" as="geometry">
            <mxRectangle width="48" height="22" as="alternateBounds" />
          </mxGeometry>
        </mxCell>
        <mxCell id="II89ZpB64ln66D03jxN8-90" value="NotificationDate" style="shape=partialRectangle;connectable=0;fillColor=#f5f5f5;top=0;left=0;bottom=0;right=0;align=left;spacingLeft=2;overflow=hidden;fontSize=11;fontColor=#333333;strokeColor=#666666;" parent="II89ZpB64ln66D03jxN8-88" vertex="1">
          <mxGeometry x="48" width="114" height="22" as="geometry">
            <mxRectangle width="114" height="22" as="alternateBounds" />
          </mxGeometry>
        </mxCell>
        <mxCell id="II89ZpB64ln66D03jxN8-91" style="shape=tableRow;horizontal=0;startSize=0;swimlaneHead=0;swimlaneBody=0;fillColor=none;collapsible=0;dropTarget=0;points=[[0,0.5],[1,0.5]];portConstraint=eastwest;top=0;left=0;right=0;bottom=0;" parent="II89ZpB64ln66D03jxN8-75" vertex="1">
          <mxGeometry y="135" width="162" height="22" as="geometry" />
        </mxCell>
        <mxCell id="II89ZpB64ln66D03jxN8-92" value="" style="shape=partialRectangle;connectable=0;fillColor=none;top=0;left=0;bottom=0;right=0;align=left;spacingLeft=2;overflow=hidden;fontSize=11;" parent="II89ZpB64ln66D03jxN8-91" vertex="1">
          <mxGeometry width="48" height="22" as="geometry">
            <mxRectangle width="48" height="22" as="alternateBounds" />
          </mxGeometry>
        </mxCell>
        <mxCell id="II89ZpB64ln66D03jxN8-93" value="IsRead" style="shape=partialRectangle;connectable=0;fillColor=#f5f5f5;top=0;left=0;bottom=0;right=0;align=left;spacingLeft=2;overflow=hidden;fontSize=11;fontColor=#333333;strokeColor=#666666;" parent="II89ZpB64ln66D03jxN8-91" vertex="1">
          <mxGeometry x="48" width="114" height="22" as="geometry">
            <mxRectangle width="114" height="22" as="alternateBounds" />
          </mxGeometry>
        </mxCell>
        <mxCell id="II89ZpB64ln66D03jxN8-94" style="shape=tableRow;horizontal=0;startSize=0;swimlaneHead=0;swimlaneBody=0;fillColor=none;collapsible=0;dropTarget=0;points=[[0,0.5],[1,0.5]];portConstraint=eastwest;top=0;left=0;right=0;bottom=0;" parent="II89ZpB64ln66D03jxN8-75" vertex="1">
          <mxGeometry y="157" width="162" height="22" as="geometry" />
        </mxCell>
        <mxCell id="II89ZpB64ln66D03jxN8-95" value="FK" style="shape=partialRectangle;connectable=0;fillColor=none;top=0;left=0;bottom=0;right=0;align=left;spacingLeft=2;overflow=hidden;fontSize=11;fontStyle=1" parent="II89ZpB64ln66D03jxN8-94" vertex="1">
          <mxGeometry width="48" height="22" as="geometry">
            <mxRectangle width="48" height="22" as="alternateBounds" />
          </mxGeometry>
        </mxCell>
        <mxCell id="II89ZpB64ln66D03jxN8-96" value="OrderID" style="shape=partialRectangle;connectable=0;fillColor=#f5f5f5;top=0;left=0;bottom=0;right=0;align=left;spacingLeft=2;overflow=hidden;fontSize=11;fontColor=#333333;strokeColor=#666666;" parent="II89ZpB64ln66D03jxN8-94" vertex="1">
          <mxGeometry x="48" width="114" height="22" as="geometry">
            <mxRectangle width="114" height="22" as="alternateBounds" />
          </mxGeometry>
        </mxCell>
        <mxCell id="II89ZpB64ln66D03jxN8-97" value="Discount" style="shape=table;startSize=25;container=1;collapsible=0;childLayout=tableLayout;fixedRows=1;rowLines=1;fontStyle=1;align=center;resizeLast=1;fillColor=#dae8fc;strokeColor=#6c8ebf;" parent="1" vertex="1">
          <mxGeometry x="1957" y="847" width="156" height="157" as="geometry" />
        </mxCell>
        <mxCell id="II89ZpB64ln66D03jxN8-98" style="shape=tableRow;horizontal=0;startSize=0;swimlaneHead=0;swimlaneBody=0;fillColor=none;collapsible=0;dropTarget=0;points=[[0,0.5],[1,0.5]];portConstraint=eastwest;top=0;left=0;right=0;bottom=0;" parent="II89ZpB64ln66D03jxN8-97" vertex="1">
          <mxGeometry y="25" width="156" height="22" as="geometry" />
        </mxCell>
        <mxCell id="II89ZpB64ln66D03jxN8-99" value="PK" style="shape=partialRectangle;connectable=0;fillColor=none;top=0;left=0;bottom=0;right=0;align=left;spacingLeft=2;overflow=hidden;fontSize=11;fontStyle=1" parent="II89ZpB64ln66D03jxN8-98" vertex="1">
          <mxGeometry width="48" height="22" as="geometry">
            <mxRectangle width="48" height="22" as="alternateBounds" />
          </mxGeometry>
        </mxCell>
        <mxCell id="II89ZpB64ln66D03jxN8-100" value="DiscountID" style="shape=partialRectangle;connectable=0;fillColor=#f5f5f5;top=0;left=0;bottom=0;right=0;align=left;spacingLeft=2;overflow=hidden;fontSize=11;fontColor=#333333;strokeColor=#666666;" parent="II89ZpB64ln66D03jxN8-98" vertex="1">
          <mxGeometry x="48" width="108" height="22" as="geometry">
            <mxRectangle width="108" height="22" as="alternateBounds" />
          </mxGeometry>
        </mxCell>
        <mxCell id="II89ZpB64ln66D03jxN8-101" style="shape=tableRow;horizontal=0;startSize=0;swimlaneHead=0;swimlaneBody=0;fillColor=none;collapsible=0;dropTarget=0;points=[[0,0.5],[1,0.5]];portConstraint=eastwest;top=0;left=0;right=0;bottom=0;" parent="II89ZpB64ln66D03jxN8-97" vertex="1">
          <mxGeometry y="47" width="156" height="22" as="geometry" />
        </mxCell>
        <mxCell id="II89ZpB64ln66D03jxN8-102" value="" style="shape=partialRectangle;connectable=0;fillColor=none;top=0;left=0;bottom=0;right=0;align=left;spacingLeft=2;overflow=hidden;fontSize=11;" parent="II89ZpB64ln66D03jxN8-101" vertex="1">
          <mxGeometry width="48" height="22" as="geometry">
            <mxRectangle width="48" height="22" as="alternateBounds" />
          </mxGeometry>
        </mxCell>
        <mxCell id="II89ZpB64ln66D03jxN8-103" value="DiscountName" style="shape=partialRectangle;connectable=0;fillColor=#f5f5f5;top=0;left=0;bottom=0;right=0;align=left;spacingLeft=2;overflow=hidden;fontSize=11;fontColor=#333333;strokeColor=#666666;" parent="II89ZpB64ln66D03jxN8-101" vertex="1">
          <mxGeometry x="48" width="108" height="22" as="geometry">
            <mxRectangle width="108" height="22" as="alternateBounds" />
          </mxGeometry>
        </mxCell>
        <mxCell id="II89ZpB64ln66D03jxN8-104" style="shape=tableRow;horizontal=0;startSize=0;swimlaneHead=0;swimlaneBody=0;fillColor=none;collapsible=0;dropTarget=0;points=[[0,0.5],[1,0.5]];portConstraint=eastwest;top=0;left=0;right=0;bottom=0;" parent="II89ZpB64ln66D03jxN8-97" vertex="1">
          <mxGeometry y="69" width="156" height="22" as="geometry" />
        </mxCell>
        <mxCell id="II89ZpB64ln66D03jxN8-105" value="" style="shape=partialRectangle;connectable=0;fillColor=none;top=0;left=0;bottom=0;right=0;align=left;spacingLeft=2;overflow=hidden;fontSize=11;" parent="II89ZpB64ln66D03jxN8-104" vertex="1">
          <mxGeometry width="48" height="22" as="geometry">
            <mxRectangle width="48" height="22" as="alternateBounds" />
          </mxGeometry>
        </mxCell>
        <mxCell id="II89ZpB64ln66D03jxN8-106" value="Description" style="shape=partialRectangle;connectable=0;fillColor=#f5f5f5;top=0;left=0;bottom=0;right=0;align=left;spacingLeft=2;overflow=hidden;fontSize=11;fontColor=#333333;strokeColor=#666666;" parent="II89ZpB64ln66D03jxN8-104" vertex="1">
          <mxGeometry x="48" width="108" height="22" as="geometry">
            <mxRectangle width="108" height="22" as="alternateBounds" />
          </mxGeometry>
        </mxCell>
        <mxCell id="II89ZpB64ln66D03jxN8-107" style="shape=tableRow;horizontal=0;startSize=0;swimlaneHead=0;swimlaneBody=0;fillColor=none;collapsible=0;dropTarget=0;points=[[0,0.5],[1,0.5]];portConstraint=eastwest;top=0;left=0;right=0;bottom=0;" parent="II89ZpB64ln66D03jxN8-97" vertex="1">
          <mxGeometry y="91" width="156" height="22" as="geometry" />
        </mxCell>
        <mxCell id="II89ZpB64ln66D03jxN8-108" value="" style="shape=partialRectangle;connectable=0;fillColor=none;top=0;left=0;bottom=0;right=0;align=left;spacingLeft=2;overflow=hidden;fontSize=11;" parent="II89ZpB64ln66D03jxN8-107" vertex="1">
          <mxGeometry width="48" height="22" as="geometry">
            <mxRectangle width="48" height="22" as="alternateBounds" />
          </mxGeometry>
        </mxCell>
        <mxCell id="II89ZpB64ln66D03jxN8-109" value="DiscountPercentage" style="shape=partialRectangle;connectable=0;fillColor=#f5f5f5;top=0;left=0;bottom=0;right=0;align=left;spacingLeft=2;overflow=hidden;fontSize=11;fontColor=#333333;strokeColor=#666666;" parent="II89ZpB64ln66D03jxN8-107" vertex="1">
          <mxGeometry x="48" width="108" height="22" as="geometry">
            <mxRectangle width="108" height="22" as="alternateBounds" />
          </mxGeometry>
        </mxCell>
        <mxCell id="II89ZpB64ln66D03jxN8-110" style="shape=tableRow;horizontal=0;startSize=0;swimlaneHead=0;swimlaneBody=0;fillColor=none;collapsible=0;dropTarget=0;points=[[0,0.5],[1,0.5]];portConstraint=eastwest;top=0;left=0;right=0;bottom=0;" parent="II89ZpB64ln66D03jxN8-97" vertex="1">
          <mxGeometry y="113" width="156" height="22" as="geometry" />
        </mxCell>
        <mxCell id="II89ZpB64ln66D03jxN8-111" value="" style="shape=partialRectangle;connectable=0;fillColor=none;top=0;left=0;bottom=0;right=0;align=left;spacingLeft=2;overflow=hidden;fontSize=11;" parent="II89ZpB64ln66D03jxN8-110" vertex="1">
          <mxGeometry width="48" height="22" as="geometry">
            <mxRectangle width="48" height="22" as="alternateBounds" />
          </mxGeometry>
        </mxCell>
        <mxCell id="II89ZpB64ln66D03jxN8-112" value="StartDate" style="shape=partialRectangle;connectable=0;fillColor=#f5f5f5;top=0;left=0;bottom=0;right=0;align=left;spacingLeft=2;overflow=hidden;fontSize=11;fontColor=#333333;strokeColor=#666666;" parent="II89ZpB64ln66D03jxN8-110" vertex="1">
          <mxGeometry x="48" width="108" height="22" as="geometry">
            <mxRectangle width="108" height="22" as="alternateBounds" />
          </mxGeometry>
        </mxCell>
        <mxCell id="II89ZpB64ln66D03jxN8-113" style="shape=tableRow;horizontal=0;startSize=0;swimlaneHead=0;swimlaneBody=0;fillColor=none;collapsible=0;dropTarget=0;points=[[0,0.5],[1,0.5]];portConstraint=eastwest;top=0;left=0;right=0;bottom=0;" parent="II89ZpB64ln66D03jxN8-97" vertex="1">
          <mxGeometry y="135" width="156" height="22" as="geometry" />
        </mxCell>
        <mxCell id="II89ZpB64ln66D03jxN8-114" value="" style="shape=partialRectangle;connectable=0;fillColor=none;top=0;left=0;bottom=0;right=0;align=left;spacingLeft=2;overflow=hidden;fontSize=11;" parent="II89ZpB64ln66D03jxN8-113" vertex="1">
          <mxGeometry width="48" height="22" as="geometry">
            <mxRectangle width="48" height="22" as="alternateBounds" />
          </mxGeometry>
        </mxCell>
        <mxCell id="II89ZpB64ln66D03jxN8-115" value="EndDate" style="shape=partialRectangle;connectable=0;fillColor=#f5f5f5;top=0;left=0;bottom=0;right=0;align=left;spacingLeft=2;overflow=hidden;fontSize=11;fontColor=#333333;strokeColor=#666666;" parent="II89ZpB64ln66D03jxN8-113" vertex="1">
          <mxGeometry x="48" width="108" height="22" as="geometry">
            <mxRectangle width="108" height="22" as="alternateBounds" />
          </mxGeometry>
        </mxCell>
        <mxCell id="II89ZpB64ln66D03jxN8-116" value="Payment" style="shape=table;startSize=25;container=1;collapsible=0;childLayout=tableLayout;fixedRows=1;rowLines=1;fontStyle=1;align=center;resizeLast=1;fillColor=#dae8fc;strokeColor=#6c8ebf;" parent="1" vertex="1">
          <mxGeometry x="2049" y="1780" width="151" height="157" as="geometry" />
        </mxCell>
        <mxCell id="II89ZpB64ln66D03jxN8-117" style="shape=tableRow;horizontal=0;startSize=0;swimlaneHead=0;swimlaneBody=0;fillColor=none;collapsible=0;dropTarget=0;points=[[0,0.5],[1,0.5]];portConstraint=eastwest;top=0;left=0;right=0;bottom=0;" parent="II89ZpB64ln66D03jxN8-116" vertex="1">
          <mxGeometry y="25" width="151" height="22" as="geometry" />
        </mxCell>
        <mxCell id="II89ZpB64ln66D03jxN8-118" value="PK" style="shape=partialRectangle;connectable=0;fillColor=none;top=0;left=0;bottom=0;right=0;align=left;spacingLeft=2;overflow=hidden;fontSize=11;fontStyle=1" parent="II89ZpB64ln66D03jxN8-117" vertex="1">
          <mxGeometry width="48" height="22" as="geometry">
            <mxRectangle width="48" height="22" as="alternateBounds" />
          </mxGeometry>
        </mxCell>
        <mxCell id="II89ZpB64ln66D03jxN8-119" value="PaymentID" style="shape=partialRectangle;connectable=0;fillColor=#f5f5f5;top=0;left=0;bottom=0;right=0;align=left;spacingLeft=2;overflow=hidden;fontSize=11;fontStyle=5;fontColor=#333333;strokeColor=#666666;" parent="II89ZpB64ln66D03jxN8-117" vertex="1">
          <mxGeometry x="48" width="103" height="22" as="geometry">
            <mxRectangle width="103" height="22" as="alternateBounds" />
          </mxGeometry>
        </mxCell>
        <mxCell id="II89ZpB64ln66D03jxN8-120" style="shape=tableRow;horizontal=0;startSize=0;swimlaneHead=0;swimlaneBody=0;fillColor=none;collapsible=0;dropTarget=0;points=[[0,0.5],[1,0.5]];portConstraint=eastwest;top=0;left=0;right=0;bottom=0;" parent="II89ZpB64ln66D03jxN8-116" vertex="1">
          <mxGeometry y="47" width="151" height="22" as="geometry" />
        </mxCell>
        <mxCell id="II89ZpB64ln66D03jxN8-121" value="FK" style="shape=partialRectangle;connectable=0;fillColor=none;top=0;left=0;bottom=0;right=0;align=left;spacingLeft=2;overflow=hidden;fontSize=11;fontStyle=1" parent="II89ZpB64ln66D03jxN8-120" vertex="1">
          <mxGeometry width="48" height="22" as="geometry">
            <mxRectangle width="48" height="22" as="alternateBounds" />
          </mxGeometry>
        </mxCell>
        <mxCell id="II89ZpB64ln66D03jxN8-122" value="PaymentMethodID" style="shape=partialRectangle;connectable=0;fillColor=#f5f5f5;top=0;left=0;bottom=0;right=0;align=left;spacingLeft=2;overflow=hidden;fontSize=11;fontColor=#333333;strokeColor=#666666;" parent="II89ZpB64ln66D03jxN8-120" vertex="1">
          <mxGeometry x="48" width="103" height="22" as="geometry">
            <mxRectangle width="103" height="22" as="alternateBounds" />
          </mxGeometry>
        </mxCell>
        <mxCell id="II89ZpB64ln66D03jxN8-123" style="shape=tableRow;horizontal=0;startSize=0;swimlaneHead=0;swimlaneBody=0;fillColor=none;collapsible=0;dropTarget=0;points=[[0,0.5],[1,0.5]];portConstraint=eastwest;top=0;left=0;right=0;bottom=0;" parent="II89ZpB64ln66D03jxN8-116" vertex="1">
          <mxGeometry y="69" width="151" height="22" as="geometry" />
        </mxCell>
        <mxCell id="II89ZpB64ln66D03jxN8-124" value="FK" style="shape=partialRectangle;connectable=0;fillColor=none;top=0;left=0;bottom=0;right=0;align=left;spacingLeft=2;overflow=hidden;fontSize=11;fontStyle=1" parent="II89ZpB64ln66D03jxN8-123" vertex="1">
          <mxGeometry width="48" height="22" as="geometry">
            <mxRectangle width="48" height="22" as="alternateBounds" />
          </mxGeometry>
        </mxCell>
        <mxCell id="II89ZpB64ln66D03jxN8-125" value="OrderID" style="shape=partialRectangle;connectable=0;fillColor=#f5f5f5;top=0;left=0;bottom=0;right=0;align=left;spacingLeft=2;overflow=hidden;fontSize=11;fontColor=#333333;strokeColor=#666666;" parent="II89ZpB64ln66D03jxN8-123" vertex="1">
          <mxGeometry x="48" width="103" height="22" as="geometry">
            <mxRectangle width="103" height="22" as="alternateBounds" />
          </mxGeometry>
        </mxCell>
        <mxCell id="II89ZpB64ln66D03jxN8-126" style="shape=tableRow;horizontal=0;startSize=0;swimlaneHead=0;swimlaneBody=0;fillColor=none;collapsible=0;dropTarget=0;points=[[0,0.5],[1,0.5]];portConstraint=eastwest;top=0;left=0;right=0;bottom=0;" parent="II89ZpB64ln66D03jxN8-116" vertex="1">
          <mxGeometry y="91" width="151" height="22" as="geometry" />
        </mxCell>
        <mxCell id="II89ZpB64ln66D03jxN8-127" value="" style="shape=partialRectangle;connectable=0;fillColor=none;top=0;left=0;bottom=0;right=0;align=left;spacingLeft=2;overflow=hidden;fontSize=11;" parent="II89ZpB64ln66D03jxN8-126" vertex="1">
          <mxGeometry width="48" height="22" as="geometry">
            <mxRectangle width="48" height="22" as="alternateBounds" />
          </mxGeometry>
        </mxCell>
        <mxCell id="II89ZpB64ln66D03jxN8-128" value="PaymentStatus" style="shape=partialRectangle;connectable=0;fillColor=#f5f5f5;top=0;left=0;bottom=0;right=0;align=left;spacingLeft=2;overflow=hidden;fontSize=11;fontColor=#333333;strokeColor=#666666;" parent="II89ZpB64ln66D03jxN8-126" vertex="1">
          <mxGeometry x="48" width="103" height="22" as="geometry">
            <mxRectangle width="103" height="22" as="alternateBounds" />
          </mxGeometry>
        </mxCell>
        <mxCell id="II89ZpB64ln66D03jxN8-129" style="shape=tableRow;horizontal=0;startSize=0;swimlaneHead=0;swimlaneBody=0;fillColor=none;collapsible=0;dropTarget=0;points=[[0,0.5],[1,0.5]];portConstraint=eastwest;top=0;left=0;right=0;bottom=0;" parent="II89ZpB64ln66D03jxN8-116" vertex="1">
          <mxGeometry y="113" width="151" height="22" as="geometry" />
        </mxCell>
        <mxCell id="II89ZpB64ln66D03jxN8-130" value="" style="shape=partialRectangle;connectable=0;fillColor=none;top=0;left=0;bottom=0;right=0;align=left;spacingLeft=2;overflow=hidden;fontSize=11;" parent="II89ZpB64ln66D03jxN8-129" vertex="1">
          <mxGeometry width="48" height="22" as="geometry">
            <mxRectangle width="48" height="22" as="alternateBounds" />
          </mxGeometry>
        </mxCell>
        <mxCell id="II89ZpB64ln66D03jxN8-131" value="PaymentDate" style="shape=partialRectangle;connectable=0;fillColor=#f5f5f5;top=0;left=0;bottom=0;right=0;align=left;spacingLeft=2;overflow=hidden;fontSize=11;fontColor=#333333;strokeColor=#666666;" parent="II89ZpB64ln66D03jxN8-129" vertex="1">
          <mxGeometry x="48" width="103" height="22" as="geometry">
            <mxRectangle width="103" height="22" as="alternateBounds" />
          </mxGeometry>
        </mxCell>
        <mxCell id="II89ZpB64ln66D03jxN8-132" style="shape=tableRow;horizontal=0;startSize=0;swimlaneHead=0;swimlaneBody=0;fillColor=none;collapsible=0;dropTarget=0;points=[[0,0.5],[1,0.5]];portConstraint=eastwest;top=0;left=0;right=0;bottom=0;" parent="II89ZpB64ln66D03jxN8-116" vertex="1">
          <mxGeometry y="135" width="151" height="22" as="geometry" />
        </mxCell>
        <mxCell id="II89ZpB64ln66D03jxN8-133" value="" style="shape=partialRectangle;connectable=0;fillColor=none;top=0;left=0;bottom=0;right=0;align=left;spacingLeft=2;overflow=hidden;fontSize=11;" parent="II89ZpB64ln66D03jxN8-132" vertex="1">
          <mxGeometry width="48" height="22" as="geometry">
            <mxRectangle width="48" height="22" as="alternateBounds" />
          </mxGeometry>
        </mxCell>
        <mxCell id="II89ZpB64ln66D03jxN8-134" value="Amount" style="shape=partialRectangle;connectable=0;fillColor=#f5f5f5;top=0;left=0;bottom=0;right=0;align=left;spacingLeft=2;overflow=hidden;fontSize=11;fontColor=#333333;strokeColor=#666666;" parent="II89ZpB64ln66D03jxN8-132" vertex="1">
          <mxGeometry x="48" width="103" height="22" as="geometry">
            <mxRectangle width="103" height="22" as="alternateBounds" />
          </mxGeometry>
        </mxCell>
        <mxCell id="II89ZpB64ln66D03jxN8-135" value="Feedback" style="shape=table;startSize=25;container=1;collapsible=0;childLayout=tableLayout;fixedRows=1;rowLines=1;fontStyle=1;align=center;resizeLast=1;fillColor=#dae8fc;strokeColor=#6c8ebf;" parent="1" vertex="1">
          <mxGeometry x="610" y="1592" width="162" height="157" as="geometry" />
        </mxCell>
        <mxCell id="II89ZpB64ln66D03jxN8-136" style="shape=tableRow;horizontal=0;startSize=0;swimlaneHead=0;swimlaneBody=0;fillColor=none;collapsible=0;dropTarget=0;points=[[0,0.5],[1,0.5]];portConstraint=eastwest;top=0;left=0;right=0;bottom=0;" parent="II89ZpB64ln66D03jxN8-135" vertex="1">
          <mxGeometry y="25" width="162" height="22" as="geometry" />
        </mxCell>
        <mxCell id="II89ZpB64ln66D03jxN8-137" value="PK" style="shape=partialRectangle;connectable=0;fillColor=none;top=0;left=0;bottom=0;right=0;align=left;spacingLeft=2;overflow=hidden;fontSize=11;fontStyle=1" parent="II89ZpB64ln66D03jxN8-136" vertex="1">
          <mxGeometry width="48" height="22" as="geometry">
            <mxRectangle width="48" height="22" as="alternateBounds" />
          </mxGeometry>
        </mxCell>
        <mxCell id="II89ZpB64ln66D03jxN8-138" value="FeedbackID" style="shape=partialRectangle;connectable=0;fillColor=#f5f5f5;top=0;left=0;bottom=0;right=0;align=left;spacingLeft=2;overflow=hidden;fontSize=11;fontStyle=5;fontColor=#333333;strokeColor=#666666;" parent="II89ZpB64ln66D03jxN8-136" vertex="1">
          <mxGeometry x="48" width="114" height="22" as="geometry">
            <mxRectangle width="114" height="22" as="alternateBounds" />
          </mxGeometry>
        </mxCell>
        <mxCell id="II89ZpB64ln66D03jxN8-139" style="shape=tableRow;horizontal=0;startSize=0;swimlaneHead=0;swimlaneBody=0;fillColor=none;collapsible=0;dropTarget=0;points=[[0,0.5],[1,0.5]];portConstraint=eastwest;top=0;left=0;right=0;bottom=0;" parent="II89ZpB64ln66D03jxN8-135" vertex="1">
          <mxGeometry y="47" width="162" height="22" as="geometry" />
        </mxCell>
        <mxCell id="II89ZpB64ln66D03jxN8-140" value="FK" style="shape=partialRectangle;connectable=0;fillColor=none;top=0;left=0;bottom=0;right=0;align=left;spacingLeft=2;overflow=hidden;fontSize=11;fontStyle=1" parent="II89ZpB64ln66D03jxN8-139" vertex="1">
          <mxGeometry width="48" height="22" as="geometry">
            <mxRectangle width="48" height="22" as="alternateBounds" />
          </mxGeometry>
        </mxCell>
        <mxCell id="II89ZpB64ln66D03jxN8-141" value="UserID" style="shape=partialRectangle;connectable=0;fillColor=#f5f5f5;top=0;left=0;bottom=0;right=0;align=left;spacingLeft=2;overflow=hidden;fontSize=11;fontColor=#333333;strokeColor=#666666;" parent="II89ZpB64ln66D03jxN8-139" vertex="1">
          <mxGeometry x="48" width="114" height="22" as="geometry">
            <mxRectangle width="114" height="22" as="alternateBounds" />
          </mxGeometry>
        </mxCell>
        <mxCell id="II89ZpB64ln66D03jxN8-142" style="shape=tableRow;horizontal=0;startSize=0;swimlaneHead=0;swimlaneBody=0;fillColor=none;collapsible=0;dropTarget=0;points=[[0,0.5],[1,0.5]];portConstraint=eastwest;top=0;left=0;right=0;bottom=0;" parent="II89ZpB64ln66D03jxN8-135" vertex="1">
          <mxGeometry y="69" width="162" height="22" as="geometry" />
        </mxCell>
        <mxCell id="II89ZpB64ln66D03jxN8-143" value="" style="shape=partialRectangle;connectable=0;fillColor=none;top=0;left=0;bottom=0;right=0;align=left;spacingLeft=2;overflow=hidden;fontSize=11;" parent="II89ZpB64ln66D03jxN8-142" vertex="1">
          <mxGeometry width="48" height="22" as="geometry">
            <mxRectangle width="48" height="22" as="alternateBounds" />
          </mxGeometry>
        </mxCell>
        <mxCell id="II89ZpB64ln66D03jxN8-144" value="FeedbackType" style="shape=partialRectangle;connectable=0;fillColor=#f5f5f5;top=0;left=0;bottom=0;right=0;align=left;spacingLeft=2;overflow=hidden;fontSize=11;fontColor=#333333;strokeColor=#666666;" parent="II89ZpB64ln66D03jxN8-142" vertex="1">
          <mxGeometry x="48" width="114" height="22" as="geometry">
            <mxRectangle width="114" height="22" as="alternateBounds" />
          </mxGeometry>
        </mxCell>
        <mxCell id="II89ZpB64ln66D03jxN8-145" style="shape=tableRow;horizontal=0;startSize=0;swimlaneHead=0;swimlaneBody=0;fillColor=none;collapsible=0;dropTarget=0;points=[[0,0.5],[1,0.5]];portConstraint=eastwest;top=0;left=0;right=0;bottom=0;" parent="II89ZpB64ln66D03jxN8-135" vertex="1">
          <mxGeometry y="91" width="162" height="22" as="geometry" />
        </mxCell>
        <mxCell id="II89ZpB64ln66D03jxN8-146" value="" style="shape=partialRectangle;connectable=0;fillColor=none;top=0;left=0;bottom=0;right=0;align=left;spacingLeft=2;overflow=hidden;fontSize=11;" parent="II89ZpB64ln66D03jxN8-145" vertex="1">
          <mxGeometry width="48" height="22" as="geometry">
            <mxRectangle width="48" height="22" as="alternateBounds" />
          </mxGeometry>
        </mxCell>
        <mxCell id="II89ZpB64ln66D03jxN8-147" value="FeedbackDescription" style="shape=partialRectangle;connectable=0;fillColor=#f5f5f5;top=0;left=0;bottom=0;right=0;align=left;spacingLeft=2;overflow=hidden;fontSize=11;fontColor=#333333;strokeColor=#666666;" parent="II89ZpB64ln66D03jxN8-145" vertex="1">
          <mxGeometry x="48" width="114" height="22" as="geometry">
            <mxRectangle width="114" height="22" as="alternateBounds" />
          </mxGeometry>
        </mxCell>
        <mxCell id="II89ZpB64ln66D03jxN8-148" style="shape=tableRow;horizontal=0;startSize=0;swimlaneHead=0;swimlaneBody=0;fillColor=none;collapsible=0;dropTarget=0;points=[[0,0.5],[1,0.5]];portConstraint=eastwest;top=0;left=0;right=0;bottom=0;" parent="II89ZpB64ln66D03jxN8-135" vertex="1">
          <mxGeometry y="113" width="162" height="22" as="geometry" />
        </mxCell>
        <mxCell id="II89ZpB64ln66D03jxN8-149" value="" style="shape=partialRectangle;connectable=0;fillColor=none;top=0;left=0;bottom=0;right=0;align=left;spacingLeft=2;overflow=hidden;fontSize=11;" parent="II89ZpB64ln66D03jxN8-148" vertex="1">
          <mxGeometry width="48" height="22" as="geometry">
            <mxRectangle width="48" height="22" as="alternateBounds" />
          </mxGeometry>
        </mxCell>
        <mxCell id="II89ZpB64ln66D03jxN8-150" value="FeedbackDate" style="shape=partialRectangle;connectable=0;fillColor=#f5f5f5;top=0;left=0;bottom=0;right=0;align=left;spacingLeft=2;overflow=hidden;fontSize=11;fontColor=#333333;strokeColor=#666666;" parent="II89ZpB64ln66D03jxN8-148" vertex="1">
          <mxGeometry x="48" width="114" height="22" as="geometry">
            <mxRectangle width="114" height="22" as="alternateBounds" />
          </mxGeometry>
        </mxCell>
        <mxCell id="II89ZpB64ln66D03jxN8-151" style="shape=tableRow;horizontal=0;startSize=0;swimlaneHead=0;swimlaneBody=0;fillColor=none;collapsible=0;dropTarget=0;points=[[0,0.5],[1,0.5]];portConstraint=eastwest;top=0;left=0;right=0;bottom=0;" parent="II89ZpB64ln66D03jxN8-135" vertex="1">
          <mxGeometry y="135" width="162" height="22" as="geometry" />
        </mxCell>
        <mxCell id="II89ZpB64ln66D03jxN8-152" value="" style="shape=partialRectangle;connectable=0;fillColor=none;top=0;left=0;bottom=0;right=0;align=left;spacingLeft=2;overflow=hidden;fontSize=11;" parent="II89ZpB64ln66D03jxN8-151" vertex="1">
          <mxGeometry width="48" height="22" as="geometry">
            <mxRectangle width="48" height="22" as="alternateBounds" />
          </mxGeometry>
        </mxCell>
        <mxCell id="II89ZpB64ln66D03jxN8-153" value="Response" style="shape=partialRectangle;connectable=0;fillColor=#f5f5f5;top=0;left=0;bottom=0;right=0;align=left;spacingLeft=2;overflow=hidden;fontSize=11;fontColor=#333333;strokeColor=#666666;" parent="II89ZpB64ln66D03jxN8-151" vertex="1">
          <mxGeometry x="48" width="114" height="22" as="geometry">
            <mxRectangle width="114" height="22" as="alternateBounds" />
          </mxGeometry>
        </mxCell>
        <mxCell id="II89ZpB64ln66D03jxN8-154" value="User" style="shape=table;startSize=25;container=1;collapsible=0;childLayout=tableLayout;fixedRows=1;rowLines=1;fontStyle=1;align=center;resizeLast=1;fillColor=#dae8fc;strokeColor=#6c8ebf;" parent="1" vertex="1">
          <mxGeometry x="1489" y="1330" width="120" height="201" as="geometry" />
        </mxCell>
        <mxCell id="II89ZpB64ln66D03jxN8-155" style="shape=tableRow;horizontal=0;startSize=0;swimlaneHead=0;swimlaneBody=0;fillColor=none;collapsible=0;dropTarget=0;points=[[0,0.5],[1,0.5]];portConstraint=eastwest;top=0;left=0;right=0;bottom=0;" parent="II89ZpB64ln66D03jxN8-154" vertex="1">
          <mxGeometry y="25" width="120" height="22" as="geometry" />
        </mxCell>
        <mxCell id="II89ZpB64ln66D03jxN8-156" value="PK" style="shape=partialRectangle;connectable=0;fillColor=none;top=0;left=0;bottom=0;right=0;align=left;spacingLeft=2;overflow=hidden;fontSize=11;fontStyle=1" parent="II89ZpB64ln66D03jxN8-155" vertex="1">
          <mxGeometry width="42" height="22" as="geometry">
            <mxRectangle width="42" height="22" as="alternateBounds" />
          </mxGeometry>
        </mxCell>
        <mxCell id="II89ZpB64ln66D03jxN8-157" value="UserID" style="shape=partialRectangle;connectable=0;fillColor=#f5f5f5;top=0;left=0;bottom=0;right=0;align=left;spacingLeft=2;overflow=hidden;fontSize=11;fontStyle=5;fontColor=#333333;strokeColor=#666666;" parent="II89ZpB64ln66D03jxN8-155" vertex="1">
          <mxGeometry x="42" width="78" height="22" as="geometry">
            <mxRectangle width="78" height="22" as="alternateBounds" />
          </mxGeometry>
        </mxCell>
        <mxCell id="II89ZpB64ln66D03jxN8-158" style="shape=tableRow;horizontal=0;startSize=0;swimlaneHead=0;swimlaneBody=0;fillColor=none;collapsible=0;dropTarget=0;points=[[0,0.5],[1,0.5]];portConstraint=eastwest;top=0;left=0;right=0;bottom=0;" parent="II89ZpB64ln66D03jxN8-154" vertex="1">
          <mxGeometry y="47" width="120" height="22" as="geometry" />
        </mxCell>
        <mxCell id="II89ZpB64ln66D03jxN8-159" value="" style="shape=partialRectangle;connectable=0;fillColor=none;top=0;left=0;bottom=0;right=0;align=left;spacingLeft=2;overflow=hidden;fontSize=11;" parent="II89ZpB64ln66D03jxN8-158" vertex="1">
          <mxGeometry width="42" height="22" as="geometry">
            <mxRectangle width="42" height="22" as="alternateBounds" />
          </mxGeometry>
        </mxCell>
        <mxCell id="II89ZpB64ln66D03jxN8-160" value="FirstName" style="shape=partialRectangle;connectable=0;fillColor=#f5f5f5;top=0;left=0;bottom=0;right=0;align=left;spacingLeft=2;overflow=hidden;fontSize=11;fontColor=#333333;strokeColor=#666666;" parent="II89ZpB64ln66D03jxN8-158" vertex="1">
          <mxGeometry x="42" width="78" height="22" as="geometry">
            <mxRectangle width="78" height="22" as="alternateBounds" />
          </mxGeometry>
        </mxCell>
        <mxCell id="II89ZpB64ln66D03jxN8-161" style="shape=tableRow;horizontal=0;startSize=0;swimlaneHead=0;swimlaneBody=0;fillColor=none;collapsible=0;dropTarget=0;points=[[0,0.5],[1,0.5]];portConstraint=eastwest;top=0;left=0;right=0;bottom=0;" parent="II89ZpB64ln66D03jxN8-154" vertex="1">
          <mxGeometry y="69" width="120" height="22" as="geometry" />
        </mxCell>
        <mxCell id="II89ZpB64ln66D03jxN8-162" value="" style="shape=partialRectangle;connectable=0;fillColor=none;top=0;left=0;bottom=0;right=0;align=left;spacingLeft=2;overflow=hidden;fontSize=11;" parent="II89ZpB64ln66D03jxN8-161" vertex="1">
          <mxGeometry width="42" height="22" as="geometry">
            <mxRectangle width="42" height="22" as="alternateBounds" />
          </mxGeometry>
        </mxCell>
        <mxCell id="II89ZpB64ln66D03jxN8-163" value="LastName" style="shape=partialRectangle;connectable=0;fillColor=#f5f5f5;top=0;left=0;bottom=0;right=0;align=left;spacingLeft=2;overflow=hidden;fontSize=11;fontColor=#333333;strokeColor=#666666;" parent="II89ZpB64ln66D03jxN8-161" vertex="1">
          <mxGeometry x="42" width="78" height="22" as="geometry">
            <mxRectangle width="78" height="22" as="alternateBounds" />
          </mxGeometry>
        </mxCell>
        <mxCell id="II89ZpB64ln66D03jxN8-164" style="shape=tableRow;horizontal=0;startSize=0;swimlaneHead=0;swimlaneBody=0;fillColor=none;collapsible=0;dropTarget=0;points=[[0,0.5],[1,0.5]];portConstraint=eastwest;top=0;left=0;right=0;bottom=0;" parent="II89ZpB64ln66D03jxN8-154" vertex="1">
          <mxGeometry y="91" width="120" height="22" as="geometry" />
        </mxCell>
        <mxCell id="II89ZpB64ln66D03jxN8-165" value="" style="shape=partialRectangle;connectable=0;fillColor=none;top=0;left=0;bottom=0;right=0;align=left;spacingLeft=2;overflow=hidden;fontSize=11;" parent="II89ZpB64ln66D03jxN8-164" vertex="1">
          <mxGeometry width="42" height="22" as="geometry">
            <mxRectangle width="42" height="22" as="alternateBounds" />
          </mxGeometry>
        </mxCell>
        <mxCell id="II89ZpB64ln66D03jxN8-166" value="Email" style="shape=partialRectangle;connectable=0;fillColor=#f5f5f5;top=0;left=0;bottom=0;right=0;align=left;spacingLeft=2;overflow=hidden;fontSize=11;fontColor=#333333;strokeColor=#666666;" parent="II89ZpB64ln66D03jxN8-164" vertex="1">
          <mxGeometry x="42" width="78" height="22" as="geometry">
            <mxRectangle width="78" height="22" as="alternateBounds" />
          </mxGeometry>
        </mxCell>
        <mxCell id="II89ZpB64ln66D03jxN8-167" style="shape=tableRow;horizontal=0;startSize=0;swimlaneHead=0;swimlaneBody=0;fillColor=none;collapsible=0;dropTarget=0;points=[[0,0.5],[1,0.5]];portConstraint=eastwest;top=0;left=0;right=0;bottom=0;" parent="II89ZpB64ln66D03jxN8-154" vertex="1">
          <mxGeometry y="113" width="120" height="22" as="geometry" />
        </mxCell>
        <mxCell id="II89ZpB64ln66D03jxN8-168" value="" style="shape=partialRectangle;connectable=0;fillColor=none;top=0;left=0;bottom=0;right=0;align=left;spacingLeft=2;overflow=hidden;fontSize=11;" parent="II89ZpB64ln66D03jxN8-167" vertex="1">
          <mxGeometry width="42" height="22" as="geometry">
            <mxRectangle width="42" height="22" as="alternateBounds" />
          </mxGeometry>
        </mxCell>
        <mxCell id="II89ZpB64ln66D03jxN8-169" value="Password" style="shape=partialRectangle;connectable=0;fillColor=#f5f5f5;top=0;left=0;bottom=0;right=0;align=left;spacingLeft=2;overflow=hidden;fontSize=11;fontColor=#333333;strokeColor=#666666;" parent="II89ZpB64ln66D03jxN8-167" vertex="1">
          <mxGeometry x="42" width="78" height="22" as="geometry">
            <mxRectangle width="78" height="22" as="alternateBounds" />
          </mxGeometry>
        </mxCell>
        <mxCell id="II89ZpB64ln66D03jxN8-170" style="shape=tableRow;horizontal=0;startSize=0;swimlaneHead=0;swimlaneBody=0;fillColor=none;collapsible=0;dropTarget=0;points=[[0,0.5],[1,0.5]];portConstraint=eastwest;top=0;left=0;right=0;bottom=0;" parent="II89ZpB64ln66D03jxN8-154" vertex="1">
          <mxGeometry y="135" width="120" height="22" as="geometry" />
        </mxCell>
        <mxCell id="II89ZpB64ln66D03jxN8-171" value="" style="shape=partialRectangle;connectable=0;fillColor=none;top=0;left=0;bottom=0;right=0;align=left;spacingLeft=2;overflow=hidden;fontSize=11;" parent="II89ZpB64ln66D03jxN8-170" vertex="1">
          <mxGeometry width="42" height="22" as="geometry">
            <mxRectangle width="42" height="22" as="alternateBounds" />
          </mxGeometry>
        </mxCell>
        <mxCell id="II89ZpB64ln66D03jxN8-172" value="Role" style="shape=partialRectangle;connectable=0;fillColor=#f5f5f5;top=0;left=0;bottom=0;right=0;align=left;spacingLeft=2;overflow=hidden;fontSize=11;fontColor=#333333;strokeColor=#666666;" parent="II89ZpB64ln66D03jxN8-170" vertex="1">
          <mxGeometry x="42" width="78" height="22" as="geometry">
            <mxRectangle width="78" height="22" as="alternateBounds" />
          </mxGeometry>
        </mxCell>
        <mxCell id="II89ZpB64ln66D03jxN8-173" style="shape=tableRow;horizontal=0;startSize=0;swimlaneHead=0;swimlaneBody=0;fillColor=none;collapsible=0;dropTarget=0;points=[[0,0.5],[1,0.5]];portConstraint=eastwest;top=0;left=0;right=0;bottom=0;" parent="II89ZpB64ln66D03jxN8-154" vertex="1">
          <mxGeometry y="157" width="120" height="22" as="geometry" />
        </mxCell>
        <mxCell id="II89ZpB64ln66D03jxN8-174" value="" style="shape=partialRectangle;connectable=0;fillColor=none;top=0;left=0;bottom=0;right=0;align=left;spacingLeft=2;overflow=hidden;fontSize=11;" parent="II89ZpB64ln66D03jxN8-173" vertex="1">
          <mxGeometry width="42" height="22" as="geometry">
            <mxRectangle width="42" height="22" as="alternateBounds" />
          </mxGeometry>
        </mxCell>
        <mxCell id="II89ZpB64ln66D03jxN8-175" value="PhoneNumber" style="shape=partialRectangle;connectable=0;fillColor=#f5f5f5;top=0;left=0;bottom=0;right=0;align=left;spacingLeft=2;overflow=hidden;fontSize=11;fontColor=#333333;strokeColor=#666666;" parent="II89ZpB64ln66D03jxN8-173" vertex="1">
          <mxGeometry x="42" width="78" height="22" as="geometry">
            <mxRectangle width="78" height="22" as="alternateBounds" />
          </mxGeometry>
        </mxCell>
        <mxCell id="II89ZpB64ln66D03jxN8-176" style="shape=tableRow;horizontal=0;startSize=0;swimlaneHead=0;swimlaneBody=0;fillColor=none;collapsible=0;dropTarget=0;points=[[0,0.5],[1,0.5]];portConstraint=eastwest;top=0;left=0;right=0;bottom=0;" parent="II89ZpB64ln66D03jxN8-154" vertex="1">
          <mxGeometry y="179" width="120" height="22" as="geometry" />
        </mxCell>
        <mxCell id="II89ZpB64ln66D03jxN8-177" value="" style="shape=partialRectangle;connectable=0;fillColor=none;top=0;left=0;bottom=0;right=0;align=left;spacingLeft=2;overflow=hidden;fontSize=11;" parent="II89ZpB64ln66D03jxN8-176" vertex="1">
          <mxGeometry width="42" height="22" as="geometry">
            <mxRectangle width="42" height="22" as="alternateBounds" />
          </mxGeometry>
        </mxCell>
        <mxCell id="II89ZpB64ln66D03jxN8-178" value="Address" style="shape=partialRectangle;connectable=0;fillColor=#f5f5f5;top=0;left=0;bottom=0;right=0;align=left;spacingLeft=2;overflow=hidden;fontSize=11;fontColor=#333333;strokeColor=#666666;" parent="II89ZpB64ln66D03jxN8-176" vertex="1">
          <mxGeometry x="42" width="78" height="22" as="geometry">
            <mxRectangle width="78" height="22" as="alternateBounds" />
          </mxGeometry>
        </mxCell>
        <mxCell id="II89ZpB64ln66D03jxN8-179" value="ProductCategory" style="shape=table;startSize=25;container=1;collapsible=0;childLayout=tableLayout;fixedRows=1;rowLines=1;fontStyle=1;align=center;resizeLast=1;fillColor=#dae8fc;strokeColor=#6c8ebf;" parent="1" vertex="1">
          <mxGeometry x="1200" y="380" width="150" height="91" as="geometry" />
        </mxCell>
        <mxCell id="II89ZpB64ln66D03jxN8-180" style="shape=tableRow;horizontal=0;startSize=0;swimlaneHead=0;swimlaneBody=0;fillColor=none;collapsible=0;dropTarget=0;points=[[0,0.5],[1,0.5]];portConstraint=eastwest;top=0;left=0;right=0;bottom=0;" parent="II89ZpB64ln66D03jxN8-179" vertex="1">
          <mxGeometry y="25" width="150" height="22" as="geometry" />
        </mxCell>
        <mxCell id="II89ZpB64ln66D03jxN8-181" value="PK" style="shape=partialRectangle;connectable=0;fillColor=none;top=0;left=0;bottom=0;right=0;align=left;spacingLeft=2;overflow=hidden;fontSize=11;fontStyle=1" parent="II89ZpB64ln66D03jxN8-180" vertex="1">
          <mxGeometry width="42" height="22" as="geometry">
            <mxRectangle width="42" height="22" as="alternateBounds" />
          </mxGeometry>
        </mxCell>
        <mxCell id="II89ZpB64ln66D03jxN8-182" value="ProductCategoryID" style="shape=partialRectangle;connectable=0;fillColor=#f5f5f5;top=0;left=0;bottom=0;right=0;align=left;spacingLeft=2;overflow=hidden;fontSize=11;fontStyle=5;fontColor=#333333;strokeColor=#666666;" parent="II89ZpB64ln66D03jxN8-180" vertex="1">
          <mxGeometry x="42" width="108" height="22" as="geometry">
            <mxRectangle width="108" height="22" as="alternateBounds" />
          </mxGeometry>
        </mxCell>
        <mxCell id="II89ZpB64ln66D03jxN8-183" style="shape=tableRow;horizontal=0;startSize=0;swimlaneHead=0;swimlaneBody=0;fillColor=none;collapsible=0;dropTarget=0;points=[[0,0.5],[1,0.5]];portConstraint=eastwest;top=0;left=0;right=0;bottom=0;" parent="II89ZpB64ln66D03jxN8-179" vertex="1">
          <mxGeometry y="47" width="150" height="22" as="geometry" />
        </mxCell>
        <mxCell id="II89ZpB64ln66D03jxN8-184" value="" style="shape=partialRectangle;connectable=0;fillColor=none;top=0;left=0;bottom=0;right=0;align=left;spacingLeft=2;overflow=hidden;fontSize=11;" parent="II89ZpB64ln66D03jxN8-183" vertex="1">
          <mxGeometry width="42" height="22" as="geometry">
            <mxRectangle width="42" height="22" as="alternateBounds" />
          </mxGeometry>
        </mxCell>
        <mxCell id="II89ZpB64ln66D03jxN8-185" value="CategoryName" style="shape=partialRectangle;connectable=0;fillColor=#f5f5f5;top=0;left=0;bottom=0;right=0;align=left;spacingLeft=2;overflow=hidden;fontSize=11;fontColor=#333333;strokeColor=#666666;" parent="II89ZpB64ln66D03jxN8-183" vertex="1">
          <mxGeometry x="42" width="108" height="22" as="geometry">
            <mxRectangle width="108" height="22" as="alternateBounds" />
          </mxGeometry>
        </mxCell>
        <mxCell id="II89ZpB64ln66D03jxN8-186" style="shape=tableRow;horizontal=0;startSize=0;swimlaneHead=0;swimlaneBody=0;fillColor=none;collapsible=0;dropTarget=0;points=[[0,0.5],[1,0.5]];portConstraint=eastwest;top=0;left=0;right=0;bottom=0;" parent="II89ZpB64ln66D03jxN8-179" vertex="1">
          <mxGeometry y="69" width="150" height="22" as="geometry" />
        </mxCell>
        <mxCell id="II89ZpB64ln66D03jxN8-187" value="" style="shape=partialRectangle;connectable=0;fillColor=none;top=0;left=0;bottom=0;right=0;align=left;spacingLeft=2;overflow=hidden;fontSize=11;" parent="II89ZpB64ln66D03jxN8-186" vertex="1">
          <mxGeometry width="42" height="22" as="geometry">
            <mxRectangle width="42" height="22" as="alternateBounds" />
          </mxGeometry>
        </mxCell>
        <mxCell id="II89ZpB64ln66D03jxN8-188" value="Description" style="shape=partialRectangle;connectable=0;fillColor=#f5f5f5;top=0;left=0;bottom=0;right=0;align=left;spacingLeft=2;overflow=hidden;fontSize=11;fontColor=#333333;strokeColor=#666666;" parent="II89ZpB64ln66D03jxN8-186" vertex="1">
          <mxGeometry x="42" width="108" height="22" as="geometry">
            <mxRectangle width="108" height="22" as="alternateBounds" />
          </mxGeometry>
        </mxCell>
        <mxCell id="II89ZpB64ln66D03jxN8-208" value="InventoryItem" style="shape=table;startSize=25;container=1;collapsible=0;childLayout=tableLayout;fixedRows=1;rowLines=1;fontStyle=1;align=center;resizeLast=1;fillColor=#dae8fc;strokeColor=#6c8ebf;" parent="1" vertex="1">
          <mxGeometry x="310" y="550" width="150" height="157" as="geometry" />
        </mxCell>
        <mxCell id="II89ZpB64ln66D03jxN8-209" style="shape=tableRow;horizontal=0;startSize=0;swimlaneHead=0;swimlaneBody=0;fillColor=none;collapsible=0;dropTarget=0;points=[[0,0.5],[1,0.5]];portConstraint=eastwest;top=0;left=0;right=0;bottom=0;" parent="II89ZpB64ln66D03jxN8-208" vertex="1">
          <mxGeometry y="25" width="150" height="22" as="geometry" />
        </mxCell>
        <mxCell id="II89ZpB64ln66D03jxN8-210" value="PK" style="shape=partialRectangle;connectable=0;fillColor=none;top=0;left=0;bottom=0;right=0;align=left;spacingLeft=2;overflow=hidden;fontSize=11;fontStyle=1" parent="II89ZpB64ln66D03jxN8-209" vertex="1">
          <mxGeometry width="48" height="22" as="geometry">
            <mxRectangle width="48" height="22" as="alternateBounds" />
          </mxGeometry>
        </mxCell>
        <mxCell id="II89ZpB64ln66D03jxN8-211" value="InventoryItemID" style="shape=partialRectangle;connectable=0;fillColor=none;top=0;left=0;bottom=0;right=0;align=left;spacingLeft=2;overflow=hidden;fontSize=11;fontStyle=5" parent="II89ZpB64ln66D03jxN8-209" vertex="1">
          <mxGeometry x="48" width="102" height="22" as="geometry">
            <mxRectangle width="102" height="22" as="alternateBounds" />
          </mxGeometry>
        </mxCell>
        <mxCell id="II89ZpB64ln66D03jxN8-215" style="shape=tableRow;horizontal=0;startSize=0;swimlaneHead=0;swimlaneBody=0;fillColor=none;collapsible=0;dropTarget=0;points=[[0,0.5],[1,0.5]];portConstraint=eastwest;top=0;left=0;right=0;bottom=0;" parent="II89ZpB64ln66D03jxN8-208" vertex="1">
          <mxGeometry y="47" width="150" height="22" as="geometry" />
        </mxCell>
        <mxCell id="II89ZpB64ln66D03jxN8-216" value="" style="shape=partialRectangle;connectable=0;fillColor=none;top=0;left=0;bottom=0;right=0;align=left;spacingLeft=2;overflow=hidden;fontSize=11;" parent="II89ZpB64ln66D03jxN8-215" vertex="1">
          <mxGeometry width="48" height="22" as="geometry">
            <mxRectangle width="48" height="22" as="alternateBounds" />
          </mxGeometry>
        </mxCell>
        <mxCell id="II89ZpB64ln66D03jxN8-217" value="QuantityAvailable" style="shape=partialRectangle;connectable=0;fillColor=none;top=0;left=0;bottom=0;right=0;align=left;spacingLeft=2;overflow=hidden;fontSize=11;" parent="II89ZpB64ln66D03jxN8-215" vertex="1">
          <mxGeometry x="48" width="102" height="22" as="geometry">
            <mxRectangle width="102" height="22" as="alternateBounds" />
          </mxGeometry>
        </mxCell>
        <mxCell id="II89ZpB64ln66D03jxN8-218" style="shape=tableRow;horizontal=0;startSize=0;swimlaneHead=0;swimlaneBody=0;fillColor=none;collapsible=0;dropTarget=0;points=[[0,0.5],[1,0.5]];portConstraint=eastwest;top=0;left=0;right=0;bottom=0;" parent="II89ZpB64ln66D03jxN8-208" vertex="1">
          <mxGeometry y="69" width="150" height="22" as="geometry" />
        </mxCell>
        <mxCell id="II89ZpB64ln66D03jxN8-219" value="" style="shape=partialRectangle;connectable=0;fillColor=none;top=0;left=0;bottom=0;right=0;align=left;spacingLeft=2;overflow=hidden;fontSize=11;" parent="II89ZpB64ln66D03jxN8-218" vertex="1">
          <mxGeometry width="48" height="22" as="geometry">
            <mxRectangle width="48" height="22" as="alternateBounds" />
          </mxGeometry>
        </mxCell>
        <mxCell id="II89ZpB64ln66D03jxN8-220" value="ReorderLevel" style="shape=partialRectangle;connectable=0;fillColor=none;top=0;left=0;bottom=0;right=0;align=left;spacingLeft=2;overflow=hidden;fontSize=11;" parent="II89ZpB64ln66D03jxN8-218" vertex="1">
          <mxGeometry x="48" width="102" height="22" as="geometry">
            <mxRectangle width="102" height="22" as="alternateBounds" />
          </mxGeometry>
        </mxCell>
        <mxCell id="II89ZpB64ln66D03jxN8-221" style="shape=tableRow;horizontal=0;startSize=0;swimlaneHead=0;swimlaneBody=0;fillColor=none;collapsible=0;dropTarget=0;points=[[0,0.5],[1,0.5]];portConstraint=eastwest;top=0;left=0;right=0;bottom=0;" parent="II89ZpB64ln66D03jxN8-208" vertex="1">
          <mxGeometry y="91" width="150" height="22" as="geometry" />
        </mxCell>
        <mxCell id="II89ZpB64ln66D03jxN8-222" value="" style="shape=partialRectangle;connectable=0;fillColor=none;top=0;left=0;bottom=0;right=0;align=left;spacingLeft=2;overflow=hidden;fontSize=11;" parent="II89ZpB64ln66D03jxN8-221" vertex="1">
          <mxGeometry width="48" height="22" as="geometry">
            <mxRectangle width="48" height="22" as="alternateBounds" />
          </mxGeometry>
        </mxCell>
        <mxCell id="II89ZpB64ln66D03jxN8-223" value="UnitPrice" style="shape=partialRectangle;connectable=0;fillColor=none;top=0;left=0;bottom=0;right=0;align=left;spacingLeft=2;overflow=hidden;fontSize=11;" parent="II89ZpB64ln66D03jxN8-221" vertex="1">
          <mxGeometry x="48" width="102" height="22" as="geometry">
            <mxRectangle width="102" height="22" as="alternateBounds" />
          </mxGeometry>
        </mxCell>
        <mxCell id="II89ZpB64ln66D03jxN8-224" style="shape=tableRow;horizontal=0;startSize=0;swimlaneHead=0;swimlaneBody=0;fillColor=none;collapsible=0;dropTarget=0;points=[[0,0.5],[1,0.5]];portConstraint=eastwest;top=0;left=0;right=0;bottom=0;" parent="II89ZpB64ln66D03jxN8-208" vertex="1">
          <mxGeometry y="113" width="150" height="22" as="geometry" />
        </mxCell>
        <mxCell id="II89ZpB64ln66D03jxN8-225" value="" style="shape=partialRectangle;connectable=0;fillColor=none;top=0;left=0;bottom=0;right=0;align=left;spacingLeft=2;overflow=hidden;fontSize=11;" parent="II89ZpB64ln66D03jxN8-224" vertex="1">
          <mxGeometry width="48" height="22" as="geometry">
            <mxRectangle width="48" height="22" as="alternateBounds" />
          </mxGeometry>
        </mxCell>
        <mxCell id="II89ZpB64ln66D03jxN8-226" value="ExpiryDate" style="shape=partialRectangle;connectable=0;fillColor=none;top=0;left=0;bottom=0;right=0;align=left;spacingLeft=2;overflow=hidden;fontSize=11;" parent="II89ZpB64ln66D03jxN8-224" vertex="1">
          <mxGeometry x="48" width="102" height="22" as="geometry">
            <mxRectangle width="102" height="22" as="alternateBounds" />
          </mxGeometry>
        </mxCell>
        <mxCell id="3FMIBUW514Lr_5vxj_tx-1" style="shape=tableRow;horizontal=0;startSize=0;swimlaneHead=0;swimlaneBody=0;fillColor=none;collapsible=0;dropTarget=0;points=[[0,0.5],[1,0.5]];portConstraint=eastwest;top=0;left=0;right=0;bottom=0;" parent="II89ZpB64ln66D03jxN8-208" vertex="1">
          <mxGeometry y="135" width="150" height="22" as="geometry" />
        </mxCell>
        <mxCell id="3FMIBUW514Lr_5vxj_tx-2" value="FK" style="shape=partialRectangle;connectable=0;fillColor=none;top=0;left=0;bottom=0;right=0;align=left;spacingLeft=2;overflow=hidden;fontSize=11;" parent="3FMIBUW514Lr_5vxj_tx-1" vertex="1">
          <mxGeometry width="48" height="22" as="geometry">
            <mxRectangle width="48" height="22" as="alternateBounds" />
          </mxGeometry>
        </mxCell>
        <mxCell id="3FMIBUW514Lr_5vxj_tx-3" value="ProductID" style="shape=partialRectangle;connectable=0;fillColor=none;top=0;left=0;bottom=0;right=0;align=left;spacingLeft=2;overflow=hidden;fontSize=11;" parent="3FMIBUW514Lr_5vxj_tx-1" vertex="1">
          <mxGeometry x="48" width="102" height="22" as="geometry">
            <mxRectangle width="102" height="22" as="alternateBounds" />
          </mxGeometry>
        </mxCell>
        <mxCell id="II89ZpB64ln66D03jxN8-227" value="InventoryRestock" style="shape=table;startSize=25;container=1;collapsible=0;childLayout=tableLayout;fixedRows=1;rowLines=1;fontStyle=1;align=center;resizeLast=1;fillColor=#dae8fc;strokeColor=#6c8ebf;" parent="1" vertex="1">
          <mxGeometry x="800" y="869" width="132" height="113" as="geometry" />
        </mxCell>
        <mxCell id="II89ZpB64ln66D03jxN8-228" style="shape=tableRow;horizontal=0;startSize=0;swimlaneHead=0;swimlaneBody=0;fillColor=none;collapsible=0;dropTarget=0;points=[[0,0.5],[1,0.5]];portConstraint=eastwest;top=0;left=0;right=0;bottom=0;" parent="II89ZpB64ln66D03jxN8-227" vertex="1">
          <mxGeometry y="25" width="132" height="22" as="geometry" />
        </mxCell>
        <mxCell id="II89ZpB64ln66D03jxN8-229" value="PK" style="shape=partialRectangle;connectable=0;fillColor=none;top=0;left=0;bottom=0;right=0;align=left;spacingLeft=2;overflow=hidden;fontSize=11;fontStyle=1" parent="II89ZpB64ln66D03jxN8-228" vertex="1">
          <mxGeometry width="48" height="22" as="geometry">
            <mxRectangle width="48" height="22" as="alternateBounds" />
          </mxGeometry>
        </mxCell>
        <mxCell id="II89ZpB64ln66D03jxN8-230" value="RestockID" style="shape=partialRectangle;connectable=0;fillColor=#f5f5f5;top=0;left=0;bottom=0;right=0;align=left;spacingLeft=2;overflow=hidden;fontSize=11;fontStyle=5;strokeColor=#666666;fontColor=#333333;" parent="II89ZpB64ln66D03jxN8-228" vertex="1">
          <mxGeometry x="48" width="84" height="22" as="geometry">
            <mxRectangle width="84" height="22" as="alternateBounds" />
          </mxGeometry>
        </mxCell>
        <mxCell id="II89ZpB64ln66D03jxN8-231" style="shape=tableRow;horizontal=0;startSize=0;swimlaneHead=0;swimlaneBody=0;fillColor=none;collapsible=0;dropTarget=0;points=[[0,0.5],[1,0.5]];portConstraint=eastwest;top=0;left=0;right=0;bottom=0;" parent="II89ZpB64ln66D03jxN8-227" vertex="1">
          <mxGeometry y="47" width="132" height="22" as="geometry" />
        </mxCell>
        <mxCell id="II89ZpB64ln66D03jxN8-232" value="" style="shape=partialRectangle;connectable=0;fillColor=none;top=0;left=0;bottom=0;right=0;align=left;spacingLeft=2;overflow=hidden;fontSize=11;" parent="II89ZpB64ln66D03jxN8-231" vertex="1">
          <mxGeometry width="48" height="22" as="geometry">
            <mxRectangle width="48" height="22" as="alternateBounds" />
          </mxGeometry>
        </mxCell>
        <mxCell id="II89ZpB64ln66D03jxN8-233" value="RestockDate" style="shape=partialRectangle;connectable=0;fillColor=#f5f5f5;top=0;left=0;bottom=0;right=0;align=left;spacingLeft=2;overflow=hidden;fontSize=11;strokeColor=#666666;fontColor=#333333;" parent="II89ZpB64ln66D03jxN8-231" vertex="1">
          <mxGeometry x="48" width="84" height="22" as="geometry">
            <mxRectangle width="84" height="22" as="alternateBounds" />
          </mxGeometry>
        </mxCell>
        <mxCell id="II89ZpB64ln66D03jxN8-234" style="shape=tableRow;horizontal=0;startSize=0;swimlaneHead=0;swimlaneBody=0;fillColor=none;collapsible=0;dropTarget=0;points=[[0,0.5],[1,0.5]];portConstraint=eastwest;top=0;left=0;right=0;bottom=0;" parent="II89ZpB64ln66D03jxN8-227" vertex="1">
          <mxGeometry y="69" width="132" height="22" as="geometry" />
        </mxCell>
        <mxCell id="II89ZpB64ln66D03jxN8-235" value="" style="shape=partialRectangle;connectable=0;fillColor=none;top=0;left=0;bottom=0;right=0;align=left;spacingLeft=2;overflow=hidden;fontSize=11;" parent="II89ZpB64ln66D03jxN8-234" vertex="1">
          <mxGeometry width="48" height="22" as="geometry">
            <mxRectangle width="48" height="22" as="alternateBounds" />
          </mxGeometry>
        </mxCell>
        <mxCell id="II89ZpB64ln66D03jxN8-236" value="RestockStatus" style="shape=partialRectangle;connectable=0;fillColor=#f5f5f5;top=0;left=0;bottom=0;right=0;align=left;spacingLeft=2;overflow=hidden;fontSize=11;strokeColor=#666666;fontColor=#333333;" parent="II89ZpB64ln66D03jxN8-234" vertex="1">
          <mxGeometry x="48" width="84" height="22" as="geometry">
            <mxRectangle width="84" height="22" as="alternateBounds" />
          </mxGeometry>
        </mxCell>
        <mxCell id="II89ZpB64ln66D03jxN8-237" style="shape=tableRow;horizontal=0;startSize=0;swimlaneHead=0;swimlaneBody=0;fillColor=none;collapsible=0;dropTarget=0;points=[[0,0.5],[1,0.5]];portConstraint=eastwest;top=0;left=0;right=0;bottom=0;" parent="II89ZpB64ln66D03jxN8-227" vertex="1">
          <mxGeometry y="91" width="132" height="22" as="geometry" />
        </mxCell>
        <mxCell id="II89ZpB64ln66D03jxN8-238" value="" style="shape=partialRectangle;connectable=0;fillColor=none;top=0;left=0;bottom=0;right=0;align=left;spacingLeft=2;overflow=hidden;fontSize=11;" parent="II89ZpB64ln66D03jxN8-237" vertex="1">
          <mxGeometry width="48" height="22" as="geometry">
            <mxRectangle width="48" height="22" as="alternateBounds" />
          </mxGeometry>
        </mxCell>
        <mxCell id="II89ZpB64ln66D03jxN8-239" value="RestockAmount" style="shape=partialRectangle;connectable=0;fillColor=#f5f5f5;top=0;left=0;bottom=0;right=0;align=left;spacingLeft=2;overflow=hidden;fontSize=11;strokeColor=#666666;fontColor=#333333;" parent="II89ZpB64ln66D03jxN8-237" vertex="1">
          <mxGeometry x="48" width="84" height="22" as="geometry">
            <mxRectangle width="84" height="22" as="alternateBounds" />
          </mxGeometry>
        </mxCell>
        <mxCell id="II89ZpB64ln66D03jxN8-240" value="Customer" style="shape=table;startSize=25;container=1;collapsible=0;childLayout=tableLayout;fixedRows=1;rowLines=1;fontStyle=1;align=center;resizeLast=1;fillColor=#dae8fc;strokeColor=#6c8ebf;" parent="1" vertex="1">
          <mxGeometry x="813" y="1402" width="145" height="91" as="geometry" />
        </mxCell>
        <mxCell id="II89ZpB64ln66D03jxN8-241" style="shape=tableRow;horizontal=0;startSize=0;swimlaneHead=0;swimlaneBody=0;fillColor=none;collapsible=0;dropTarget=0;points=[[0,0.5],[1,0.5]];portConstraint=eastwest;top=0;left=0;right=0;bottom=0;" parent="II89ZpB64ln66D03jxN8-240" vertex="1">
          <mxGeometry y="25" width="145" height="22" as="geometry" />
        </mxCell>
        <mxCell id="II89ZpB64ln66D03jxN8-242" value="PK" style="shape=partialRectangle;connectable=0;fillColor=none;top=0;left=0;bottom=0;right=0;align=left;spacingLeft=2;overflow=hidden;fontSize=11;fontStyle=1" parent="II89ZpB64ln66D03jxN8-241" vertex="1">
          <mxGeometry width="42" height="22" as="geometry">
            <mxRectangle width="42" height="22" as="alternateBounds" />
          </mxGeometry>
        </mxCell>
        <mxCell id="II89ZpB64ln66D03jxN8-243" value="UserID" style="shape=partialRectangle;connectable=0;fillColor=#f5f5f5;top=0;left=0;bottom=0;right=0;align=left;spacingLeft=2;overflow=hidden;fontSize=11;fontStyle=5;fontColor=#333333;strokeColor=#666666;" parent="II89ZpB64ln66D03jxN8-241" vertex="1">
          <mxGeometry x="42" width="103" height="22" as="geometry">
            <mxRectangle width="103" height="22" as="alternateBounds" />
          </mxGeometry>
        </mxCell>
        <mxCell id="II89ZpB64ln66D03jxN8-244" style="shape=tableRow;horizontal=0;startSize=0;swimlaneHead=0;swimlaneBody=0;fillColor=none;collapsible=0;dropTarget=0;points=[[0,0.5],[1,0.5]];portConstraint=eastwest;top=0;left=0;right=0;bottom=0;" parent="II89ZpB64ln66D03jxN8-240" vertex="1">
          <mxGeometry y="47" width="145" height="22" as="geometry" />
        </mxCell>
        <mxCell id="II89ZpB64ln66D03jxN8-245" value="" style="shape=partialRectangle;connectable=0;fillColor=none;top=0;left=0;bottom=0;right=0;align=left;spacingLeft=2;overflow=hidden;fontSize=11;" parent="II89ZpB64ln66D03jxN8-244" vertex="1">
          <mxGeometry width="42" height="22" as="geometry">
            <mxRectangle width="42" height="22" as="alternateBounds" />
          </mxGeometry>
        </mxCell>
        <mxCell id="II89ZpB64ln66D03jxN8-246" value="CustomerType" style="shape=partialRectangle;connectable=0;fillColor=#f5f5f5;top=0;left=0;bottom=0;right=0;align=left;spacingLeft=2;overflow=hidden;fontSize=11;fontColor=#333333;strokeColor=#666666;" parent="II89ZpB64ln66D03jxN8-244" vertex="1">
          <mxGeometry x="42" width="103" height="22" as="geometry">
            <mxRectangle width="103" height="22" as="alternateBounds" />
          </mxGeometry>
        </mxCell>
        <mxCell id="II89ZpB64ln66D03jxN8-247" style="shape=tableRow;horizontal=0;startSize=0;swimlaneHead=0;swimlaneBody=0;fillColor=none;collapsible=0;dropTarget=0;points=[[0,0.5],[1,0.5]];portConstraint=eastwest;top=0;left=0;right=0;bottom=0;" parent="II89ZpB64ln66D03jxN8-240" vertex="1">
          <mxGeometry y="69" width="145" height="22" as="geometry" />
        </mxCell>
        <mxCell id="II89ZpB64ln66D03jxN8-248" value="" style="shape=partialRectangle;connectable=0;fillColor=none;top=0;left=0;bottom=0;right=0;align=left;spacingLeft=2;overflow=hidden;fontSize=11;" parent="II89ZpB64ln66D03jxN8-247" vertex="1">
          <mxGeometry width="42" height="22" as="geometry">
            <mxRectangle width="42" height="22" as="alternateBounds" />
          </mxGeometry>
        </mxCell>
        <mxCell id="II89ZpB64ln66D03jxN8-249" value="SpecialRequests" style="shape=partialRectangle;connectable=0;fillColor=#f5f5f5;top=0;left=0;bottom=0;right=0;align=left;spacingLeft=2;overflow=hidden;fontSize=11;fontColor=#333333;strokeColor=#666666;" parent="II89ZpB64ln66D03jxN8-247" vertex="1">
          <mxGeometry x="42" width="103" height="22" as="geometry">
            <mxRectangle width="103" height="22" as="alternateBounds" />
          </mxGeometry>
        </mxCell>
        <mxCell id="II89ZpB64ln66D03jxN8-250" value="Attendance" style="shape=table;startSize=25;container=1;collapsible=0;childLayout=tableLayout;fixedRows=1;rowLines=1;fontStyle=1;align=center;resizeLast=1;fillColor=#dae8fc;strokeColor=#6c8ebf;" parent="1" vertex="1">
          <mxGeometry x="2430" y="2103" width="144" height="157" as="geometry" />
        </mxCell>
        <mxCell id="II89ZpB64ln66D03jxN8-251" style="shape=tableRow;horizontal=0;startSize=0;swimlaneHead=0;swimlaneBody=0;fillColor=none;collapsible=0;dropTarget=0;points=[[0,0.5],[1,0.5]];portConstraint=eastwest;top=0;left=0;right=0;bottom=0;" parent="II89ZpB64ln66D03jxN8-250" vertex="1">
          <mxGeometry y="25" width="144" height="22" as="geometry" />
        </mxCell>
        <mxCell id="II89ZpB64ln66D03jxN8-252" value="PK" style="shape=partialRectangle;connectable=0;fillColor=none;top=0;left=0;bottom=0;right=0;align=left;spacingLeft=2;overflow=hidden;fontSize=11;fontStyle=1" parent="II89ZpB64ln66D03jxN8-251" vertex="1">
          <mxGeometry width="40" height="22" as="geometry">
            <mxRectangle width="40" height="22" as="alternateBounds" />
          </mxGeometry>
        </mxCell>
        <mxCell id="II89ZpB64ln66D03jxN8-253" value="AttendanceID" style="shape=partialRectangle;connectable=0;fillColor=#f5f5f5;top=0;left=0;bottom=0;right=0;align=left;spacingLeft=2;overflow=hidden;fontSize=11;fontStyle=5;fontColor=#333333;strokeColor=#666666;" parent="II89ZpB64ln66D03jxN8-251" vertex="1">
          <mxGeometry x="40" width="104" height="22" as="geometry">
            <mxRectangle width="104" height="22" as="alternateBounds" />
          </mxGeometry>
        </mxCell>
        <mxCell id="II89ZpB64ln66D03jxN8-254" style="shape=tableRow;horizontal=0;startSize=0;swimlaneHead=0;swimlaneBody=0;fillColor=none;collapsible=0;dropTarget=0;points=[[0,0.5],[1,0.5]];portConstraint=eastwest;top=0;left=0;right=0;bottom=0;" parent="II89ZpB64ln66D03jxN8-250" vertex="1">
          <mxGeometry y="47" width="144" height="22" as="geometry" />
        </mxCell>
        <mxCell id="II89ZpB64ln66D03jxN8-255" value="FK" style="shape=partialRectangle;connectable=0;fillColor=none;top=0;left=0;bottom=0;right=0;align=left;spacingLeft=2;overflow=hidden;fontSize=11;fontStyle=1" parent="II89ZpB64ln66D03jxN8-254" vertex="1">
          <mxGeometry width="40" height="22" as="geometry">
            <mxRectangle width="40" height="22" as="alternateBounds" />
          </mxGeometry>
        </mxCell>
        <mxCell id="II89ZpB64ln66D03jxN8-256" value="UserID" style="shape=partialRectangle;connectable=0;fillColor=#f5f5f5;top=0;left=0;bottom=0;right=0;align=left;spacingLeft=2;overflow=hidden;fontSize=11;fontColor=#333333;strokeColor=#666666;" parent="II89ZpB64ln66D03jxN8-254" vertex="1">
          <mxGeometry x="40" width="104" height="22" as="geometry">
            <mxRectangle width="104" height="22" as="alternateBounds" />
          </mxGeometry>
        </mxCell>
        <mxCell id="II89ZpB64ln66D03jxN8-257" style="shape=tableRow;horizontal=0;startSize=0;swimlaneHead=0;swimlaneBody=0;fillColor=none;collapsible=0;dropTarget=0;points=[[0,0.5],[1,0.5]];portConstraint=eastwest;top=0;left=0;right=0;bottom=0;" parent="II89ZpB64ln66D03jxN8-250" vertex="1">
          <mxGeometry y="69" width="144" height="22" as="geometry" />
        </mxCell>
        <mxCell id="II89ZpB64ln66D03jxN8-258" value="" style="shape=partialRectangle;connectable=0;fillColor=none;top=0;left=0;bottom=0;right=0;align=left;spacingLeft=2;overflow=hidden;fontSize=11;" parent="II89ZpB64ln66D03jxN8-257" vertex="1">
          <mxGeometry width="40" height="22" as="geometry">
            <mxRectangle width="40" height="22" as="alternateBounds" />
          </mxGeometry>
        </mxCell>
        <mxCell id="II89ZpB64ln66D03jxN8-259" value="AttendanceDate" style="shape=partialRectangle;connectable=0;fillColor=#f5f5f5;top=0;left=0;bottom=0;right=0;align=left;spacingLeft=2;overflow=hidden;fontSize=11;fontColor=#333333;strokeColor=#666666;" parent="II89ZpB64ln66D03jxN8-257" vertex="1">
          <mxGeometry x="40" width="104" height="22" as="geometry">
            <mxRectangle width="104" height="22" as="alternateBounds" />
          </mxGeometry>
        </mxCell>
        <mxCell id="II89ZpB64ln66D03jxN8-260" style="shape=tableRow;horizontal=0;startSize=0;swimlaneHead=0;swimlaneBody=0;fillColor=none;collapsible=0;dropTarget=0;points=[[0,0.5],[1,0.5]];portConstraint=eastwest;top=0;left=0;right=0;bottom=0;" parent="II89ZpB64ln66D03jxN8-250" vertex="1">
          <mxGeometry y="91" width="144" height="22" as="geometry" />
        </mxCell>
        <mxCell id="II89ZpB64ln66D03jxN8-261" value="" style="shape=partialRectangle;connectable=0;fillColor=none;top=0;left=0;bottom=0;right=0;align=left;spacingLeft=2;overflow=hidden;fontSize=11;" parent="II89ZpB64ln66D03jxN8-260" vertex="1">
          <mxGeometry width="40" height="22" as="geometry">
            <mxRectangle width="40" height="22" as="alternateBounds" />
          </mxGeometry>
        </mxCell>
        <mxCell id="II89ZpB64ln66D03jxN8-262" value="ClockInTime" style="shape=partialRectangle;connectable=0;fillColor=#f5f5f5;top=0;left=0;bottom=0;right=0;align=left;spacingLeft=2;overflow=hidden;fontSize=11;fontColor=#333333;strokeColor=#666666;" parent="II89ZpB64ln66D03jxN8-260" vertex="1">
          <mxGeometry x="40" width="104" height="22" as="geometry">
            <mxRectangle width="104" height="22" as="alternateBounds" />
          </mxGeometry>
        </mxCell>
        <mxCell id="II89ZpB64ln66D03jxN8-263" style="shape=tableRow;horizontal=0;startSize=0;swimlaneHead=0;swimlaneBody=0;fillColor=none;collapsible=0;dropTarget=0;points=[[0,0.5],[1,0.5]];portConstraint=eastwest;top=0;left=0;right=0;bottom=0;" parent="II89ZpB64ln66D03jxN8-250" vertex="1">
          <mxGeometry y="113" width="144" height="22" as="geometry" />
        </mxCell>
        <mxCell id="II89ZpB64ln66D03jxN8-264" value="" style="shape=partialRectangle;connectable=0;fillColor=none;top=0;left=0;bottom=0;right=0;align=left;spacingLeft=2;overflow=hidden;fontSize=11;" parent="II89ZpB64ln66D03jxN8-263" vertex="1">
          <mxGeometry width="40" height="22" as="geometry">
            <mxRectangle width="40" height="22" as="alternateBounds" />
          </mxGeometry>
        </mxCell>
        <mxCell id="II89ZpB64ln66D03jxN8-265" value="ClockOutTime" style="shape=partialRectangle;connectable=0;fillColor=#f5f5f5;top=0;left=0;bottom=0;right=0;align=left;spacingLeft=2;overflow=hidden;fontSize=11;fontColor=#333333;strokeColor=#666666;" parent="II89ZpB64ln66D03jxN8-263" vertex="1">
          <mxGeometry x="40" width="104" height="22" as="geometry">
            <mxRectangle width="104" height="22" as="alternateBounds" />
          </mxGeometry>
        </mxCell>
        <mxCell id="II89ZpB64ln66D03jxN8-266" style="shape=tableRow;horizontal=0;startSize=0;swimlaneHead=0;swimlaneBody=0;fillColor=none;collapsible=0;dropTarget=0;points=[[0,0.5],[1,0.5]];portConstraint=eastwest;top=0;left=0;right=0;bottom=0;" parent="II89ZpB64ln66D03jxN8-250" vertex="1">
          <mxGeometry y="135" width="144" height="22" as="geometry" />
        </mxCell>
        <mxCell id="II89ZpB64ln66D03jxN8-267" value="" style="shape=partialRectangle;connectable=0;fillColor=none;top=0;left=0;bottom=0;right=0;align=left;spacingLeft=2;overflow=hidden;fontSize=11;" parent="II89ZpB64ln66D03jxN8-266" vertex="1">
          <mxGeometry width="40" height="22" as="geometry">
            <mxRectangle width="40" height="22" as="alternateBounds" />
          </mxGeometry>
        </mxCell>
        <mxCell id="II89ZpB64ln66D03jxN8-268" value="AttendanceStatus" style="shape=partialRectangle;connectable=0;fillColor=#f5f5f5;top=0;left=0;bottom=0;right=0;align=left;spacingLeft=2;overflow=hidden;fontSize=11;fontColor=#333333;strokeColor=#666666;" parent="II89ZpB64ln66D03jxN8-266" vertex="1">
          <mxGeometry x="40" width="104" height="22" as="geometry">
            <mxRectangle width="104" height="22" as="alternateBounds" />
          </mxGeometry>
        </mxCell>
        <mxCell id="II89ZpB64ln66D03jxN8-269" value="Manager" style="shape=table;startSize=25;container=1;collapsible=0;childLayout=tableLayout;fixedRows=1;rowLines=1;fontStyle=1;align=center;resizeLast=1;fillColor=#dae8fc;strokeColor=#6c8ebf;" parent="1" vertex="1">
          <mxGeometry x="1364" y="1740" width="136" height="113" as="geometry" />
        </mxCell>
        <mxCell id="II89ZpB64ln66D03jxN8-270" style="shape=tableRow;horizontal=0;startSize=0;swimlaneHead=0;swimlaneBody=0;fillColor=none;collapsible=0;dropTarget=0;points=[[0,0.5],[1,0.5]];portConstraint=eastwest;top=0;left=0;right=0;bottom=0;" parent="II89ZpB64ln66D03jxN8-269" vertex="1">
          <mxGeometry y="25" width="136" height="22" as="geometry" />
        </mxCell>
        <mxCell id="II89ZpB64ln66D03jxN8-271" value="FK" style="shape=partialRectangle;connectable=0;fillColor=none;top=0;left=0;bottom=0;right=0;align=left;spacingLeft=2;overflow=hidden;fontSize=11;fontStyle=1" parent="II89ZpB64ln66D03jxN8-270" vertex="1">
          <mxGeometry width="42" height="22" as="geometry">
            <mxRectangle width="42" height="22" as="alternateBounds" />
          </mxGeometry>
        </mxCell>
        <mxCell id="II89ZpB64ln66D03jxN8-272" value="UserID" style="shape=partialRectangle;connectable=0;fillColor=#f5f5f5;top=0;left=0;bottom=0;right=0;align=left;spacingLeft=2;overflow=hidden;fontSize=11;fontColor=#333333;strokeColor=#666666;" parent="II89ZpB64ln66D03jxN8-270" vertex="1">
          <mxGeometry x="42" width="94" height="22" as="geometry">
            <mxRectangle width="94" height="22" as="alternateBounds" />
          </mxGeometry>
        </mxCell>
        <mxCell id="II89ZpB64ln66D03jxN8-273" style="shape=tableRow;horizontal=0;startSize=0;swimlaneHead=0;swimlaneBody=0;fillColor=none;collapsible=0;dropTarget=0;points=[[0,0.5],[1,0.5]];portConstraint=eastwest;top=0;left=0;right=0;bottom=0;" parent="II89ZpB64ln66D03jxN8-269" vertex="1">
          <mxGeometry y="47" width="136" height="22" as="geometry" />
        </mxCell>
        <mxCell id="II89ZpB64ln66D03jxN8-274" value="" style="shape=partialRectangle;connectable=0;fillColor=none;top=0;left=0;bottom=0;right=0;align=left;spacingLeft=2;overflow=hidden;fontSize=11;" parent="II89ZpB64ln66D03jxN8-273" vertex="1">
          <mxGeometry width="42" height="22" as="geometry">
            <mxRectangle width="42" height="22" as="alternateBounds" />
          </mxGeometry>
        </mxCell>
        <mxCell id="II89ZpB64ln66D03jxN8-275" value="CafeBranch" style="shape=partialRectangle;connectable=0;fillColor=#f5f5f5;top=0;left=0;bottom=0;right=0;align=left;spacingLeft=2;overflow=hidden;fontSize=11;fontColor=#333333;strokeColor=#666666;" parent="II89ZpB64ln66D03jxN8-273" vertex="1">
          <mxGeometry x="42" width="94" height="22" as="geometry">
            <mxRectangle width="94" height="22" as="alternateBounds" />
          </mxGeometry>
        </mxCell>
        <mxCell id="II89ZpB64ln66D03jxN8-276" style="shape=tableRow;horizontal=0;startSize=0;swimlaneHead=0;swimlaneBody=0;fillColor=none;collapsible=0;dropTarget=0;points=[[0,0.5],[1,0.5]];portConstraint=eastwest;top=0;left=0;right=0;bottom=0;" parent="II89ZpB64ln66D03jxN8-269" vertex="1">
          <mxGeometry y="69" width="136" height="22" as="geometry" />
        </mxCell>
        <mxCell id="II89ZpB64ln66D03jxN8-277" value="" style="shape=partialRectangle;connectable=0;fillColor=none;top=0;left=0;bottom=0;right=0;align=left;spacingLeft=2;overflow=hidden;fontSize=11;" parent="II89ZpB64ln66D03jxN8-276" vertex="1">
          <mxGeometry width="42" height="22" as="geometry">
            <mxRectangle width="42" height="22" as="alternateBounds" />
          </mxGeometry>
        </mxCell>
        <mxCell id="II89ZpB64ln66D03jxN8-278" value="OfficeLocation" style="shape=partialRectangle;connectable=0;fillColor=#f5f5f5;top=0;left=0;bottom=0;right=0;align=left;spacingLeft=2;overflow=hidden;fontSize=11;fontColor=#333333;strokeColor=#666666;" parent="II89ZpB64ln66D03jxN8-276" vertex="1">
          <mxGeometry x="42" width="94" height="22" as="geometry">
            <mxRectangle width="94" height="22" as="alternateBounds" />
          </mxGeometry>
        </mxCell>
        <mxCell id="II89ZpB64ln66D03jxN8-279" style="shape=tableRow;horizontal=0;startSize=0;swimlaneHead=0;swimlaneBody=0;fillColor=none;collapsible=0;dropTarget=0;points=[[0,0.5],[1,0.5]];portConstraint=eastwest;top=0;left=0;right=0;bottom=0;" parent="II89ZpB64ln66D03jxN8-269" vertex="1">
          <mxGeometry y="91" width="136" height="22" as="geometry" />
        </mxCell>
        <mxCell id="II89ZpB64ln66D03jxN8-280" value="" style="shape=partialRectangle;connectable=0;fillColor=none;top=0;left=0;bottom=0;right=0;align=left;spacingLeft=2;overflow=hidden;fontSize=11;" parent="II89ZpB64ln66D03jxN8-279" vertex="1">
          <mxGeometry width="42" height="22" as="geometry">
            <mxRectangle width="42" height="22" as="alternateBounds" />
          </mxGeometry>
        </mxCell>
        <mxCell id="II89ZpB64ln66D03jxN8-281" value="Responsibilities" style="shape=partialRectangle;connectable=0;fillColor=#f5f5f5;top=0;left=0;bottom=0;right=0;align=left;spacingLeft=2;overflow=hidden;fontSize=11;fontColor=#333333;strokeColor=#666666;" parent="II89ZpB64ln66D03jxN8-279" vertex="1">
          <mxGeometry x="42" width="94" height="22" as="geometry">
            <mxRectangle width="94" height="22" as="alternateBounds" />
          </mxGeometry>
        </mxCell>
        <mxCell id="II89ZpB64ln66D03jxN8-282" value="Report" style="shape=table;startSize=25;container=1;collapsible=0;childLayout=tableLayout;fixedRows=1;rowLines=1;fontStyle=1;align=center;resizeLast=1;fillColor=#dae8fc;strokeColor=#6c8ebf;" parent="1" vertex="1">
          <mxGeometry x="1360" y="1940" width="130" height="135" as="geometry" />
        </mxCell>
        <mxCell id="II89ZpB64ln66D03jxN8-283" style="shape=tableRow;horizontal=0;startSize=0;swimlaneHead=0;swimlaneBody=0;fillColor=none;collapsible=0;dropTarget=0;points=[[0,0.5],[1,0.5]];portConstraint=eastwest;top=0;left=0;right=0;bottom=0;" parent="II89ZpB64ln66D03jxN8-282" vertex="1">
          <mxGeometry y="25" width="130" height="22" as="geometry" />
        </mxCell>
        <mxCell id="II89ZpB64ln66D03jxN8-284" value="PK" style="shape=partialRectangle;connectable=0;fillColor=none;top=0;left=0;bottom=0;right=0;align=left;spacingLeft=2;overflow=hidden;fontSize=11;fontStyle=1" parent="II89ZpB64ln66D03jxN8-283" vertex="1">
          <mxGeometry width="36" height="22" as="geometry">
            <mxRectangle width="36" height="22" as="alternateBounds" />
          </mxGeometry>
        </mxCell>
        <mxCell id="II89ZpB64ln66D03jxN8-285" value="ReportID" style="shape=partialRectangle;connectable=0;fillColor=#f5f5f5;top=0;left=0;bottom=0;right=0;align=left;spacingLeft=2;overflow=hidden;fontSize=11;fontStyle=5;fontColor=#333333;strokeColor=#666666;" parent="II89ZpB64ln66D03jxN8-283" vertex="1">
          <mxGeometry x="36" width="94" height="22" as="geometry">
            <mxRectangle width="94" height="22" as="alternateBounds" />
          </mxGeometry>
        </mxCell>
        <mxCell id="II89ZpB64ln66D03jxN8-286" style="shape=tableRow;horizontal=0;startSize=0;swimlaneHead=0;swimlaneBody=0;fillColor=none;collapsible=0;dropTarget=0;points=[[0,0.5],[1,0.5]];portConstraint=eastwest;top=0;left=0;right=0;bottom=0;" parent="II89ZpB64ln66D03jxN8-282" vertex="1">
          <mxGeometry y="47" width="130" height="22" as="geometry" />
        </mxCell>
        <mxCell id="II89ZpB64ln66D03jxN8-287" value="FK" style="shape=partialRectangle;connectable=0;fillColor=none;top=0;left=0;bottom=0;right=0;align=left;spacingLeft=2;overflow=hidden;fontSize=11;fontStyle=1" parent="II89ZpB64ln66D03jxN8-286" vertex="1">
          <mxGeometry width="36" height="22" as="geometry">
            <mxRectangle width="36" height="22" as="alternateBounds" />
          </mxGeometry>
        </mxCell>
        <mxCell id="II89ZpB64ln66D03jxN8-288" value="ManagerID" style="shape=partialRectangle;connectable=0;fillColor=#f5f5f5;top=0;left=0;bottom=0;right=0;align=left;spacingLeft=2;overflow=hidden;fontSize=11;fontColor=#333333;strokeColor=#666666;" parent="II89ZpB64ln66D03jxN8-286" vertex="1">
          <mxGeometry x="36" width="94" height="22" as="geometry">
            <mxRectangle width="94" height="22" as="alternateBounds" />
          </mxGeometry>
        </mxCell>
        <mxCell id="II89ZpB64ln66D03jxN8-289" style="shape=tableRow;horizontal=0;startSize=0;swimlaneHead=0;swimlaneBody=0;fillColor=none;collapsible=0;dropTarget=0;points=[[0,0.5],[1,0.5]];portConstraint=eastwest;top=0;left=0;right=0;bottom=0;" parent="II89ZpB64ln66D03jxN8-282" vertex="1">
          <mxGeometry y="69" width="130" height="22" as="geometry" />
        </mxCell>
        <mxCell id="II89ZpB64ln66D03jxN8-290" value="" style="shape=partialRectangle;connectable=0;fillColor=none;top=0;left=0;bottom=0;right=0;align=left;spacingLeft=2;overflow=hidden;fontSize=11;" parent="II89ZpB64ln66D03jxN8-289" vertex="1">
          <mxGeometry width="36" height="22" as="geometry">
            <mxRectangle width="36" height="22" as="alternateBounds" />
          </mxGeometry>
        </mxCell>
        <mxCell id="II89ZpB64ln66D03jxN8-291" value="ReportType" style="shape=partialRectangle;connectable=0;fillColor=#f5f5f5;top=0;left=0;bottom=0;right=0;align=left;spacingLeft=2;overflow=hidden;fontSize=11;fontColor=#333333;strokeColor=#666666;" parent="II89ZpB64ln66D03jxN8-289" vertex="1">
          <mxGeometry x="36" width="94" height="22" as="geometry">
            <mxRectangle width="94" height="22" as="alternateBounds" />
          </mxGeometry>
        </mxCell>
        <mxCell id="II89ZpB64ln66D03jxN8-292" style="shape=tableRow;horizontal=0;startSize=0;swimlaneHead=0;swimlaneBody=0;fillColor=none;collapsible=0;dropTarget=0;points=[[0,0.5],[1,0.5]];portConstraint=eastwest;top=0;left=0;right=0;bottom=0;" parent="II89ZpB64ln66D03jxN8-282" vertex="1">
          <mxGeometry y="91" width="130" height="22" as="geometry" />
        </mxCell>
        <mxCell id="II89ZpB64ln66D03jxN8-293" value="" style="shape=partialRectangle;connectable=0;fillColor=none;top=0;left=0;bottom=0;right=0;align=left;spacingLeft=2;overflow=hidden;fontSize=11;" parent="II89ZpB64ln66D03jxN8-292" vertex="1">
          <mxGeometry width="36" height="22" as="geometry">
            <mxRectangle width="36" height="22" as="alternateBounds" />
          </mxGeometry>
        </mxCell>
        <mxCell id="II89ZpB64ln66D03jxN8-294" value="ReportDate" style="shape=partialRectangle;connectable=0;fillColor=#f5f5f5;top=0;left=0;bottom=0;right=0;align=left;spacingLeft=2;overflow=hidden;fontSize=11;fontColor=#333333;strokeColor=#666666;" parent="II89ZpB64ln66D03jxN8-292" vertex="1">
          <mxGeometry x="36" width="94" height="22" as="geometry">
            <mxRectangle width="94" height="22" as="alternateBounds" />
          </mxGeometry>
        </mxCell>
        <mxCell id="II89ZpB64ln66D03jxN8-295" style="shape=tableRow;horizontal=0;startSize=0;swimlaneHead=0;swimlaneBody=0;fillColor=none;collapsible=0;dropTarget=0;points=[[0,0.5],[1,0.5]];portConstraint=eastwest;top=0;left=0;right=0;bottom=0;" parent="II89ZpB64ln66D03jxN8-282" vertex="1">
          <mxGeometry y="113" width="130" height="22" as="geometry" />
        </mxCell>
        <mxCell id="II89ZpB64ln66D03jxN8-296" value="" style="shape=partialRectangle;connectable=0;fillColor=none;top=0;left=0;bottom=0;right=0;align=left;spacingLeft=2;overflow=hidden;fontSize=11;" parent="II89ZpB64ln66D03jxN8-295" vertex="1">
          <mxGeometry width="36" height="22" as="geometry">
            <mxRectangle width="36" height="22" as="alternateBounds" />
          </mxGeometry>
        </mxCell>
        <mxCell id="II89ZpB64ln66D03jxN8-297" value="ReportDetails" style="shape=partialRectangle;connectable=0;fillColor=#f5f5f5;top=0;left=0;bottom=0;right=0;align=left;spacingLeft=2;overflow=hidden;fontSize=11;fontColor=#333333;strokeColor=#666666;" parent="II89ZpB64ln66D03jxN8-295" vertex="1">
          <mxGeometry x="36" width="94" height="22" as="geometry">
            <mxRectangle width="94" height="22" as="alternateBounds" />
          </mxGeometry>
        </mxCell>
        <mxCell id="II89ZpB64ln66D03jxN8-298" value="CafeStaff" style="shape=table;startSize=25;container=1;collapsible=0;childLayout=tableLayout;fixedRows=1;rowLines=1;fontStyle=1;align=center;resizeLast=1;fillColor=#dae8fc;strokeColor=#6c8ebf;" parent="1" vertex="1">
          <mxGeometry x="1911" y="1592" width="141" height="91" as="geometry" />
        </mxCell>
        <mxCell id="II89ZpB64ln66D03jxN8-299" style="shape=tableRow;horizontal=0;startSize=0;swimlaneHead=0;swimlaneBody=0;fillColor=none;collapsible=0;dropTarget=0;points=[[0,0.5],[1,0.5]];portConstraint=eastwest;top=0;left=0;right=0;bottom=0;" parent="II89ZpB64ln66D03jxN8-298" vertex="1">
          <mxGeometry y="25" width="141" height="22" as="geometry" />
        </mxCell>
        <mxCell id="II89ZpB64ln66D03jxN8-300" value="FK" style="shape=partialRectangle;connectable=0;fillColor=none;top=0;left=0;bottom=0;right=0;align=left;spacingLeft=2;overflow=hidden;fontSize=11;fontStyle=1" parent="II89ZpB64ln66D03jxN8-299" vertex="1">
          <mxGeometry width="42" height="22" as="geometry">
            <mxRectangle width="42" height="22" as="alternateBounds" />
          </mxGeometry>
        </mxCell>
        <mxCell id="II89ZpB64ln66D03jxN8-301" value="UserID" style="shape=partialRectangle;connectable=0;fillColor=#f5f5f5;top=0;left=0;bottom=0;right=0;align=left;spacingLeft=2;overflow=hidden;fontSize=11;fontColor=#333333;strokeColor=#666666;" parent="II89ZpB64ln66D03jxN8-299" vertex="1">
          <mxGeometry x="42" width="99" height="22" as="geometry">
            <mxRectangle width="99" height="22" as="alternateBounds" />
          </mxGeometry>
        </mxCell>
        <mxCell id="II89ZpB64ln66D03jxN8-302" style="shape=tableRow;horizontal=0;startSize=0;swimlaneHead=0;swimlaneBody=0;fillColor=none;collapsible=0;dropTarget=0;points=[[0,0.5],[1,0.5]];portConstraint=eastwest;top=0;left=0;right=0;bottom=0;" parent="II89ZpB64ln66D03jxN8-298" vertex="1">
          <mxGeometry y="47" width="141" height="22" as="geometry" />
        </mxCell>
        <mxCell id="II89ZpB64ln66D03jxN8-303" value="" style="shape=partialRectangle;connectable=0;fillColor=none;top=0;left=0;bottom=0;right=0;align=left;spacingLeft=2;overflow=hidden;fontSize=11;" parent="II89ZpB64ln66D03jxN8-302" vertex="1">
          <mxGeometry width="42" height="22" as="geometry">
            <mxRectangle width="42" height="22" as="alternateBounds" />
          </mxGeometry>
        </mxCell>
        <mxCell id="II89ZpB64ln66D03jxN8-304" value="Position" style="shape=partialRectangle;connectable=0;fillColor=#f5f5f5;top=0;left=0;bottom=0;right=0;align=left;spacingLeft=2;overflow=hidden;fontSize=11;fontColor=#333333;strokeColor=#666666;" parent="II89ZpB64ln66D03jxN8-302" vertex="1">
          <mxGeometry x="42" width="99" height="22" as="geometry">
            <mxRectangle width="99" height="22" as="alternateBounds" />
          </mxGeometry>
        </mxCell>
        <mxCell id="II89ZpB64ln66D03jxN8-305" style="shape=tableRow;horizontal=0;startSize=0;swimlaneHead=0;swimlaneBody=0;fillColor=none;collapsible=0;dropTarget=0;points=[[0,0.5],[1,0.5]];portConstraint=eastwest;top=0;left=0;right=0;bottom=0;" parent="II89ZpB64ln66D03jxN8-298" vertex="1">
          <mxGeometry y="69" width="141" height="22" as="geometry" />
        </mxCell>
        <mxCell id="II89ZpB64ln66D03jxN8-306" value="" style="shape=partialRectangle;connectable=0;fillColor=none;top=0;left=0;bottom=0;right=0;align=left;spacingLeft=2;overflow=hidden;fontSize=11;" parent="II89ZpB64ln66D03jxN8-305" vertex="1">
          <mxGeometry width="42" height="22" as="geometry">
            <mxRectangle width="42" height="22" as="alternateBounds" />
          </mxGeometry>
        </mxCell>
        <mxCell id="II89ZpB64ln66D03jxN8-307" value="EmploymentStatus" style="shape=partialRectangle;connectable=0;fillColor=#f5f5f5;top=0;left=0;bottom=0;right=0;align=left;spacingLeft=2;overflow=hidden;fontSize=11;fontColor=#333333;strokeColor=#666666;" parent="II89ZpB64ln66D03jxN8-305" vertex="1">
          <mxGeometry x="42" width="99" height="22" as="geometry">
            <mxRectangle width="99" height="22" as="alternateBounds" />
          </mxGeometry>
        </mxCell>
        <mxCell id="II89ZpB64ln66D03jxN8-308" value="EmployeeSchedule" style="shape=table;startSize=25;container=1;collapsible=0;childLayout=tableLayout;fixedRows=1;rowLines=1;fontStyle=1;align=center;resizeLast=1;fillColor=#dae8fc;strokeColor=#6c8ebf;" parent="1" vertex="1">
          <mxGeometry x="2627" y="1592" width="143" height="156" as="geometry" />
        </mxCell>
        <mxCell id="II89ZpB64ln66D03jxN8-309" style="shape=tableRow;horizontal=0;startSize=0;swimlaneHead=0;swimlaneBody=0;fillColor=none;collapsible=0;dropTarget=0;points=[[0,0.5],[1,0.5]];portConstraint=eastwest;top=0;left=0;right=0;bottom=0;" parent="II89ZpB64ln66D03jxN8-308" vertex="1">
          <mxGeometry y="25" width="143" height="22" as="geometry" />
        </mxCell>
        <mxCell id="II89ZpB64ln66D03jxN8-310" value="PK" style="shape=partialRectangle;connectable=0;fillColor=none;top=0;left=0;bottom=0;right=0;align=left;spacingLeft=2;overflow=hidden;fontSize=11;fontStyle=1" parent="II89ZpB64ln66D03jxN8-309" vertex="1">
          <mxGeometry width="43" height="22" as="geometry">
            <mxRectangle width="43" height="22" as="alternateBounds" />
          </mxGeometry>
        </mxCell>
        <mxCell id="II89ZpB64ln66D03jxN8-311" value="ScheduleID" style="shape=partialRectangle;connectable=0;fillColor=#f5f5f5;top=0;left=0;bottom=0;right=0;align=left;spacingLeft=2;overflow=hidden;fontSize=11;fontStyle=5;fontColor=#333333;strokeColor=#666666;" parent="II89ZpB64ln66D03jxN8-309" vertex="1">
          <mxGeometry x="43" width="100" height="22" as="geometry">
            <mxRectangle width="100" height="22" as="alternateBounds" />
          </mxGeometry>
        </mxCell>
        <mxCell id="II89ZpB64ln66D03jxN8-312" style="shape=tableRow;horizontal=0;startSize=0;swimlaneHead=0;swimlaneBody=0;fillColor=none;collapsible=0;dropTarget=0;points=[[0,0.5],[1,0.5]];portConstraint=eastwest;top=0;left=0;right=0;bottom=0;" parent="II89ZpB64ln66D03jxN8-308" vertex="1">
          <mxGeometry y="47" width="143" height="21" as="geometry" />
        </mxCell>
        <mxCell id="II89ZpB64ln66D03jxN8-313" value="FK" style="shape=partialRectangle;connectable=0;fillColor=none;top=0;left=0;bottom=0;right=0;align=left;spacingLeft=2;overflow=hidden;fontSize=11;fontStyle=1" parent="II89ZpB64ln66D03jxN8-312" vertex="1">
          <mxGeometry width="43" height="21" as="geometry">
            <mxRectangle width="43" height="21" as="alternateBounds" />
          </mxGeometry>
        </mxCell>
        <mxCell id="II89ZpB64ln66D03jxN8-314" value="UserID" style="shape=partialRectangle;connectable=0;fillColor=#f5f5f5;top=0;left=0;bottom=0;right=0;align=left;spacingLeft=2;overflow=hidden;fontSize=11;fontColor=#333333;strokeColor=#666666;" parent="II89ZpB64ln66D03jxN8-312" vertex="1">
          <mxGeometry x="43" width="100" height="21" as="geometry">
            <mxRectangle width="100" height="21" as="alternateBounds" />
          </mxGeometry>
        </mxCell>
        <mxCell id="II89ZpB64ln66D03jxN8-315" style="shape=tableRow;horizontal=0;startSize=0;swimlaneHead=0;swimlaneBody=0;fillColor=none;collapsible=0;dropTarget=0;points=[[0,0.5],[1,0.5]];portConstraint=eastwest;top=0;left=0;right=0;bottom=0;" parent="II89ZpB64ln66D03jxN8-308" vertex="1">
          <mxGeometry y="68" width="143" height="22" as="geometry" />
        </mxCell>
        <mxCell id="II89ZpB64ln66D03jxN8-316" value="" style="shape=partialRectangle;connectable=0;fillColor=none;top=0;left=0;bottom=0;right=0;align=left;spacingLeft=2;overflow=hidden;fontSize=11;" parent="II89ZpB64ln66D03jxN8-315" vertex="1">
          <mxGeometry width="43" height="22" as="geometry">
            <mxRectangle width="43" height="22" as="alternateBounds" />
          </mxGeometry>
        </mxCell>
        <mxCell id="II89ZpB64ln66D03jxN8-317" value="ShiftDate" style="shape=partialRectangle;connectable=0;fillColor=#f5f5f5;top=0;left=0;bottom=0;right=0;align=left;spacingLeft=2;overflow=hidden;fontSize=11;fontColor=#333333;strokeColor=#666666;" parent="II89ZpB64ln66D03jxN8-315" vertex="1">
          <mxGeometry x="43" width="100" height="22" as="geometry">
            <mxRectangle width="100" height="22" as="alternateBounds" />
          </mxGeometry>
        </mxCell>
        <mxCell id="II89ZpB64ln66D03jxN8-318" style="shape=tableRow;horizontal=0;startSize=0;swimlaneHead=0;swimlaneBody=0;fillColor=none;collapsible=0;dropTarget=0;points=[[0,0.5],[1,0.5]];portConstraint=eastwest;top=0;left=0;right=0;bottom=0;" parent="II89ZpB64ln66D03jxN8-308" vertex="1">
          <mxGeometry y="90" width="143" height="22" as="geometry" />
        </mxCell>
        <mxCell id="II89ZpB64ln66D03jxN8-319" value="" style="shape=partialRectangle;connectable=0;fillColor=none;top=0;left=0;bottom=0;right=0;align=left;spacingLeft=2;overflow=hidden;fontSize=11;" parent="II89ZpB64ln66D03jxN8-318" vertex="1">
          <mxGeometry width="43" height="22" as="geometry">
            <mxRectangle width="43" height="22" as="alternateBounds" />
          </mxGeometry>
        </mxCell>
        <mxCell id="II89ZpB64ln66D03jxN8-320" value="StartTime" style="shape=partialRectangle;connectable=0;fillColor=#f5f5f5;top=0;left=0;bottom=0;right=0;align=left;spacingLeft=2;overflow=hidden;fontSize=11;fontColor=#333333;strokeColor=#666666;" parent="II89ZpB64ln66D03jxN8-318" vertex="1">
          <mxGeometry x="43" width="100" height="22" as="geometry">
            <mxRectangle width="100" height="22" as="alternateBounds" />
          </mxGeometry>
        </mxCell>
        <mxCell id="II89ZpB64ln66D03jxN8-321" style="shape=tableRow;horizontal=0;startSize=0;swimlaneHead=0;swimlaneBody=0;fillColor=none;collapsible=0;dropTarget=0;points=[[0,0.5],[1,0.5]];portConstraint=eastwest;top=0;left=0;right=0;bottom=0;" parent="II89ZpB64ln66D03jxN8-308" vertex="1">
          <mxGeometry y="112" width="143" height="22" as="geometry" />
        </mxCell>
        <mxCell id="II89ZpB64ln66D03jxN8-322" value="" style="shape=partialRectangle;connectable=0;fillColor=none;top=0;left=0;bottom=0;right=0;align=left;spacingLeft=2;overflow=hidden;fontSize=11;" parent="II89ZpB64ln66D03jxN8-321" vertex="1">
          <mxGeometry width="43" height="22" as="geometry">
            <mxRectangle width="43" height="22" as="alternateBounds" />
          </mxGeometry>
        </mxCell>
        <mxCell id="II89ZpB64ln66D03jxN8-323" value="EndTime" style="shape=partialRectangle;connectable=0;fillColor=#f5f5f5;top=0;left=0;bottom=0;right=0;align=left;spacingLeft=2;overflow=hidden;fontSize=11;fontColor=#333333;strokeColor=#666666;" parent="II89ZpB64ln66D03jxN8-321" vertex="1">
          <mxGeometry x="43" width="100" height="22" as="geometry">
            <mxRectangle width="100" height="22" as="alternateBounds" />
          </mxGeometry>
        </mxCell>
        <mxCell id="II89ZpB64ln66D03jxN8-324" style="shape=tableRow;horizontal=0;startSize=0;swimlaneHead=0;swimlaneBody=0;fillColor=none;collapsible=0;dropTarget=0;points=[[0,0.5],[1,0.5]];portConstraint=eastwest;top=0;left=0;right=0;bottom=0;" parent="II89ZpB64ln66D03jxN8-308" vertex="1">
          <mxGeometry y="134" width="143" height="22" as="geometry" />
        </mxCell>
        <mxCell id="II89ZpB64ln66D03jxN8-325" value="" style="shape=partialRectangle;connectable=0;fillColor=none;top=0;left=0;bottom=0;right=0;align=left;spacingLeft=2;overflow=hidden;fontSize=11;" parent="II89ZpB64ln66D03jxN8-324" vertex="1">
          <mxGeometry width="43" height="22" as="geometry">
            <mxRectangle width="43" height="22" as="alternateBounds" />
          </mxGeometry>
        </mxCell>
        <mxCell id="II89ZpB64ln66D03jxN8-326" value="ScheduleStatus" style="shape=partialRectangle;connectable=0;fillColor=#f5f5f5;top=0;left=0;bottom=0;right=0;align=left;spacingLeft=2;overflow=hidden;fontSize=11;fontColor=#333333;strokeColor=#666666;" parent="II89ZpB64ln66D03jxN8-324" vertex="1">
          <mxGeometry x="43" width="100" height="22" as="geometry">
            <mxRectangle width="100" height="22" as="alternateBounds" />
          </mxGeometry>
        </mxCell>
        <mxCell id="II89ZpB64ln66D03jxN8-327" value="Shift" style="shape=table;startSize=25;container=1;collapsible=0;childLayout=tableLayout;fixedRows=1;rowLines=1;fontStyle=1;align=center;resizeLast=1;fillColor=#dae8fc;strokeColor=#6c8ebf;" parent="1" vertex="1">
          <mxGeometry x="2570" y="1848" width="132" height="157" as="geometry" />
        </mxCell>
        <mxCell id="II89ZpB64ln66D03jxN8-328" style="shape=tableRow;horizontal=0;startSize=0;swimlaneHead=0;swimlaneBody=0;fillColor=none;collapsible=0;dropTarget=0;points=[[0,0.5],[1,0.5]];portConstraint=eastwest;top=0;left=0;right=0;bottom=0;" parent="II89ZpB64ln66D03jxN8-327" vertex="1">
          <mxGeometry y="25" width="132" height="22" as="geometry" />
        </mxCell>
        <mxCell id="II89ZpB64ln66D03jxN8-329" value="PK" style="shape=partialRectangle;connectable=0;fillColor=none;top=0;left=0;bottom=0;right=0;align=left;spacingLeft=2;overflow=hidden;fontSize=11;fontStyle=1" parent="II89ZpB64ln66D03jxN8-328" vertex="1">
          <mxGeometry width="48" height="22" as="geometry">
            <mxRectangle width="48" height="22" as="alternateBounds" />
          </mxGeometry>
        </mxCell>
        <mxCell id="II89ZpB64ln66D03jxN8-330" value="ShiftID" style="shape=partialRectangle;connectable=0;fillColor=#f5f5f5;top=0;left=0;bottom=0;right=0;align=left;spacingLeft=2;overflow=hidden;fontSize=11;fontStyle=5;fontColor=#333333;strokeColor=#666666;" parent="II89ZpB64ln66D03jxN8-328" vertex="1">
          <mxGeometry x="48" width="84" height="22" as="geometry">
            <mxRectangle width="84" height="22" as="alternateBounds" />
          </mxGeometry>
        </mxCell>
        <mxCell id="II89ZpB64ln66D03jxN8-331" style="shape=tableRow;horizontal=0;startSize=0;swimlaneHead=0;swimlaneBody=0;fillColor=none;collapsible=0;dropTarget=0;points=[[0,0.5],[1,0.5]];portConstraint=eastwest;top=0;left=0;right=0;bottom=0;" parent="II89ZpB64ln66D03jxN8-327" vertex="1">
          <mxGeometry y="47" width="132" height="22" as="geometry" />
        </mxCell>
        <mxCell id="II89ZpB64ln66D03jxN8-332" value="FK" style="shape=partialRectangle;connectable=0;fillColor=none;top=0;left=0;bottom=0;right=0;align=left;spacingLeft=2;overflow=hidden;fontSize=11;fontStyle=1" parent="II89ZpB64ln66D03jxN8-331" vertex="1">
          <mxGeometry width="48" height="22" as="geometry">
            <mxRectangle width="48" height="22" as="alternateBounds" />
          </mxGeometry>
        </mxCell>
        <mxCell id="II89ZpB64ln66D03jxN8-333" value="ScheduleID" style="shape=partialRectangle;connectable=0;fillColor=#f5f5f5;top=0;left=0;bottom=0;right=0;align=left;spacingLeft=2;overflow=hidden;fontSize=11;fontColor=#333333;strokeColor=#666666;" parent="II89ZpB64ln66D03jxN8-331" vertex="1">
          <mxGeometry x="48" width="84" height="22" as="geometry">
            <mxRectangle width="84" height="22" as="alternateBounds" />
          </mxGeometry>
        </mxCell>
        <mxCell id="II89ZpB64ln66D03jxN8-334" style="shape=tableRow;horizontal=0;startSize=0;swimlaneHead=0;swimlaneBody=0;fillColor=none;collapsible=0;dropTarget=0;points=[[0,0.5],[1,0.5]];portConstraint=eastwest;top=0;left=0;right=0;bottom=0;" parent="II89ZpB64ln66D03jxN8-327" vertex="1">
          <mxGeometry y="69" width="132" height="22" as="geometry" />
        </mxCell>
        <mxCell id="II89ZpB64ln66D03jxN8-335" value="" style="shape=partialRectangle;connectable=0;fillColor=none;top=0;left=0;bottom=0;right=0;align=left;spacingLeft=2;overflow=hidden;fontSize=11;" parent="II89ZpB64ln66D03jxN8-334" vertex="1">
          <mxGeometry width="48" height="22" as="geometry">
            <mxRectangle width="48" height="22" as="alternateBounds" />
          </mxGeometry>
        </mxCell>
        <mxCell id="II89ZpB64ln66D03jxN8-336" value="ShiftType" style="shape=partialRectangle;connectable=0;fillColor=#f5f5f5;top=0;left=0;bottom=0;right=0;align=left;spacingLeft=2;overflow=hidden;fontSize=11;fontColor=#333333;strokeColor=#666666;" parent="II89ZpB64ln66D03jxN8-334" vertex="1">
          <mxGeometry x="48" width="84" height="22" as="geometry">
            <mxRectangle width="84" height="22" as="alternateBounds" />
          </mxGeometry>
        </mxCell>
        <mxCell id="II89ZpB64ln66D03jxN8-337" style="shape=tableRow;horizontal=0;startSize=0;swimlaneHead=0;swimlaneBody=0;fillColor=none;collapsible=0;dropTarget=0;points=[[0,0.5],[1,0.5]];portConstraint=eastwest;top=0;left=0;right=0;bottom=0;" parent="II89ZpB64ln66D03jxN8-327" vertex="1">
          <mxGeometry y="91" width="132" height="22" as="geometry" />
        </mxCell>
        <mxCell id="II89ZpB64ln66D03jxN8-338" value="" style="shape=partialRectangle;connectable=0;fillColor=none;top=0;left=0;bottom=0;right=0;align=left;spacingLeft=2;overflow=hidden;fontSize=11;" parent="II89ZpB64ln66D03jxN8-337" vertex="1">
          <mxGeometry width="48" height="22" as="geometry">
            <mxRectangle width="48" height="22" as="alternateBounds" />
          </mxGeometry>
        </mxCell>
        <mxCell id="II89ZpB64ln66D03jxN8-339" value="ShiftStartTime" style="shape=partialRectangle;connectable=0;fillColor=#f5f5f5;top=0;left=0;bottom=0;right=0;align=left;spacingLeft=2;overflow=hidden;fontSize=11;fontColor=#333333;strokeColor=#666666;" parent="II89ZpB64ln66D03jxN8-337" vertex="1">
          <mxGeometry x="48" width="84" height="22" as="geometry">
            <mxRectangle width="84" height="22" as="alternateBounds" />
          </mxGeometry>
        </mxCell>
        <mxCell id="II89ZpB64ln66D03jxN8-340" style="shape=tableRow;horizontal=0;startSize=0;swimlaneHead=0;swimlaneBody=0;fillColor=none;collapsible=0;dropTarget=0;points=[[0,0.5],[1,0.5]];portConstraint=eastwest;top=0;left=0;right=0;bottom=0;" parent="II89ZpB64ln66D03jxN8-327" vertex="1">
          <mxGeometry y="113" width="132" height="22" as="geometry" />
        </mxCell>
        <mxCell id="II89ZpB64ln66D03jxN8-341" value="" style="shape=partialRectangle;connectable=0;fillColor=none;top=0;left=0;bottom=0;right=0;align=left;spacingLeft=2;overflow=hidden;fontSize=11;" parent="II89ZpB64ln66D03jxN8-340" vertex="1">
          <mxGeometry width="48" height="22" as="geometry">
            <mxRectangle width="48" height="22" as="alternateBounds" />
          </mxGeometry>
        </mxCell>
        <mxCell id="II89ZpB64ln66D03jxN8-342" value="ShiftEndTime" style="shape=partialRectangle;connectable=0;fillColor=#f5f5f5;top=0;left=0;bottom=0;right=0;align=left;spacingLeft=2;overflow=hidden;fontSize=11;fontColor=#333333;strokeColor=#666666;" parent="II89ZpB64ln66D03jxN8-340" vertex="1">
          <mxGeometry x="48" width="84" height="22" as="geometry">
            <mxRectangle width="84" height="22" as="alternateBounds" />
          </mxGeometry>
        </mxCell>
        <mxCell id="II89ZpB64ln66D03jxN8-343" style="shape=tableRow;horizontal=0;startSize=0;swimlaneHead=0;swimlaneBody=0;fillColor=none;collapsible=0;dropTarget=0;points=[[0,0.5],[1,0.5]];portConstraint=eastwest;top=0;left=0;right=0;bottom=0;" parent="II89ZpB64ln66D03jxN8-327" vertex="1">
          <mxGeometry y="135" width="132" height="22" as="geometry" />
        </mxCell>
        <mxCell id="II89ZpB64ln66D03jxN8-344" value="" style="shape=partialRectangle;connectable=0;fillColor=none;top=0;left=0;bottom=0;right=0;align=left;spacingLeft=2;overflow=hidden;fontSize=11;" parent="II89ZpB64ln66D03jxN8-343" vertex="1">
          <mxGeometry width="48" height="22" as="geometry">
            <mxRectangle width="48" height="22" as="alternateBounds" />
          </mxGeometry>
        </mxCell>
        <mxCell id="II89ZpB64ln66D03jxN8-345" value="ShiftStatus" style="shape=partialRectangle;connectable=0;fillColor=#f5f5f5;top=0;left=0;bottom=0;right=0;align=left;spacingLeft=2;overflow=hidden;fontSize=11;fontColor=#333333;strokeColor=#666666;" parent="II89ZpB64ln66D03jxN8-343" vertex="1">
          <mxGeometry x="48" width="84" height="22" as="geometry">
            <mxRectangle width="84" height="22" as="alternateBounds" />
          </mxGeometry>
        </mxCell>
        <mxCell id="II89ZpB64ln66D03jxN8-346" value="Cashier" style="shape=table;startSize=25;container=1;collapsible=0;childLayout=tableLayout;fixedRows=1;rowLines=1;fontStyle=1;align=center;resizeLast=1;fillColor=#dae8fc;strokeColor=#6c8ebf;" parent="1" vertex="1">
          <mxGeometry x="1760" y="1881" width="129" height="91" as="geometry" />
        </mxCell>
        <mxCell id="II89ZpB64ln66D03jxN8-347" style="shape=tableRow;horizontal=0;startSize=0;swimlaneHead=0;swimlaneBody=0;fillColor=none;collapsible=0;dropTarget=0;points=[[0,0.5],[1,0.5]];portConstraint=eastwest;top=0;left=0;right=0;bottom=0;" parent="II89ZpB64ln66D03jxN8-346" vertex="1">
          <mxGeometry y="25" width="129" height="22" as="geometry" />
        </mxCell>
        <mxCell id="II89ZpB64ln66D03jxN8-348" value="FK" style="shape=partialRectangle;connectable=0;fillColor=none;top=0;left=0;bottom=0;right=0;align=left;spacingLeft=2;overflow=hidden;fontSize=11;fontStyle=1" parent="II89ZpB64ln66D03jxN8-347" vertex="1">
          <mxGeometry width="42" height="22" as="geometry">
            <mxRectangle width="42" height="22" as="alternateBounds" />
          </mxGeometry>
        </mxCell>
        <mxCell id="II89ZpB64ln66D03jxN8-349" value="UserID" style="shape=partialRectangle;connectable=0;fillColor=#f5f5f5;top=0;left=0;bottom=0;right=0;align=left;spacingLeft=2;overflow=hidden;fontSize=11;fontColor=#333333;strokeColor=#666666;" parent="II89ZpB64ln66D03jxN8-347" vertex="1">
          <mxGeometry x="42" width="87" height="22" as="geometry">
            <mxRectangle width="87" height="22" as="alternateBounds" />
          </mxGeometry>
        </mxCell>
        <mxCell id="II89ZpB64ln66D03jxN8-350" style="shape=tableRow;horizontal=0;startSize=0;swimlaneHead=0;swimlaneBody=0;fillColor=none;collapsible=0;dropTarget=0;points=[[0,0.5],[1,0.5]];portConstraint=eastwest;top=0;left=0;right=0;bottom=0;" parent="II89ZpB64ln66D03jxN8-346" vertex="1">
          <mxGeometry y="47" width="129" height="22" as="geometry" />
        </mxCell>
        <mxCell id="II89ZpB64ln66D03jxN8-351" value="" style="shape=partialRectangle;connectable=0;fillColor=none;top=0;left=0;bottom=0;right=0;align=left;spacingLeft=2;overflow=hidden;fontSize=11;" parent="II89ZpB64ln66D03jxN8-350" vertex="1">
          <mxGeometry width="42" height="22" as="geometry">
            <mxRectangle width="42" height="22" as="alternateBounds" />
          </mxGeometry>
        </mxCell>
        <mxCell id="II89ZpB64ln66D03jxN8-352" value="RegisterNumber" style="shape=partialRectangle;connectable=0;fillColor=#f5f5f5;top=0;left=0;bottom=0;right=0;align=left;spacingLeft=2;overflow=hidden;fontSize=11;fontColor=#333333;strokeColor=#666666;" parent="II89ZpB64ln66D03jxN8-350" vertex="1">
          <mxGeometry x="42" width="87" height="22" as="geometry">
            <mxRectangle width="87" height="22" as="alternateBounds" />
          </mxGeometry>
        </mxCell>
        <mxCell id="II89ZpB64ln66D03jxN8-353" style="shape=tableRow;horizontal=0;startSize=0;swimlaneHead=0;swimlaneBody=0;fillColor=none;collapsible=0;dropTarget=0;points=[[0,0.5],[1,0.5]];portConstraint=eastwest;top=0;left=0;right=0;bottom=0;" parent="II89ZpB64ln66D03jxN8-346" vertex="1">
          <mxGeometry y="69" width="129" height="22" as="geometry" />
        </mxCell>
        <mxCell id="II89ZpB64ln66D03jxN8-354" value="" style="shape=partialRectangle;connectable=0;fillColor=none;top=0;left=0;bottom=0;right=0;align=left;spacingLeft=2;overflow=hidden;fontSize=11;" parent="II89ZpB64ln66D03jxN8-353" vertex="1">
          <mxGeometry width="42" height="22" as="geometry">
            <mxRectangle width="42" height="22" as="alternateBounds" />
          </mxGeometry>
        </mxCell>
        <mxCell id="II89ZpB64ln66D03jxN8-355" value="ShiftType" style="shape=partialRectangle;connectable=0;fillColor=#f5f5f5;top=0;left=0;bottom=0;right=0;align=left;spacingLeft=2;overflow=hidden;fontSize=11;fontColor=#333333;strokeColor=#666666;" parent="II89ZpB64ln66D03jxN8-353" vertex="1">
          <mxGeometry x="42" width="87" height="22" as="geometry">
            <mxRectangle width="87" height="22" as="alternateBounds" />
          </mxGeometry>
        </mxCell>
        <mxCell id="II89ZpB64ln66D03jxN8-366" value="includes" style="curved=0;startArrow=ERmandOne;startSize=10;;endArrow=ERmany;endSize=10;;exitX=0.176;exitY=-0.007;entryX=0.20351785720221696;entryY=0.0012820806258764022;rounded=0;exitDx=0;exitDy=0;exitPerimeter=0;" parent="1" source="II89ZpB64ln66D03jxN8-34" target="II89ZpB64ln66D03jxN8-56" edge="1">
          <mxGeometry relative="1" as="geometry">
            <Array as="points">
              <mxPoint x="1850" y="330" />
              <mxPoint x="727" y="330" />
            </Array>
          </mxGeometry>
        </mxCell>
        <mxCell id="II89ZpB64ln66D03jxN8-367" value="triggers" style="curved=0;startArrow=ERmandOne;startSize=10;;endArrow=ERmany;endSize=10;;exitX=0.009;exitY=-0.017;entryX=0.994;entryY=0.08;rounded=0;exitDx=0;exitDy=0;exitPerimeter=0;entryDx=0;entryDy=0;entryPerimeter=0;" parent="1" source="II89ZpB64ln66D03jxN8-41" target="II89ZpB64ln66D03jxN8-82" edge="1">
          <mxGeometry relative="1" as="geometry">
            <Array as="points">
              <mxPoint x="1520" y="640" />
              <mxPoint x="1520" y="920" />
            </Array>
          </mxGeometry>
        </mxCell>
        <mxCell id="II89ZpB64ln66D03jxN8-368" value="is paid with" style="curved=0;startArrow=ERmandOne;startSize=10;;endArrow=ERmany;endSize=10;;exitX=0.0029054121537642045;exitY=0.6634579093542702;entryX=0.00007184346516927083;entryY=0.38274401737956437;rounded=0;" parent="1" source="II89ZpB64ln66D03jxN8-34" target="II89ZpB64ln66D03jxN8-116" edge="1">
          <mxGeometry relative="1" as="geometry">
            <Array as="points">
              <mxPoint x="1700" y="690" />
              <mxPoint x="1700" y="1830" />
            </Array>
          </mxGeometry>
        </mxCell>
        <mxCell id="II89ZpB64ln66D03jxN8-369" value="receives" style="curved=0;startArrow=ERmandOne;startSize=10;;endArrow=ERmany;endSize=10;;exitX=0.0029054121537642045;exitY=0.5382586230205011;entryX=0.14961858849437493;entryY=9.781275040064102e-8;rounded=0;" parent="1" source="II89ZpB64ln66D03jxN8-34" target="II89ZpB64ln66D03jxN8-135" edge="1">
          <mxGeometry relative="1" as="geometry">
            <Array as="points">
              <mxPoint x="1600" y="666" />
              <mxPoint x="1600" y="810" />
              <mxPoint x="640" y="790" />
            </Array>
          </mxGeometry>
        </mxCell>
        <mxCell id="II89ZpB64ln66D03jxN8-370" value="is placed by" style="curved=0;startArrow=ERmandOne;startSize=10;;endArrow=ERmany;endSize=10;;exitX=0;exitY=0.5;entryX=0.18552240370007098;entryY=-0.0009999465942382812;rounded=0;exitDx=0;exitDy=0;" parent="1" source="II89ZpB64ln66D03jxN8-35" target="II89ZpB64ln66D03jxN8-154" edge="1">
          <mxGeometry relative="1" as="geometry">
            <Array as="points">
              <mxPoint x="1511" y="610" />
            </Array>
          </mxGeometry>
        </mxCell>
        <mxCell id="II89ZpB64ln66D03jxN8-371" value="contains" style="curved=1;startArrow=ERmandOne;startSize=10;;endArrow=ERmany;endSize=10;;exitX=0.549;exitY=1.048;entryX=0.3;entryY=-0.015;rounded=0;entryDx=0;entryDy=0;entryPerimeter=0;exitDx=0;exitDy=0;exitPerimeter=0;" parent="1" source="II89ZpB64ln66D03jxN8-186" target="3FMIBUW514Lr_5vxj_tx-5" edge="1">
          <mxGeometry relative="1" as="geometry">
            <Array as="points" />
            <mxPoint x="1280.8760000000002" y="608.817" as="targetPoint" />
          </mxGeometry>
        </mxCell>
        <mxCell id="II89ZpB64ln66D03jxN8-372" value="is part of" style="curved=0;startArrow=ERmandOne;startSize=10;;endArrow=ERmany;endSize=10;;exitX=-0.011;exitY=-0.071;entryX=1.011;entryY=0.182;rounded=0;entryDx=0;entryDy=0;entryPerimeter=0;exitDx=0;exitDy=0;exitPerimeter=0;" parent="1" source="3FMIBUW514Lr_5vxj_tx-12" target="II89ZpB64ln66D03jxN8-66" edge="1">
          <mxGeometry relative="1" as="geometry">
            <Array as="points" />
            <mxPoint x="1225.07" y="666.5919999999996" as="sourcePoint" />
          </mxGeometry>
        </mxCell>
        <mxCell id="II89ZpB64ln66D03jxN8-373" value="can have" style="curved=0;startArrow=ERmandOne;startSize=10;;endArrow=ERmany;endSize=10;;rounded=0;exitX=0.5;exitY=0;exitDx=0;exitDy=0;entryX=0.654;entryY=1.055;entryDx=0;entryDy=0;entryPerimeter=0;" parent="1" source="II89ZpB64ln66D03jxN8-97" target="II89ZpB64ln66D03jxN8-72" edge="1">
          <mxGeometry relative="1" as="geometry">
            <Array as="points">
              <mxPoint x="2035" y="790" />
              <mxPoint x="776" y="790" />
            </Array>
            <mxPoint x="1700" y="870" as="sourcePoint" />
          </mxGeometry>
        </mxCell>
        <mxCell id="II89ZpB64ln66D03jxN8-374" value="is included in" style="curved=0;startArrow=ERmandOne;startSize=10;;endArrow=ERmany;endSize=10;;exitX=1.017;exitY=0.739;entryX=0.009;entryY=-0.13;rounded=0;exitDx=0;exitDy=0;entryDx=0;entryDy=0;entryPerimeter=0;exitPerimeter=0;" parent="1" source="II89ZpB64ln66D03jxN8-221" target="II89ZpB64ln66D03jxN8-66" edge="1">
          <mxGeometry relative="1" as="geometry">
            <Array as="points" />
          </mxGeometry>
        </mxCell>
        <mxCell id="II89ZpB64ln66D03jxN8-375" value="places" style="curved=0;startArrow=ERmandOne;startSize=10;;endArrow=ERmany;endSize=10;;exitX=0;exitY=0.5;entryX=0.653;entryY=0.014;rounded=0;entryDx=0;entryDy=0;entryPerimeter=0;exitDx=0;exitDy=0;" parent="1" source="II89ZpB64ln66D03jxN8-241" target="II89ZpB64ln66D03jxN8-34" edge="1">
          <mxGeometry relative="1" as="geometry">
            <Array as="points">
              <mxPoint x="550" y="1440" />
              <mxPoint x="550" y="300" />
              <mxPoint x="1910" y="300" />
            </Array>
          </mxGeometry>
        </mxCell>
        <mxCell id="II89ZpB64ln66D03jxN8-376" value="provides" style="curved=0;startArrow=ERmandOne;startSize=10;;endArrow=ERmany;endSize=10;;entryX=0.9460174344227341;entryY=9.781275040064102e-8;rounded=0;exitX=0.005;exitY=0.751;exitDx=0;exitDy=0;exitPerimeter=0;" parent="1" source="II89ZpB64ln66D03jxN8-244" target="II89ZpB64ln66D03jxN8-135" edge="1">
          <mxGeometry relative="1" as="geometry">
            <Array as="points">
              <mxPoint x="763" y="1463" />
            </Array>
            <mxPoint x="810" y="1470" as="sourcePoint" />
          </mxGeometry>
        </mxCell>
        <mxCell id="II89ZpB64ln66D03jxN8-377" value="receives" style="curved=0;startArrow=ERmandOne;startSize=10;;endArrow=ERmany;endSize=10;;exitX=1;exitY=0.5;entryX=-0.0012789125795717592;entryY=0.6190552340272166;rounded=0;exitDx=0;exitDy=0;" parent="1" source="II89ZpB64ln66D03jxN8-241" target="II89ZpB64ln66D03jxN8-75" edge="1">
          <mxGeometry relative="1" as="geometry">
            <Array as="points">
              <mxPoint x="980" y="1438" />
              <mxPoint x="970" y="958" />
            </Array>
          </mxGeometry>
        </mxCell>
        <mxCell id="II89ZpB64ln66D03jxN8-378" value="has" style="curved=0;startArrow=ERmandOne;startSize=10;;endArrow=ERmany;endSize=10;;exitX=0.497766034356479;exitY=1.0000001695421008;entryX=-0.002329587936401367;entryY=0.4703740725469116;rounded=0;" parent="1" source="II89ZpB64ln66D03jxN8-240" target="II89ZpB64ln66D03jxN8-250" edge="1">
          <mxGeometry relative="1" as="geometry">
            <Array as="points">
              <mxPoint x="880" y="2170" />
            </Array>
          </mxGeometry>
        </mxCell>
        <mxCell id="II89ZpB64ln66D03jxN8-379" value="is generated by" style="curved=0;startArrow=ERmandOne;startSize=10;;endArrow=ERmany;endSize=10;;exitX=0.0002605196029420883;exitY=0.8027318812887769;entryX=-0.003501952640593998;entryY=0.22431498271547679;rounded=0;" parent="1" source="II89ZpB64ln66D03jxN8-269" target="II89ZpB64ln66D03jxN8-282" edge="1">
          <mxGeometry relative="1" as="geometry">
            <Array as="points">
              <mxPoint x="1275" y="1828" />
              <mxPoint x="1275" y="1972" />
            </Array>
          </mxGeometry>
        </mxCell>
        <mxCell id="II89ZpB64ln66D03jxN8-381" value="has" style="curved=0;startArrow=ERmandOne;startSize=10;;endArrow=ERmany;endSize=10;;exitX=1.01;exitY=-0.035;entryX=0.005;entryY=0.126;rounded=0;entryDx=0;entryDy=0;entryPerimeter=0;exitDx=0;exitDy=0;exitPerimeter=0;" parent="1" source="II89ZpB64ln66D03jxN8-305" target="II89ZpB64ln66D03jxN8-315" edge="1">
          <mxGeometry relative="1" as="geometry">
            <Array as="points" />
          </mxGeometry>
        </mxCell>
        <mxCell id="II89ZpB64ln66D03jxN8-382" value="works" style="curved=0;startArrow=ERmandOne;startSize=10;;endArrow=ERmany;endSize=10;;exitX=0.303;exitY=1.03;entryX=0.079;entryY=-0.002;rounded=0;entryDx=0;entryDy=0;entryPerimeter=0;exitDx=0;exitDy=0;exitPerimeter=0;" parent="1" source="II89ZpB64ln66D03jxN8-305" target="II89ZpB64ln66D03jxN8-327" edge="1">
          <mxGeometry relative="1" as="geometry">
            <Array as="points">
              <mxPoint x="1954" y="1740" />
              <mxPoint x="2580" y="1750" />
            </Array>
          </mxGeometry>
        </mxCell>
        <mxCell id="II89ZpB64ln66D03jxN8-383" value="has" style="curved=0;startArrow=ERmandOne;startSize=10;;endArrow=ERmany;endSize=10;;exitX=1;exitY=0.5;entryX=0.047799252709173366;entryY=0.0012822273450020032;rounded=0;exitDx=0;exitDy=0;" parent="1" source="II89ZpB64ln66D03jxN8-299" target="II89ZpB64ln66D03jxN8-250" edge="1">
          <mxGeometry relative="1" as="geometry">
            <Array as="points">
              <mxPoint x="2437" y="1630" />
            </Array>
          </mxGeometry>
        </mxCell>
        <mxCell id="II89ZpB64ln66D03jxN8-384" value="handles" style="curved=0;startArrow=ERmandOne;startSize=10;;endArrow=ERmany;endSize=10;;exitX=0.997;exitY=0.174;entryX=-0.004;entryY=0.136;rounded=0;entryDx=0;entryDy=0;exitDx=0;exitDy=0;exitPerimeter=0;entryPerimeter=0;" parent="1" source="II89ZpB64ln66D03jxN8-346" target="II89ZpB64ln66D03jxN8-129" edge="1">
          <mxGeometry relative="1" as="geometry">
            <Array as="points" />
          </mxGeometry>
        </mxCell>
        <mxCell id="II89ZpB64ln66D03jxN8-385" value="processes" style="curved=0;startArrow=ERmandOne;startSize=10;;endArrow=ERmany;endSize=10;;entryX=0.2368844343489133;entryY=0.9955056436945883;rounded=0;exitX=0.75;exitY=0;exitDx=0;exitDy=0;" parent="1" source="II89ZpB64ln66D03jxN8-346" target="II89ZpB64ln66D03jxN8-34" edge="1">
          <mxGeometry relative="1" as="geometry">
            <Array as="points" />
          </mxGeometry>
        </mxCell>
        <mxCell id="II89ZpB64ln66D03jxN8-387" value="relates to" style="curved=0;startArrow=ERmandOne;startSize=10;;endArrow=ERmany;endSize=10;;exitX=0.9981749852498373;exitY=0.16323028380007068;entryX=1.00214676029426;entryY=0.6143183206862914;rounded=0;" parent="1" source="II89ZpB64ln66D03jxN8-116" target="II89ZpB64ln66D03jxN8-34" edge="1">
          <mxGeometry relative="1" as="geometry">
            <Array as="points">
              <mxPoint x="2290" y="1805" />
              <mxPoint x="2300" y="680" />
            </Array>
          </mxGeometry>
        </mxCell>
        <mxCell id="II89ZpB64ln66D03jxN8-388" value="is given by" style="curved=0;startArrow=ERmandOne;startSize=10;;endArrow=ERmany;endSize=10;;exitX=0.9675450972568842;exitY=0.21089285827000098;entryX=0;entryY=0.5;rounded=0;entryDx=0;entryDy=0;" parent="1" source="II89ZpB64ln66D03jxN8-135" target="II89ZpB64ln66D03jxN8-173" edge="1">
          <mxGeometry relative="1" as="geometry">
            <Array as="points">
              <mxPoint x="1100" y="1620" />
              <mxPoint x="1100" y="1498" />
            </Array>
          </mxGeometry>
        </mxCell>
        <mxCell id="II89ZpB64ln66D03jxN8-389" value="includes" style="curved=0;startArrow=ERmandOne;startSize=10;;endArrow=ERmany;endSize=10;;exitX=-0.024;exitY=0.069;rounded=0;exitDx=0;exitDy=0;exitPerimeter=0;entryX=0.73;entryY=0.957;entryDx=0;entryDy=0;entryPerimeter=0;" parent="1" source="II89ZpB64ln66D03jxN8-237" target="3FMIBUW514Lr_5vxj_tx-1" edge="1">
          <mxGeometry relative="1" as="geometry">
            <Array as="points">
              <mxPoint x="419" y="962" />
            </Array>
            <mxPoint x="420" y="710" as="targetPoint" />
          </mxGeometry>
        </mxCell>
        <mxCell id="II89ZpB64ln66D03jxN8-390" value="contains" style="curved=0;startArrow=ERmandOne;startSize=10;;endArrow=ERmany;endSize=10;;exitX=0.464;exitY=1.001;entryX=0.922;entryY=0.01;rounded=0;entryDx=0;entryDy=0;entryPerimeter=0;exitDx=0;exitDy=0;exitPerimeter=0;" parent="1" source="II89ZpB64ln66D03jxN8-324" target="II89ZpB64ln66D03jxN8-327" edge="1">
          <mxGeometry relative="1" as="geometry">
            <Array as="points" />
          </mxGeometry>
        </mxCell>
        <mxCell id="II89ZpB64ln66D03jxN8-391" value="is recorded in" style="curved=0;startArrow=ERmandOne;startSize=10;;endArrow=ERmany;endSize=10;;exitX=0.48731127652254974;exitY=0.9948719709347456;entryX=0.9953368769751655;entryY=0.05697068084875868;rounded=0;" parent="1" source="II89ZpB64ln66D03jxN8-327" target="II89ZpB64ln66D03jxN8-250" edge="1">
          <mxGeometry relative="1" as="geometry">
            <Array as="points">
              <mxPoint x="2634" y="2110" />
            </Array>
          </mxGeometry>
        </mxCell>
        <mxCell id="II89ZpB64ln66D03jxN8-392" value="is applied to" style="curved=0;startArrow=ERmandOne;startSize=10;;endArrow=ERmany;endSize=10;;exitX=0.906;exitY=-0.011;entryX=1.003;entryY=-0.062;rounded=0;entryDx=0;entryDy=0;entryPerimeter=0;exitDx=0;exitDy=0;exitPerimeter=0;" parent="1" source="II89ZpB64ln66D03jxN8-97" target="II89ZpB64ln66D03jxN8-50" edge="1">
          <mxGeometry relative="1" as="geometry">
            <Array as="points">
              <mxPoint x="2100" y="704" />
            </Array>
          </mxGeometry>
        </mxCell>
        <mxCell id="II89ZpB64ln66D03jxN8-393" value="is used in" style="curved=0;startArrow=ERmandOne;startSize=10;;endArrow=ERmany;endSize=10;;exitX=0.719;exitY=0.973;entryX=0.12972857507109048;entryY=9.781275040064102e-8;rounded=0;exitDx=0;exitDy=0;exitPerimeter=0;" parent="1" source="II89ZpB64ln66D03jxN8-113" target="II89ZpB64ln66D03jxN8-116" edge="1">
          <mxGeometry relative="1" as="geometry">
            <Array as="points" />
          </mxGeometry>
        </mxCell>
        <mxCell id="II89ZpB64ln66D03jxN8-394" value="is sent to" style="curved=0;startArrow=ERmandOne;startSize=10;;endArrow=ERmany;endSize=10;;exitX=0.9420539008246528;exitY=0.7134199142594935;entryX=0.8345129801623291;entryY=-0.0009999465942382812;rounded=0;" parent="1" source="II89ZpB64ln66D03jxN8-75" target="II89ZpB64ln66D03jxN8-154" edge="1">
          <mxGeometry relative="1" as="geometry">
            <Array as="points">
              <mxPoint x="1590" y="980" />
            </Array>
          </mxGeometry>
        </mxCell>
        <mxCell id="II89ZpB64ln66D03jxN8-396" value="is a" style="curved=0;startArrow=ERmandOne;startSize=10;;endArrow=ERmany;endSize=10;;exitX=0.995271110534668;exitY=0.5357421126852774;entryX=0.558;entryY=0.017;rounded=0;entryDx=0;entryDy=0;entryPerimeter=0;" parent="1" source="II89ZpB64ln66D03jxN8-154" target="II89ZpB64ln66D03jxN8-298" edge="1">
          <mxGeometry relative="1" as="geometry">
            <Array as="points">
              <mxPoint x="1650" y="1438" />
              <mxPoint x="1650" y="1211" />
              <mxPoint x="2610" y="1211" />
              <mxPoint x="2610" y="1550" />
              <mxPoint x="1990" y="1550" />
            </Array>
          </mxGeometry>
        </mxCell>
        <mxCell id="II89ZpB64ln66D03jxN8-420" value="OrderConfirmation" style="shape=table;startSize=25;container=1;collapsible=0;childLayout=tableLayout;fixedRows=1;rowLines=1;fontStyle=1;align=center;resizeLast=1;fillColor=#dae8fc;strokeColor=#6c8ebf;" parent="1" vertex="1">
          <mxGeometry x="822" y="1180" width="150" height="68" as="geometry" />
        </mxCell>
        <mxCell id="II89ZpB64ln66D03jxN8-421" style="shape=tableRow;horizontal=0;startSize=0;swimlaneHead=0;swimlaneBody=0;fillColor=none;collapsible=0;dropTarget=0;points=[[0,0.5],[1,0.5]];portConstraint=eastwest;top=0;left=0;right=0;bottom=0;" parent="II89ZpB64ln66D03jxN8-420" vertex="1">
          <mxGeometry y="25" width="150" height="21" as="geometry" />
        </mxCell>
        <mxCell id="II89ZpB64ln66D03jxN8-422" value="FK" style="shape=partialRectangle;connectable=0;fillColor=none;top=0;left=0;bottom=0;right=0;align=left;spacingLeft=2;overflow=hidden;fontSize=11;fontStyle=1" parent="II89ZpB64ln66D03jxN8-421" vertex="1">
          <mxGeometry width="36" height="21" as="geometry">
            <mxRectangle width="36" height="21" as="alternateBounds" />
          </mxGeometry>
        </mxCell>
        <mxCell id="II89ZpB64ln66D03jxN8-423" value="NotificationID" style="shape=partialRectangle;connectable=0;fillColor=#f5f5f5;top=0;left=0;bottom=0;right=0;align=left;spacingLeft=2;overflow=hidden;fontSize=11;fontColor=#333333;strokeColor=#666666;" parent="II89ZpB64ln66D03jxN8-421" vertex="1">
          <mxGeometry x="36" width="114" height="21" as="geometry">
            <mxRectangle width="114" height="21" as="alternateBounds" />
          </mxGeometry>
        </mxCell>
        <mxCell id="II89ZpB64ln66D03jxN8-424" style="shape=tableRow;horizontal=0;startSize=0;swimlaneHead=0;swimlaneBody=0;fillColor=none;collapsible=0;dropTarget=0;points=[[0,0.5],[1,0.5]];portConstraint=eastwest;top=0;left=0;right=0;bottom=0;" parent="II89ZpB64ln66D03jxN8-420" vertex="1">
          <mxGeometry y="46" width="150" height="21" as="geometry" />
        </mxCell>
        <mxCell id="II89ZpB64ln66D03jxN8-425" value="" style="shape=partialRectangle;connectable=0;fillColor=none;top=0;left=0;bottom=0;right=0;align=left;spacingLeft=2;overflow=hidden;fontSize=11;" parent="II89ZpB64ln66D03jxN8-424" vertex="1">
          <mxGeometry width="36" height="21" as="geometry">
            <mxRectangle width="36" height="21" as="alternateBounds" />
          </mxGeometry>
        </mxCell>
        <mxCell id="II89ZpB64ln66D03jxN8-426" value="ConfirmationDetails" style="shape=partialRectangle;connectable=0;fillColor=#f5f5f5;top=0;left=0;bottom=0;right=0;align=left;spacingLeft=2;overflow=hidden;fontSize=11;fontColor=#333333;strokeColor=#666666;" parent="II89ZpB64ln66D03jxN8-424" vertex="1">
          <mxGeometry x="36" width="114" height="21" as="geometry">
            <mxRectangle width="114" height="21" as="alternateBounds" />
          </mxGeometry>
        </mxCell>
        <mxCell id="II89ZpB64ln66D03jxN8-427" value="ShipmentUpdate" style="shape=table;startSize=25;container=1;collapsible=0;childLayout=tableLayout;fixedRows=1;rowLines=1;fontStyle=1;align=center;resizeLast=1;fillColor=#dae8fc;strokeColor=#6c8ebf;" parent="1" vertex="1">
          <mxGeometry x="1108" y="1180" width="120" height="68" as="geometry" />
        </mxCell>
        <mxCell id="II89ZpB64ln66D03jxN8-428" style="shape=tableRow;horizontal=0;startSize=0;swimlaneHead=0;swimlaneBody=0;fillColor=none;collapsible=0;dropTarget=0;points=[[0,0.5],[1,0.5]];portConstraint=eastwest;top=0;left=0;right=0;bottom=0;" parent="II89ZpB64ln66D03jxN8-427" vertex="1">
          <mxGeometry y="25" width="120" height="21" as="geometry" />
        </mxCell>
        <mxCell id="II89ZpB64ln66D03jxN8-429" value="FK" style="shape=partialRectangle;connectable=0;fillColor=none;top=0;left=0;bottom=0;right=0;align=left;spacingLeft=2;overflow=hidden;fontSize=11;fontStyle=1" parent="II89ZpB64ln66D03jxN8-428" vertex="1">
          <mxGeometry width="36" height="21" as="geometry">
            <mxRectangle width="36" height="21" as="alternateBounds" />
          </mxGeometry>
        </mxCell>
        <mxCell id="II89ZpB64ln66D03jxN8-430" value="NotificationID" style="shape=partialRectangle;connectable=0;fillColor=#f5f5f5;top=0;left=0;bottom=0;right=0;align=left;spacingLeft=2;overflow=hidden;fontSize=11;fontColor=#333333;strokeColor=#666666;" parent="II89ZpB64ln66D03jxN8-428" vertex="1">
          <mxGeometry x="36" width="84" height="21" as="geometry">
            <mxRectangle width="84" height="21" as="alternateBounds" />
          </mxGeometry>
        </mxCell>
        <mxCell id="II89ZpB64ln66D03jxN8-431" style="shape=tableRow;horizontal=0;startSize=0;swimlaneHead=0;swimlaneBody=0;fillColor=none;collapsible=0;dropTarget=0;points=[[0,0.5],[1,0.5]];portConstraint=eastwest;top=0;left=0;right=0;bottom=0;" parent="II89ZpB64ln66D03jxN8-427" vertex="1">
          <mxGeometry y="46" width="120" height="21" as="geometry" />
        </mxCell>
        <mxCell id="II89ZpB64ln66D03jxN8-432" value="" style="shape=partialRectangle;connectable=0;fillColor=none;top=0;left=0;bottom=0;right=0;align=left;spacingLeft=2;overflow=hidden;fontSize=11;" parent="II89ZpB64ln66D03jxN8-431" vertex="1">
          <mxGeometry width="36" height="21" as="geometry">
            <mxRectangle width="36" height="21" as="alternateBounds" />
          </mxGeometry>
        </mxCell>
        <mxCell id="II89ZpB64ln66D03jxN8-433" value="ShipmentStatus" style="shape=partialRectangle;connectable=0;fillColor=#f5f5f5;top=0;left=0;bottom=0;right=0;align=left;spacingLeft=2;overflow=hidden;fontSize=11;fontColor=#333333;strokeColor=#666666;" parent="II89ZpB64ln66D03jxN8-431" vertex="1">
          <mxGeometry x="36" width="84" height="21" as="geometry">
            <mxRectangle width="84" height="21" as="alternateBounds" />
          </mxGeometry>
        </mxCell>
        <mxCell id="II89ZpB64ln66D03jxN8-434" value="PaymentReminder" style="shape=table;startSize=25;container=1;collapsible=0;childLayout=tableLayout;fixedRows=1;rowLines=1;fontStyle=1;align=center;resizeLast=1;fillColor=#dae8fc;strokeColor=#6c8ebf;" parent="1" vertex="1">
          <mxGeometry x="1327" y="1180" width="128" height="68" as="geometry" />
        </mxCell>
        <mxCell id="II89ZpB64ln66D03jxN8-435" style="shape=tableRow;horizontal=0;startSize=0;swimlaneHead=0;swimlaneBody=0;fillColor=none;collapsible=0;dropTarget=0;points=[[0,0.5],[1,0.5]];portConstraint=eastwest;top=0;left=0;right=0;bottom=0;" parent="II89ZpB64ln66D03jxN8-434" vertex="1">
          <mxGeometry y="25" width="128" height="21" as="geometry" />
        </mxCell>
        <mxCell id="II89ZpB64ln66D03jxN8-436" value="FK" style="shape=partialRectangle;connectable=0;fillColor=none;top=0;left=0;bottom=0;right=0;align=left;spacingLeft=2;overflow=hidden;fontSize=11;fontStyle=1" parent="II89ZpB64ln66D03jxN8-435" vertex="1">
          <mxGeometry width="36" height="21" as="geometry">
            <mxRectangle width="36" height="21" as="alternateBounds" />
          </mxGeometry>
        </mxCell>
        <mxCell id="II89ZpB64ln66D03jxN8-437" value="NotificationID" style="shape=partialRectangle;connectable=0;fillColor=#f5f5f5;top=0;left=0;bottom=0;right=0;align=left;spacingLeft=2;overflow=hidden;fontSize=11;fontColor=#333333;strokeColor=#666666;" parent="II89ZpB64ln66D03jxN8-435" vertex="1">
          <mxGeometry x="36" width="92" height="21" as="geometry">
            <mxRectangle width="92" height="21" as="alternateBounds" />
          </mxGeometry>
        </mxCell>
        <mxCell id="II89ZpB64ln66D03jxN8-438" style="shape=tableRow;horizontal=0;startSize=0;swimlaneHead=0;swimlaneBody=0;fillColor=none;collapsible=0;dropTarget=0;points=[[0,0.5],[1,0.5]];portConstraint=eastwest;top=0;left=0;right=0;bottom=0;" parent="II89ZpB64ln66D03jxN8-434" vertex="1">
          <mxGeometry y="46" width="128" height="21" as="geometry" />
        </mxCell>
        <mxCell id="II89ZpB64ln66D03jxN8-439" value="" style="shape=partialRectangle;connectable=0;fillColor=none;top=0;left=0;bottom=0;right=0;align=left;spacingLeft=2;overflow=hidden;fontSize=11;" parent="II89ZpB64ln66D03jxN8-438" vertex="1">
          <mxGeometry width="36" height="21" as="geometry">
            <mxRectangle width="36" height="21" as="alternateBounds" />
          </mxGeometry>
        </mxCell>
        <mxCell id="II89ZpB64ln66D03jxN8-440" value="PaymentDetails" style="shape=partialRectangle;connectable=0;fillColor=#f5f5f5;top=0;left=0;bottom=0;right=0;align=left;spacingLeft=2;overflow=hidden;fontSize=11;fontColor=#333333;strokeColor=#666666;" parent="II89ZpB64ln66D03jxN8-438" vertex="1">
          <mxGeometry x="36" width="92" height="21" as="geometry">
            <mxRectangle width="92" height="21" as="alternateBounds" />
          </mxGeometry>
        </mxCell>
        <mxCell id="II89ZpB64ln66D03jxN8-441" value="&lt;b&gt;d&lt;/b&gt;" style="ellipse;whiteSpace=wrap;html=1;" parent="1" vertex="1">
          <mxGeometry x="1166" y="1110" width="34" height="30" as="geometry" />
        </mxCell>
        <mxCell id="II89ZpB64ln66D03jxN8-442" value="" style="endArrow=none;html=1;rounded=0;entryX=0;entryY=0.5;entryDx=0;entryDy=0;exitX=0.854;exitY=0.018;exitDx=0;exitDy=0;exitPerimeter=0;" parent="1" source="II89ZpB64ln66D03jxN8-420" target="II89ZpB64ln66D03jxN8-441" edge="1">
          <mxGeometry width="50" height="50" relative="1" as="geometry">
            <mxPoint x="1230" y="1140" as="sourcePoint" />
            <mxPoint x="1280" y="1090" as="targetPoint" />
          </mxGeometry>
        </mxCell>
        <mxCell id="II89ZpB64ln66D03jxN8-443" value="" style="endArrow=none;html=1;rounded=0;entryX=0.5;entryY=1;entryDx=0;entryDy=0;exitX=0.633;exitY=-0.018;exitDx=0;exitDy=0;exitPerimeter=0;" parent="1" source="II89ZpB64ln66D03jxN8-427" target="II89ZpB64ln66D03jxN8-441" edge="1">
          <mxGeometry width="50" height="50" relative="1" as="geometry">
            <mxPoint x="1008" y="1191" as="sourcePoint" />
            <mxPoint x="1176" y="1135" as="targetPoint" />
          </mxGeometry>
        </mxCell>
        <mxCell id="II89ZpB64ln66D03jxN8-444" value="" style="endArrow=none;html=1;rounded=0;entryX=1;entryY=0.5;entryDx=0;entryDy=0;exitX=0.25;exitY=0;exitDx=0;exitDy=0;" parent="1" source="II89ZpB64ln66D03jxN8-434" target="II89ZpB64ln66D03jxN8-441" edge="1">
          <mxGeometry width="50" height="50" relative="1" as="geometry">
            <mxPoint x="1018" y="1201" as="sourcePoint" />
            <mxPoint x="1186" y="1145" as="targetPoint" />
          </mxGeometry>
        </mxCell>
        <mxCell id="II89ZpB64ln66D03jxN8-445" value="" style="endArrow=none;html=1;rounded=0;entryX=0.435;entryY=0.955;entryDx=0;entryDy=0;entryPerimeter=0;exitX=0.5;exitY=0;exitDx=0;exitDy=0;" parent="1" source="II89ZpB64ln66D03jxN8-441" target="II89ZpB64ln66D03jxN8-94" edge="1">
          <mxGeometry width="50" height="50" relative="1" as="geometry">
            <mxPoint x="1230" y="1130" as="sourcePoint" />
            <mxPoint x="1280" y="1080" as="targetPoint" />
          </mxGeometry>
        </mxCell>
        <mxCell id="II89ZpB64ln66D03jxN8-447" value="&lt;b&gt;d&lt;/b&gt;" style="ellipse;whiteSpace=wrap;html=1;" parent="1" vertex="1">
          <mxGeometry x="1480" y="1635" width="34" height="30" as="geometry" />
        </mxCell>
        <mxCell id="II89ZpB64ln66D03jxN8-449" value="" style="endArrow=none;html=1;rounded=0;entryX=0.5;entryY=1;entryDx=0;entryDy=0;exitX=0.5;exitY=0;exitDx=0;exitDy=0;" parent="1" source="II89ZpB64ln66D03jxN8-269" target="II89ZpB64ln66D03jxN8-447" edge="1">
          <mxGeometry width="50" height="50" relative="1" as="geometry">
            <mxPoint x="1270" y="1600" as="sourcePoint" />
            <mxPoint x="1320" y="1550" as="targetPoint" />
          </mxGeometry>
        </mxCell>
        <mxCell id="II89ZpB64ln66D03jxN8-450" value="" style="endArrow=none;html=1;rounded=0;entryX=1;entryY=0.5;entryDx=0;entryDy=0;exitX=0;exitY=0.5;exitDx=0;exitDy=0;" parent="1" source="II89ZpB64ln66D03jxN8-447" target="II89ZpB64ln66D03jxN8-247" edge="1">
          <mxGeometry width="50" height="50" relative="1" as="geometry">
            <mxPoint x="1437" y="1750" as="sourcePoint" />
            <mxPoint x="1507" y="1675" as="targetPoint" />
          </mxGeometry>
        </mxCell>
        <mxCell id="II89ZpB64ln66D03jxN8-451" value="" style="endArrow=none;html=1;rounded=0;entryX=1;entryY=1;entryDx=0;entryDy=0;exitX=0.129;exitY=0.007;exitDx=0;exitDy=0;exitPerimeter=0;" parent="1" source="II89ZpB64ln66D03jxN8-346" target="II89ZpB64ln66D03jxN8-447" edge="1">
          <mxGeometry width="50" height="50" relative="1" as="geometry">
            <mxPoint x="1447" y="1760" as="sourcePoint" />
            <mxPoint x="1517" y="1685" as="targetPoint" />
          </mxGeometry>
        </mxCell>
        <mxCell id="II89ZpB64ln66D03jxN8-452" value="" style="endArrow=none;html=1;rounded=0;entryX=1;entryY=0.5;entryDx=0;entryDy=0;exitX=0;exitY=0.5;exitDx=0;exitDy=0;" parent="1" source="II89ZpB64ln66D03jxN8-299" target="II89ZpB64ln66D03jxN8-447" edge="1">
          <mxGeometry width="50" height="50" relative="1" as="geometry">
            <mxPoint x="1457" y="1770" as="sourcePoint" />
            <mxPoint x="1527" y="1695" as="targetPoint" />
          </mxGeometry>
        </mxCell>
        <mxCell id="II89ZpB64ln66D03jxN8-453" value="" style="endArrow=none;html=1;rounded=0;entryX=0.108;entryY=1.033;entryDx=0;entryDy=0;entryPerimeter=0;exitX=0.351;exitY=0.01;exitDx=0;exitDy=0;exitPerimeter=0;" parent="1" source="II89ZpB64ln66D03jxN8-447" target="II89ZpB64ln66D03jxN8-176" edge="1">
          <mxGeometry width="50" height="50" relative="1" as="geometry">
            <mxPoint x="1490" y="1630" as="sourcePoint" />
            <mxPoint x="1537" y="1705" as="targetPoint" />
          </mxGeometry>
        </mxCell>
        <mxCell id="II89ZpB64ln66D03jxN8-454" value="" style="endArrow=none;html=1;rounded=0;entryX=0.173;entryY=1.014;entryDx=0;entryDy=0;entryPerimeter=0;exitX=0.594;exitY=0.026;exitDx=0;exitDy=0;exitPerimeter=0;" parent="1" source="II89ZpB64ln66D03jxN8-447" target="II89ZpB64ln66D03jxN8-176" edge="1">
          <mxGeometry width="50" height="50" relative="1" as="geometry">
            <mxPoint x="1500" y="1640" as="sourcePoint" />
            <mxPoint x="1547" y="1715" as="targetPoint" />
          </mxGeometry>
        </mxCell>
        <mxCell id="II89ZpB64ln66D03jxN8-644" value="Debit" style="shape=table;startSize=25;container=1;collapsible=0;childLayout=tableLayout;fixedRows=1;rowLines=1;fontStyle=1;align=center;resizeLast=1;fillColor=#dae8fc;strokeColor=#6c8ebf;" parent="1" vertex="1">
          <mxGeometry x="1760" y="2180" width="150" height="91" as="geometry" />
        </mxCell>
        <mxCell id="II89ZpB64ln66D03jxN8-645" style="shape=tableRow;horizontal=0;startSize=0;swimlaneHead=0;swimlaneBody=0;fillColor=none;collapsible=0;dropTarget=0;points=[[0,0.5],[1,0.5]];portConstraint=eastwest;top=0;left=0;right=0;bottom=0;" parent="II89ZpB64ln66D03jxN8-644" vertex="1">
          <mxGeometry y="25" width="150" height="22" as="geometry" />
        </mxCell>
        <mxCell id="II89ZpB64ln66D03jxN8-646" value="FK" style="shape=partialRectangle;connectable=0;fillColor=none;top=0;left=0;bottom=0;right=0;align=left;spacingLeft=2;overflow=hidden;fontSize=11;fontStyle=1" parent="II89ZpB64ln66D03jxN8-645" vertex="1">
          <mxGeometry width="42" height="22" as="geometry">
            <mxRectangle width="42" height="22" as="alternateBounds" />
          </mxGeometry>
        </mxCell>
        <mxCell id="II89ZpB64ln66D03jxN8-647" value="PaymentMethodID" style="shape=partialRectangle;connectable=0;fillColor=#f5f5f5;top=0;left=0;bottom=0;right=0;align=left;spacingLeft=2;overflow=hidden;fontSize=11;fontColor=#333333;strokeColor=#666666;" parent="II89ZpB64ln66D03jxN8-645" vertex="1">
          <mxGeometry x="42" width="108" height="22" as="geometry">
            <mxRectangle width="108" height="22" as="alternateBounds" />
          </mxGeometry>
        </mxCell>
        <mxCell id="II89ZpB64ln66D03jxN8-648" style="shape=tableRow;horizontal=0;startSize=0;swimlaneHead=0;swimlaneBody=0;fillColor=none;collapsible=0;dropTarget=0;points=[[0,0.5],[1,0.5]];portConstraint=eastwest;top=0;left=0;right=0;bottom=0;" parent="II89ZpB64ln66D03jxN8-644" vertex="1">
          <mxGeometry y="47" width="150" height="22" as="geometry" />
        </mxCell>
        <mxCell id="II89ZpB64ln66D03jxN8-649" value="" style="shape=partialRectangle;connectable=0;fillColor=none;top=0;left=0;bottom=0;right=0;align=left;spacingLeft=2;overflow=hidden;fontSize=11;" parent="II89ZpB64ln66D03jxN8-648" vertex="1">
          <mxGeometry width="42" height="22" as="geometry">
            <mxRectangle width="42" height="22" as="alternateBounds" />
          </mxGeometry>
        </mxCell>
        <mxCell id="II89ZpB64ln66D03jxN8-650" value="BankName" style="shape=partialRectangle;connectable=0;fillColor=#f5f5f5;top=0;left=0;bottom=0;right=0;align=left;spacingLeft=2;overflow=hidden;fontSize=11;fontColor=#333333;strokeColor=#666666;" parent="II89ZpB64ln66D03jxN8-648" vertex="1">
          <mxGeometry x="42" width="108" height="22" as="geometry">
            <mxRectangle width="108" height="22" as="alternateBounds" />
          </mxGeometry>
        </mxCell>
        <mxCell id="II89ZpB64ln66D03jxN8-651" style="shape=tableRow;horizontal=0;startSize=0;swimlaneHead=0;swimlaneBody=0;fillColor=none;collapsible=0;dropTarget=0;points=[[0,0.5],[1,0.5]];portConstraint=eastwest;top=0;left=0;right=0;bottom=0;" parent="II89ZpB64ln66D03jxN8-644" vertex="1">
          <mxGeometry y="69" width="150" height="22" as="geometry" />
        </mxCell>
        <mxCell id="II89ZpB64ln66D03jxN8-652" value="" style="shape=partialRectangle;connectable=0;fillColor=none;top=0;left=0;bottom=0;right=0;align=left;spacingLeft=2;overflow=hidden;fontSize=11;" parent="II89ZpB64ln66D03jxN8-651" vertex="1">
          <mxGeometry width="42" height="22" as="geometry">
            <mxRectangle width="42" height="22" as="alternateBounds" />
          </mxGeometry>
        </mxCell>
        <mxCell id="II89ZpB64ln66D03jxN8-653" value="AccountNumber" style="shape=partialRectangle;connectable=0;fillColor=#f5f5f5;top=0;left=0;bottom=0;right=0;align=left;spacingLeft=2;overflow=hidden;fontSize=11;fontColor=#333333;strokeColor=#666666;" parent="II89ZpB64ln66D03jxN8-651" vertex="1">
          <mxGeometry x="42" width="108" height="22" as="geometry">
            <mxRectangle width="108" height="22" as="alternateBounds" />
          </mxGeometry>
        </mxCell>
        <mxCell id="II89ZpB64ln66D03jxN8-666" value="Cash" style="shape=table;startSize=25;container=1;collapsible=0;childLayout=tableLayout;fixedRows=1;rowLines=1;fontStyle=1;align=center;resizeLast=1;fillColor=#dae8fc;strokeColor=#6c8ebf;" parent="1" vertex="1">
          <mxGeometry x="2230" y="2191" width="150" height="68" as="geometry" />
        </mxCell>
        <mxCell id="II89ZpB64ln66D03jxN8-667" style="shape=tableRow;horizontal=0;startSize=0;swimlaneHead=0;swimlaneBody=0;fillColor=none;collapsible=0;dropTarget=0;points=[[0,0.5],[1,0.5]];portConstraint=eastwest;top=0;left=0;right=0;bottom=0;" parent="II89ZpB64ln66D03jxN8-666" vertex="1">
          <mxGeometry y="25" width="150" height="21" as="geometry" />
        </mxCell>
        <mxCell id="II89ZpB64ln66D03jxN8-668" value="FK" style="shape=partialRectangle;connectable=0;fillColor=none;top=0;left=0;bottom=0;right=0;align=left;spacingLeft=2;overflow=hidden;fontSize=11;fontStyle=1" parent="II89ZpB64ln66D03jxN8-667" vertex="1">
          <mxGeometry width="42" height="21" as="geometry">
            <mxRectangle width="42" height="21" as="alternateBounds" />
          </mxGeometry>
        </mxCell>
        <mxCell id="II89ZpB64ln66D03jxN8-669" value="PaymentMethodID" style="shape=partialRectangle;connectable=0;fillColor=#f5f5f5;top=0;left=0;bottom=0;right=0;align=left;spacingLeft=2;overflow=hidden;fontSize=11;fontColor=#333333;strokeColor=#666666;" parent="II89ZpB64ln66D03jxN8-667" vertex="1">
          <mxGeometry x="42" width="108" height="21" as="geometry">
            <mxRectangle width="108" height="21" as="alternateBounds" />
          </mxGeometry>
        </mxCell>
        <mxCell id="II89ZpB64ln66D03jxN8-670" style="shape=tableRow;horizontal=0;startSize=0;swimlaneHead=0;swimlaneBody=0;fillColor=none;collapsible=0;dropTarget=0;points=[[0,0.5],[1,0.5]];portConstraint=eastwest;top=0;left=0;right=0;bottom=0;" parent="II89ZpB64ln66D03jxN8-666" vertex="1">
          <mxGeometry y="46" width="150" height="21" as="geometry" />
        </mxCell>
        <mxCell id="II89ZpB64ln66D03jxN8-671" value="" style="shape=partialRectangle;connectable=0;fillColor=none;top=0;left=0;bottom=0;right=0;align=left;spacingLeft=2;overflow=hidden;fontSize=11;" parent="II89ZpB64ln66D03jxN8-670" vertex="1">
          <mxGeometry width="42" height="21" as="geometry">
            <mxRectangle width="42" height="21" as="alternateBounds" />
          </mxGeometry>
        </mxCell>
        <mxCell id="II89ZpB64ln66D03jxN8-672" value="CurrencyType" style="shape=partialRectangle;connectable=0;fillColor=#f5f5f5;top=0;left=0;bottom=0;right=0;align=left;spacingLeft=2;overflow=hidden;fontSize=11;fontColor=#333333;strokeColor=#666666;" parent="II89ZpB64ln66D03jxN8-670" vertex="1">
          <mxGeometry x="42" width="108" height="21" as="geometry">
            <mxRectangle width="108" height="21" as="alternateBounds" />
          </mxGeometry>
        </mxCell>
        <mxCell id="II89ZpB64ln66D03jxN8-673" value="Credit" style="shape=table;startSize=25;container=1;collapsible=0;childLayout=tableLayout;fixedRows=1;rowLines=1;fontStyle=1;align=center;resizeLast=1;fillColor=#dae8fc;strokeColor=#6c8ebf;" parent="1" vertex="1">
          <mxGeometry x="1990" y="2180" width="160" height="113" as="geometry" />
        </mxCell>
        <mxCell id="II89ZpB64ln66D03jxN8-674" style="shape=tableRow;horizontal=0;startSize=0;swimlaneHead=0;swimlaneBody=0;fillColor=none;collapsible=0;dropTarget=0;points=[[0,0.5],[1,0.5]];portConstraint=eastwest;top=0;left=0;right=0;bottom=0;" parent="II89ZpB64ln66D03jxN8-673" vertex="1">
          <mxGeometry y="25" width="160" height="22" as="geometry" />
        </mxCell>
        <mxCell id="II89ZpB64ln66D03jxN8-675" value="FK" style="shape=partialRectangle;connectable=0;fillColor=none;top=0;left=0;bottom=0;right=0;align=left;spacingLeft=2;overflow=hidden;fontSize=11;fontStyle=1" parent="II89ZpB64ln66D03jxN8-674" vertex="1">
          <mxGeometry width="48" height="22" as="geometry">
            <mxRectangle width="48" height="22" as="alternateBounds" />
          </mxGeometry>
        </mxCell>
        <mxCell id="II89ZpB64ln66D03jxN8-676" value="PaymentMethodID" style="shape=partialRectangle;connectable=0;fillColor=#f5f5f5;top=0;left=0;bottom=0;right=0;align=left;spacingLeft=2;overflow=hidden;fontSize=11;fontColor=#333333;strokeColor=#666666;" parent="II89ZpB64ln66D03jxN8-674" vertex="1">
          <mxGeometry x="48" width="112" height="22" as="geometry">
            <mxRectangle width="112" height="22" as="alternateBounds" />
          </mxGeometry>
        </mxCell>
        <mxCell id="II89ZpB64ln66D03jxN8-677" style="shape=tableRow;horizontal=0;startSize=0;swimlaneHead=0;swimlaneBody=0;fillColor=none;collapsible=0;dropTarget=0;points=[[0,0.5],[1,0.5]];portConstraint=eastwest;top=0;left=0;right=0;bottom=0;" parent="II89ZpB64ln66D03jxN8-673" vertex="1">
          <mxGeometry y="47" width="160" height="22" as="geometry" />
        </mxCell>
        <mxCell id="II89ZpB64ln66D03jxN8-678" value="" style="shape=partialRectangle;connectable=0;fillColor=none;top=0;left=0;bottom=0;right=0;align=left;spacingLeft=2;overflow=hidden;fontSize=11;" parent="II89ZpB64ln66D03jxN8-677" vertex="1">
          <mxGeometry width="48" height="22" as="geometry">
            <mxRectangle width="48" height="22" as="alternateBounds" />
          </mxGeometry>
        </mxCell>
        <mxCell id="II89ZpB64ln66D03jxN8-679" value="CardType" style="shape=partialRectangle;connectable=0;fillColor=#f5f5f5;top=0;left=0;bottom=0;right=0;align=left;spacingLeft=2;overflow=hidden;fontSize=11;fontColor=#333333;strokeColor=#666666;" parent="II89ZpB64ln66D03jxN8-677" vertex="1">
          <mxGeometry x="48" width="112" height="22" as="geometry">
            <mxRectangle width="112" height="22" as="alternateBounds" />
          </mxGeometry>
        </mxCell>
        <mxCell id="II89ZpB64ln66D03jxN8-680" style="shape=tableRow;horizontal=0;startSize=0;swimlaneHead=0;swimlaneBody=0;fillColor=none;collapsible=0;dropTarget=0;points=[[0,0.5],[1,0.5]];portConstraint=eastwest;top=0;left=0;right=0;bottom=0;" parent="II89ZpB64ln66D03jxN8-673" vertex="1">
          <mxGeometry y="69" width="160" height="22" as="geometry" />
        </mxCell>
        <mxCell id="II89ZpB64ln66D03jxN8-681" value="" style="shape=partialRectangle;connectable=0;fillColor=none;top=0;left=0;bottom=0;right=0;align=left;spacingLeft=2;overflow=hidden;fontSize=11;" parent="II89ZpB64ln66D03jxN8-680" vertex="1">
          <mxGeometry width="48" height="22" as="geometry">
            <mxRectangle width="48" height="22" as="alternateBounds" />
          </mxGeometry>
        </mxCell>
        <mxCell id="II89ZpB64ln66D03jxN8-682" value="CardNumber" style="shape=partialRectangle;connectable=0;fillColor=#f5f5f5;top=0;left=0;bottom=0;right=0;align=left;spacingLeft=2;overflow=hidden;fontSize=11;fontColor=#333333;strokeColor=#666666;" parent="II89ZpB64ln66D03jxN8-680" vertex="1">
          <mxGeometry x="48" width="112" height="22" as="geometry">
            <mxRectangle width="112" height="22" as="alternateBounds" />
          </mxGeometry>
        </mxCell>
        <mxCell id="II89ZpB64ln66D03jxN8-683" style="shape=tableRow;horizontal=0;startSize=0;swimlaneHead=0;swimlaneBody=0;fillColor=none;collapsible=0;dropTarget=0;points=[[0,0.5],[1,0.5]];portConstraint=eastwest;top=0;left=0;right=0;bottom=0;" parent="II89ZpB64ln66D03jxN8-673" vertex="1">
          <mxGeometry y="91" width="160" height="22" as="geometry" />
        </mxCell>
        <mxCell id="II89ZpB64ln66D03jxN8-684" value="" style="shape=partialRectangle;connectable=0;fillColor=none;top=0;left=0;bottom=0;right=0;align=left;spacingLeft=2;overflow=hidden;fontSize=11;" parent="II89ZpB64ln66D03jxN8-683" vertex="1">
          <mxGeometry width="48" height="22" as="geometry">
            <mxRectangle width="48" height="22" as="alternateBounds" />
          </mxGeometry>
        </mxCell>
        <mxCell id="II89ZpB64ln66D03jxN8-685" value="ExpiryDate" style="shape=partialRectangle;connectable=0;fillColor=#f5f5f5;top=0;left=0;bottom=0;right=0;align=left;spacingLeft=2;overflow=hidden;fontSize=11;fontColor=#333333;strokeColor=#666666;" parent="II89ZpB64ln66D03jxN8-683" vertex="1">
          <mxGeometry x="48" width="112" height="22" as="geometry">
            <mxRectangle width="112" height="22" as="alternateBounds" />
          </mxGeometry>
        </mxCell>
        <mxCell id="II89ZpB64ln66D03jxN8-686" value="&lt;b&gt;d&lt;/b&gt;" style="ellipse;whiteSpace=wrap;html=1;" parent="1" vertex="1">
          <mxGeometry x="2091" y="2046" width="34" height="30" as="geometry" />
        </mxCell>
        <mxCell id="II89ZpB64ln66D03jxN8-687" value="" style="endArrow=none;html=1;rounded=0;entryX=0.37;entryY=0.979;entryDx=0;entryDy=0;entryPerimeter=0;exitX=0.283;exitY=0.011;exitDx=0;exitDy=0;exitPerimeter=0;" parent="1" source="II89ZpB64ln66D03jxN8-686" target="II89ZpB64ln66D03jxN8-132" edge="1">
          <mxGeometry width="50" height="50" relative="1" as="geometry">
            <mxPoint x="2040" y="2110" as="sourcePoint" />
            <mxPoint x="2090" y="2060" as="targetPoint" />
          </mxGeometry>
        </mxCell>
        <mxCell id="II89ZpB64ln66D03jxN8-688" value="" style="endArrow=none;html=1;rounded=0;exitX=0.5;exitY=0;exitDx=0;exitDy=0;entryX=0.416;entryY=1.016;entryDx=0;entryDy=0;entryPerimeter=0;" parent="1" source="II89ZpB64ln66D03jxN8-686" target="II89ZpB64ln66D03jxN8-132" edge="1">
          <mxGeometry width="50" height="50" relative="1" as="geometry">
            <mxPoint x="2110" y="1980" as="sourcePoint" />
            <mxPoint x="2110" y="1940" as="targetPoint" />
          </mxGeometry>
        </mxCell>
        <mxCell id="II89ZpB64ln66D03jxN8-689" value="" style="endArrow=none;html=1;rounded=0;exitX=0.816;exitY=0.004;exitDx=0;exitDy=0;exitPerimeter=0;entryX=0;entryY=0.5;entryDx=0;entryDy=0;" parent="1" source="II89ZpB64ln66D03jxN8-644" target="II89ZpB64ln66D03jxN8-686" edge="1">
          <mxGeometry width="50" height="50" relative="1" as="geometry">
            <mxPoint x="2020" y="2100" as="sourcePoint" />
            <mxPoint x="2070" y="2050" as="targetPoint" />
          </mxGeometry>
        </mxCell>
        <mxCell id="II89ZpB64ln66D03jxN8-690" value="" style="endArrow=none;html=1;rounded=0;exitX=1;exitY=0.5;exitDx=0;exitDy=0;entryX=0.5;entryY=0;entryDx=0;entryDy=0;" parent="1" source="II89ZpB64ln66D03jxN8-686" target="II89ZpB64ln66D03jxN8-666" edge="1">
          <mxGeometry width="50" height="50" relative="1" as="geometry">
            <mxPoint x="2060" y="2110" as="sourcePoint" />
            <mxPoint x="2278" y="1991" as="targetPoint" />
          </mxGeometry>
        </mxCell>
        <mxCell id="II89ZpB64ln66D03jxN8-691" value="" style="endArrow=none;html=1;rounded=0;entryX=0.831;entryY=0.003;entryDx=0;entryDy=0;entryPerimeter=0;" parent="1" target="II89ZpB64ln66D03jxN8-673" edge="1">
          <mxGeometry width="50" height="50" relative="1" as="geometry">
            <mxPoint x="2110" y="2080" as="sourcePoint" />
            <mxPoint x="2288" y="1981" as="targetPoint" />
          </mxGeometry>
        </mxCell>
        <mxCell id="3FMIBUW514Lr_5vxj_tx-4" value="is included in" style="curved=0;startArrow=ERmandOne;startSize=10;;endArrow=ERmany;endSize=10;;entryX=0.849;entryY=-0.068;rounded=0;entryDx=0;entryDy=0;entryPerimeter=0;" parent="1" source="II89ZpB64ln66D03jxN8-208" edge="1" target="II89ZpB64ln66D03jxN8-179">
          <mxGeometry relative="1" as="geometry">
            <Array as="points">
              <mxPoint x="380" y="150" />
              <mxPoint x="1330" y="150" />
            </Array>
            <mxPoint x="380" y="390" as="sourcePoint" />
            <mxPoint x="1337" y="84" as="targetPoint" />
          </mxGeometry>
        </mxCell>
        <mxCell id="3FMIBUW514Lr_5vxj_tx-5" value="ProductItem" style="shape=table;startSize=25;container=1;collapsible=0;childLayout=tableLayout;fixedRows=1;rowLines=1;fontStyle=1;align=center;resizeLast=1;fillColor=#dae8fc;strokeColor=#6c8ebf;" parent="1" vertex="1">
          <mxGeometry x="1240" y="559" width="144" height="201" as="geometry" />
        </mxCell>
        <mxCell id="3FMIBUW514Lr_5vxj_tx-6" style="shape=tableRow;horizontal=0;startSize=0;swimlaneHead=0;swimlaneBody=0;fillColor=none;collapsible=0;dropTarget=0;points=[[0,0.5],[1,0.5]];portConstraint=eastwest;top=0;left=0;right=0;bottom=0;" parent="3FMIBUW514Lr_5vxj_tx-5" vertex="1">
          <mxGeometry y="25" width="144" height="22" as="geometry" />
        </mxCell>
        <mxCell id="3FMIBUW514Lr_5vxj_tx-7" value="PK" style="shape=partialRectangle;connectable=0;fillColor=none;top=0;left=0;bottom=0;right=0;align=left;spacingLeft=2;overflow=hidden;fontSize=11;fontStyle=1" parent="3FMIBUW514Lr_5vxj_tx-6" vertex="1">
          <mxGeometry width="42" height="22" as="geometry">
            <mxRectangle width="42" height="22" as="alternateBounds" />
          </mxGeometry>
        </mxCell>
        <mxCell id="3FMIBUW514Lr_5vxj_tx-8" value="ProductItemID" style="shape=partialRectangle;connectable=0;fillColor=none;top=0;left=0;bottom=0;right=0;align=left;spacingLeft=2;overflow=hidden;fontSize=11;fontStyle=5" parent="3FMIBUW514Lr_5vxj_tx-6" vertex="1">
          <mxGeometry x="42" width="102" height="22" as="geometry">
            <mxRectangle width="102" height="22" as="alternateBounds" />
          </mxGeometry>
        </mxCell>
        <mxCell id="3FMIBUW514Lr_5vxj_tx-9" style="shape=tableRow;horizontal=0;startSize=0;swimlaneHead=0;swimlaneBody=0;fillColor=none;collapsible=0;dropTarget=0;points=[[0,0.5],[1,0.5]];portConstraint=eastwest;top=0;left=0;right=0;bottom=0;" parent="3FMIBUW514Lr_5vxj_tx-5" vertex="1">
          <mxGeometry y="47" width="144" height="22" as="geometry" />
        </mxCell>
        <mxCell id="3FMIBUW514Lr_5vxj_tx-10" value="FK" style="shape=partialRectangle;connectable=0;fillColor=none;top=0;left=0;bottom=0;right=0;align=left;spacingLeft=2;overflow=hidden;fontSize=11;fontStyle=1" parent="3FMIBUW514Lr_5vxj_tx-9" vertex="1">
          <mxGeometry width="42" height="22" as="geometry">
            <mxRectangle width="42" height="22" as="alternateBounds" />
          </mxGeometry>
        </mxCell>
        <mxCell id="3FMIBUW514Lr_5vxj_tx-11" value="ProductCategoryID" style="shape=partialRectangle;connectable=0;fillColor=none;top=0;left=0;bottom=0;right=0;align=left;spacingLeft=2;overflow=hidden;fontSize=11;" parent="3FMIBUW514Lr_5vxj_tx-9" vertex="1">
          <mxGeometry x="42" width="102" height="22" as="geometry">
            <mxRectangle width="102" height="22" as="alternateBounds" />
          </mxGeometry>
        </mxCell>
        <mxCell id="3FMIBUW514Lr_5vxj_tx-12" style="shape=tableRow;horizontal=0;startSize=0;swimlaneHead=0;swimlaneBody=0;fillColor=none;collapsible=0;dropTarget=0;points=[[0,0.5],[1,0.5]];portConstraint=eastwest;top=0;left=0;right=0;bottom=0;" parent="3FMIBUW514Lr_5vxj_tx-5" vertex="1">
          <mxGeometry y="69" width="144" height="22" as="geometry" />
        </mxCell>
        <mxCell id="3FMIBUW514Lr_5vxj_tx-13" value="" style="shape=partialRectangle;connectable=0;fillColor=none;top=0;left=0;bottom=0;right=0;align=left;spacingLeft=2;overflow=hidden;fontSize=11;" parent="3FMIBUW514Lr_5vxj_tx-12" vertex="1">
          <mxGeometry width="42" height="22" as="geometry">
            <mxRectangle width="42" height="22" as="alternateBounds" />
          </mxGeometry>
        </mxCell>
        <mxCell id="3FMIBUW514Lr_5vxj_tx-14" value="ProductName" style="shape=partialRectangle;connectable=0;fillColor=none;top=0;left=0;bottom=0;right=0;align=left;spacingLeft=2;overflow=hidden;fontSize=11;" parent="3FMIBUW514Lr_5vxj_tx-12" vertex="1">
          <mxGeometry x="42" width="102" height="22" as="geometry">
            <mxRectangle width="102" height="22" as="alternateBounds" />
          </mxGeometry>
        </mxCell>
        <mxCell id="3FMIBUW514Lr_5vxj_tx-15" style="shape=tableRow;horizontal=0;startSize=0;swimlaneHead=0;swimlaneBody=0;fillColor=none;collapsible=0;dropTarget=0;points=[[0,0.5],[1,0.5]];portConstraint=eastwest;top=0;left=0;right=0;bottom=0;" parent="3FMIBUW514Lr_5vxj_tx-5" vertex="1">
          <mxGeometry y="91" width="144" height="22" as="geometry" />
        </mxCell>
        <mxCell id="3FMIBUW514Lr_5vxj_tx-16" value="" style="shape=partialRectangle;connectable=0;fillColor=none;top=0;left=0;bottom=0;right=0;align=left;spacingLeft=2;overflow=hidden;fontSize=11;" parent="3FMIBUW514Lr_5vxj_tx-15" vertex="1">
          <mxGeometry width="42" height="22" as="geometry">
            <mxRectangle width="42" height="22" as="alternateBounds" />
          </mxGeometry>
        </mxCell>
        <mxCell id="3FMIBUW514Lr_5vxj_tx-17" value="Description" style="shape=partialRectangle;connectable=0;fillColor=none;top=0;left=0;bottom=0;right=0;align=left;spacingLeft=2;overflow=hidden;fontSize=11;" parent="3FMIBUW514Lr_5vxj_tx-15" vertex="1">
          <mxGeometry x="42" width="102" height="22" as="geometry">
            <mxRectangle width="102" height="22" as="alternateBounds" />
          </mxGeometry>
        </mxCell>
        <mxCell id="3FMIBUW514Lr_5vxj_tx-18" style="shape=tableRow;horizontal=0;startSize=0;swimlaneHead=0;swimlaneBody=0;fillColor=none;collapsible=0;dropTarget=0;points=[[0,0.5],[1,0.5]];portConstraint=eastwest;top=0;left=0;right=0;bottom=0;" parent="3FMIBUW514Lr_5vxj_tx-5" vertex="1">
          <mxGeometry y="113" width="144" height="22" as="geometry" />
        </mxCell>
        <mxCell id="3FMIBUW514Lr_5vxj_tx-19" value="" style="shape=partialRectangle;connectable=0;fillColor=none;top=0;left=0;bottom=0;right=0;align=left;spacingLeft=2;overflow=hidden;fontSize=11;" parent="3FMIBUW514Lr_5vxj_tx-18" vertex="1">
          <mxGeometry width="42" height="22" as="geometry">
            <mxRectangle width="42" height="22" as="alternateBounds" />
          </mxGeometry>
        </mxCell>
        <mxCell id="3FMIBUW514Lr_5vxj_tx-20" value="Price" style="shape=partialRectangle;connectable=0;fillColor=none;top=0;left=0;bottom=0;right=0;align=left;spacingLeft=2;overflow=hidden;fontSize=11;" parent="3FMIBUW514Lr_5vxj_tx-18" vertex="1">
          <mxGeometry x="42" width="102" height="22" as="geometry">
            <mxRectangle width="102" height="22" as="alternateBounds" />
          </mxGeometry>
        </mxCell>
        <mxCell id="3FMIBUW514Lr_5vxj_tx-21" style="shape=tableRow;horizontal=0;startSize=0;swimlaneHead=0;swimlaneBody=0;fillColor=none;collapsible=0;dropTarget=0;points=[[0,0.5],[1,0.5]];portConstraint=eastwest;top=0;left=0;right=0;bottom=0;" parent="3FMIBUW514Lr_5vxj_tx-5" vertex="1">
          <mxGeometry y="135" width="144" height="22" as="geometry" />
        </mxCell>
        <mxCell id="3FMIBUW514Lr_5vxj_tx-22" value="" style="shape=partialRectangle;connectable=0;fillColor=none;top=0;left=0;bottom=0;right=0;align=left;spacingLeft=2;overflow=hidden;fontSize=11;" parent="3FMIBUW514Lr_5vxj_tx-21" vertex="1">
          <mxGeometry width="42" height="22" as="geometry">
            <mxRectangle width="42" height="22" as="alternateBounds" />
          </mxGeometry>
        </mxCell>
        <mxCell id="3FMIBUW514Lr_5vxj_tx-23" value="Availability" style="shape=partialRectangle;connectable=0;fillColor=none;top=0;left=0;bottom=0;right=0;align=left;spacingLeft=2;overflow=hidden;fontSize=11;" parent="3FMIBUW514Lr_5vxj_tx-21" vertex="1">
          <mxGeometry x="42" width="102" height="22" as="geometry">
            <mxRectangle width="102" height="22" as="alternateBounds" />
          </mxGeometry>
        </mxCell>
        <mxCell id="3FMIBUW514Lr_5vxj_tx-24" style="shape=tableRow;horizontal=0;startSize=0;swimlaneHead=0;swimlaneBody=0;fillColor=none;collapsible=0;dropTarget=0;points=[[0,0.5],[1,0.5]];portConstraint=eastwest;top=0;left=0;right=0;bottom=0;" parent="3FMIBUW514Lr_5vxj_tx-5" vertex="1">
          <mxGeometry y="157" width="144" height="22" as="geometry" />
        </mxCell>
        <mxCell id="3FMIBUW514Lr_5vxj_tx-25" value="" style="shape=partialRectangle;connectable=0;fillColor=none;top=0;left=0;bottom=0;right=0;align=left;spacingLeft=2;overflow=hidden;fontSize=11;" parent="3FMIBUW514Lr_5vxj_tx-24" vertex="1">
          <mxGeometry width="42" height="22" as="geometry">
            <mxRectangle width="42" height="22" as="alternateBounds" />
          </mxGeometry>
        </mxCell>
        <mxCell id="3FMIBUW514Lr_5vxj_tx-26" value="QuantityAvailable: " style="shape=partialRectangle;connectable=0;fillColor=none;top=0;left=0;bottom=0;right=0;align=left;spacingLeft=2;overflow=hidden;fontSize=11;" parent="3FMIBUW514Lr_5vxj_tx-24" vertex="1">
          <mxGeometry x="42" width="102" height="22" as="geometry">
            <mxRectangle width="102" height="22" as="alternateBounds" />
          </mxGeometry>
        </mxCell>
        <mxCell id="3FMIBUW514Lr_5vxj_tx-27" style="shape=tableRow;horizontal=0;startSize=0;swimlaneHead=0;swimlaneBody=0;fillColor=none;collapsible=0;dropTarget=0;points=[[0,0.5],[1,0.5]];portConstraint=eastwest;top=0;left=0;right=0;bottom=0;" parent="3FMIBUW514Lr_5vxj_tx-5" vertex="1">
          <mxGeometry y="179" width="144" height="22" as="geometry" />
        </mxCell>
        <mxCell id="3FMIBUW514Lr_5vxj_tx-28" value="" style="shape=partialRectangle;connectable=0;fillColor=none;top=0;left=0;bottom=0;right=0;align=left;spacingLeft=2;overflow=hidden;fontSize=11;" parent="3FMIBUW514Lr_5vxj_tx-27" vertex="1">
          <mxGeometry width="42" height="22" as="geometry">
            <mxRectangle width="42" height="22" as="alternateBounds" />
          </mxGeometry>
        </mxCell>
        <mxCell id="3FMIBUW514Lr_5vxj_tx-29" value="Date" style="shape=partialRectangle;connectable=0;fillColor=none;top=0;left=0;bottom=0;right=0;align=left;spacingLeft=2;overflow=hidden;fontSize=11;" parent="3FMIBUW514Lr_5vxj_tx-27" vertex="1">
          <mxGeometry x="42" width="102" height="22" as="geometry">
            <mxRectangle width="102" height="22" as="alternateBounds" />
          </mxGeometry>
        </mxCell>
      </root>
    </mxGraphModel>
  </diagram>
</mxfile>
